SplineFontDB: 3.2
FontName: ClassWizMathX-Regular
FullName: ClassWiz Math X Regular
FamilyName: ClassWiz Math X
Weight: Regular
Copyright: Copyright (c) 2023-2024, Windy Deng (windy0deng@gmail.com),\nCopyright (c) 2014-2024, CASIO Computer Co., Ltd (https://www.casio.com/).
Version: Version 1.002
ItalicAngle: 0
UnderlinePosition: -21
UnderlineWidth: 8
Ascent: 130
Descent: 10
InvalidEm: 0
sfntRevision: 0x00010000
LayerCount: 2
Layer: 0 0 "Back" 1
Layer: 1 0 "Fore" 0
XUID: [1021 199 1599025585 5107]
StyleMap: 0x0040
FSType: 0
OS2Version: 4
OS2_WeightWidthSlopeOnly: 0
OS2_UseTypoMetrics: 1
CreationTime: 1688717740
ModificationTime: 1727539104
PfmFamily: 81
TTFWeight: 400
TTFWidth: 5
LineGap: 30
VLineGap: 0
Panose: 0 0 0 0 0 0 0 0 0 0
OS2TypoAscent: 130
OS2TypoAOffset: 0
OS2TypoDescent: -10
OS2TypoDOffset: 0
OS2TypoLinegap: 30
OS2WinAscent: 150
OS2WinAOffset: 0
OS2WinDescent: 20
OS2WinDOffset: 0
HheadAscent: 130
HheadAOffset: 0
HheadDescent: -10
HheadDOffset: 0
OS2SubXSize: 110
OS2SubYSize: 130
OS2SubXOff: 0
OS2SubYOff: 5
OS2SupXSize: 110
OS2SupYSize: 130
OS2SupXOff: 0
OS2SupYOff: 15
OS2StrikeYSize: -10
OS2StrikeYPos: 54
OS2CapHeight: 120
OS2XHeight: 90
OS2Vendor: '    '
OS2CodePages: 00040007.00000000
OS2UnicodeRanges: a000023f.1a0638e9.0a000000.00000000
Lookup: 1 0 0 "'aalt' Access All Alternates lookup 0" { "'aalt' Access All Alternates lookup 0 subtable"  } ['aalt' ('DFLT' <'dflt' > 'hani' <'dflt' > 'kana' <'dflt' > 'latn' <'dflt' > ) ]
Lookup: 3 0 0 "'aalt' Access All Alternates lookup 1" { "'aalt' Access All Alternates lookup 1 subtable"  } ['aalt' ('DFLT' <'dflt' > 'hani' <'dflt' > 'kana' <'dflt' > 'latn' <'dflt' > ) ]
Lookup: 4 0 0 "'ccmp' Glyph Composition/Decomposition lookup 2" { "'ccmp' Glyph Composition/Decomposition lookup 2 subtable"  } ['ccmp' ('DFLT' <'dflt' > 'hani' <'dflt' > 'kana' <'dflt' > 'latn' <'dflt' > ) ]

StartChar: .notdef
Encoding: 920 -1 0
Width: 110
GlyphClass: 1
Flags: W
HStem: -10 10<10 90> 10 20<40 60> 40 20<40 50> 70 20<70 80> 80 10<20 30> 90 10<40 60> 110 10<10 90>
VStem: 0 10<0 110> 20 20<80 90> 40 20<10 30 40 60> 50 20<60 70> 60 20<70 90> 90 10<0 110>
LayerCount: 2
Fore
SplineSet
0 -10 m 1xe308
 0 120 l 1
 100 120 l 1
 100 -10 l 1
 0 -10 l 1xe308
10 0 m 1
 90 0 l 1
 90 110 l 1
 10 110 l 1
 10 0 l 1
20 80 m 1xeb98
 20 90 l 1
 30 90 l 1xeb98
 30 100 l 1
 70 100 l 1xe7a8
 70 90 l 1xf3a8
 80 90 l 1
 80 70 l 1xf318
 70 70 l 1
 70 60 l 1xf328
 60 60 l 1
 60 40 l 1
 40 40 l 1
 40 60 l 1xf348
 50 60 l 1
 50 70 l 1xf328
 60 70 l 1xf318
 60 90 l 1
 40 90 l 1xe798
 40 80 l 1
 20 80 l 1xeb98
40 10 m 1xe348
 40 30 l 1
 60 30 l 1
 60 10 l 1
 40 10 l 1xe348
EndSplineSet
Validated: 1
EndChar

StartChar: exclam
Encoding: 3 33 4
Width: 110
GlyphClass: 2
Flags: W
HStem: 100 20G<40 60>
VStem: 40 20<40 120>
LayerCount: 2
Fore
SplineSet
40 120 m 1
 60 120 l 1
 60 40 l 1
 40 40 l 1
 40 120 l 1
40 20 m 1
 40 0 l 1
 60 0 l 1
 60 20 l 1
 40 20 l 1
EndSplineSet
Validated: 9
AlternateSubs2: "'ssty' Math Script Style lookup 4 subtable" exclam.ssty exclam.ssty2
AlternateSubs2: "'aalt' Access All Alternates lookup 1 subtable" exclam.ssty exclam.ssty2
EndChar

StartChar: quotedbl
Encoding: 4 34 5
Width: 110
GlyphClass: 2
Flags: W
HStem: 70 10<10 20 50 60> 90 30<10 20 50 60>
VStem: 10 20<70 80> 20 20<80 90> 50 20<70 80> 60 20<80 90>
LayerCount: 2
Fore
SplineSet
20 90 m 1xd0
 10 90 l 1
 10 120 l 1xe0
 40 120 l 1
 40 80 l 1xd0
 30 80 l 1
 30 70 l 1
 10 70 l 1
 10 80 l 1xe0
 20 80 l 1
 20 90 l 1xd0
60 90 m 1xc4
 50 90 l 1
 50 120 l 1xc8
 80 120 l 1
 80 80 l 1xc4
 70 80 l 1
 70 70 l 1
 50 70 l 1
 50 80 l 1xc8
 60 80 l 1
 60 90 l 1xc4
EndSplineSet
Validated: 1
AlternateSubs2: "'ssty' Math Script Style lookup 4 subtable" quotedbl.ssty quotedbl.ssty2
AlternateSubs2: "'aalt' Access All Alternates lookup 1 subtable" quotedbl.ssty quotedbl.ssty2
EndChar

StartChar: numbersign
Encoding: 5 35 6
Width: 110
GlyphClass: 2
Flags: W
HStem: 0 21G<20 40 60 80> 30 10<10 20 50 60 90 100> 80 10<20 30 60 70 100 110> 100 20G<40 60 80 100>
VStem: 20 20<0 30> 30 20<40 80> 40 20<90 120> 60 20<0 30> 70 20<40 80> 80 20<90 120>
LayerCount: 2
Fore
SplineSet
10 40 m 1xf9
 30 40 l 1
 30 80 l 1xf4
 20 80 l 1
 20 90 l 1xf8
 40 90 l 1
 40 120 l 1
 60 120 l 1
 60 90 l 1
 80 90 l 1
 80 120 l 1
 100 120 l 1
 100 90 l 1xf240
 110 90 l 1
 110 80 l 1
 90 80 l 1
 90 40 l 1xf080
 100 40 l 1
 100 30 l 1xf040
 80 30 l 1
 80 0 l 1
 60 0 l 1
 60 30 l 1
 40 30 l 1
 40 0 l 1
 20 0 l 1
 20 30 l 1
 10 30 l 1
 10 40 l 1xf9
50 80 m 1
 50 40 l 1
 70 40 l 1
 70 80 l 1xf480
 50 80 l 1
EndSplineSet
Validated: 1
AlternateSubs2: "'ssty' Math Script Style lookup 4 subtable" numbersign.ssty numbersign.ssty2
AlternateSubs2: "'aalt' Access All Alternates lookup 1 subtable" numbersign.ssty numbersign.ssty2
EndChar

StartChar: dollar
Encoding: 6 36 7
Width: 110
GlyphClass: 2
Flags: W
HStem: 0 21G<50 60> 10 20<30 40 70 80> 10 10<40 50 60 70> 20 20<20 30> 40 20<70 80> 50 20<40 50 60 70> 60 20<30 40> 80 20<80 90> 90 20<30 40 70 80> 100 20G<50 60> 100 10<40 50 60 70>
VStem: 10 30<20 30 70 80 90 100> 10 20<30 40 80 90> 10 10<10 20 40 50> 50 10<0 10 20 50 70 100 110 120> 70 30<20 30 40 50 90 100> 80 20<30 40 80 90> 90 10<70 80 100 110>
LayerCount: 2
Fore
SplineSet
10 70 m 1x0412
 10 100 l 1x0432
 20 100 l 1
 20 110 l 1
 50 110 l 1x0426
 50 120 l 1
 60 120 l 1x0046
 60 110 l 1x0026
 80 110 l 1x008680
 80 100 l 1x010680
 90 100 l 1x010240
 90 110 l 1
 100 110 l 1x002240
 100 70 l 1
 90 70 l 1
 90 80 l 1x050240
 80 80 l 1x050280
 80 90 l 1x008280
 70 90 l 1x0083
 70 100 l 1x0023
 60 100 l 1
 60 70 l 1
 70 70 l 1x0443
 70 60 l 1x0803
 90 60 l 1x020240
 90 50 l 1x040240
 100 50 l 1
 100 20 l 1x1403
 90 20 l 1x140240
 90 10 l 1
 60 10 l 1x200240
 60 0 l 1
 50 0 l 1x800240
 50 10 l 1x200240
 30 10 l 1x400a40
 30 20 l 1x100a40
 20 20 l 1x1006
 20 10 l 1
 10 10 l 1x2006
 10 50 l 1
 20 50 l 1
 20 40 l 1x1406
 30 40 l 1x140a
 30 30 l 1x400a
 40 30 l 1x4012
 40 20 l 1
 50 20 l 1
 50 50 l 1
 40 50 l 1x2412
 40 60 l 1x0212
 20 60 l 1x0206
 20 70 l 1x0406
 10 70 l 1x0412
60 20 m 1x2403
 70 20 l 1x2403
 70 30 l 1x4003
 80 30 l 1
 80 40 l 1x480280
 70 40 l 1x4803
 70 50 l 1
 60 50 l 1
 60 20 l 1x2403
40 80 m 1x0292
 40 70 l 1
 50 70 l 1
 50 100 l 1x0452
 40 100 l 1x0032
 40 90 l 1x0092
 30 90 l 1
 30 80 l 1x028a
 40 80 l 1x0292
EndSplineSet
Validated: 1
EndChar

StartChar: percent
Encoding: 7 37 8
Width: 110
GlyphClass: 2
Flags: W
HStem: 0 20<10 20> 0 10<70 80> 10 30<50 60 90 100> 40 10<70 80> 70 10<20 30> 80 30<0 10 40 50> 100 20<80 90> 110 10<20 30>
VStem: 0 20<80 110> 10 20<0 20> 20 20<20 40> 30 20<40 50 80 110> 50 20<10 40 70 80> 60 20<80 100> 70 20<100 120> 80 20<10 40>
LayerCount: 2
Fore
SplineSet
10 80 m 1x0440
 0 80 l 1
 0 110 l 1x0480
 10 110 l 1x0440
 10 120 l 1x0140
 40 120 l 1x0120
 40 110 l 1x0420
 50 110 l 1
 50 80 l 1
 60 80 l 1x0414
 60 100 l 1x0214
 70 100 l 1x0202
 70 120 l 1x0102
 90 120 l 1
 90 100 l 1x0202
 80 100 l 1x0204
 80 80 l 1x0404
 70 80 l 1x0408
 70 70 l 1x0808
 60 70 l 1
 60 50 l 1x1804
 90 50 l 1x1802
 90 40 l 1x2002
 100 40 l 1
 100 10 l 1x2001
 90 10 l 1x2002
 90 0 l 1x4002
 60 0 l 1x4004
 60 10 l 1x2004
 50 10 l 1x2008
 50 40 l 1x2010
 40 40 l 1
 40 20 l 1x9020
 30 20 l 1x9040
 30 0 l 1x4040
 10 0 l 1
 10 20 l 1x8040
 20 20 l 1
 20 40 l 1x9020
 30 40 l 1
 30 50 l 1x9010
 40 50 l 1
 40 70 l 1x9820
 10 70 l 1x9840
 10 80 l 1x0440
30 80 m 1x0990
 30 110 l 1
 20 110 l 1
 20 80 l 1
 30 80 l 1x0990
70 10 m 1x5009
 80 10 l 1
 80 40 l 1
 70 40 l 1
 70 10 l 1x5009
50 40 m 1x2014
 60 40 l 1x2014
 60 50 l 1
 50 50 l 1x1014
 50 40 l 1x2014
40 80 m 1x0420
 40 70 l 1
 50 70 l 1x0828
 50 80 l 1x0410
 40 80 l 1x0420
EndSplineSet
Validated: 5
AlternateSubs2: "'ssty' Math Script Style lookup 4 subtable" percent.ssty percent.ssty2
AlternateSubs2: "'aalt' Access All Alternates lookup 1 subtable" percent.ssty percent.ssty2
EndChar

StartChar: ampersand
Encoding: 8 38 9
Width: 110
GlyphClass: 2
Flags: W
HStem: 0 10<20 40 80 90> 10 30<50 70> 10 10<90 100> 30 20<40 50> 40 30<30 40 80 90> 60 20<40 50> 60 10<60 70 90 100> 110 10<30 50>
VStem: 0 20<10 50> 10 20<70 110> 30 20<40 50> 40 20<70 80> 50 20<20 30 80 110> 70 20<0 10 40 60> 90 10<10 20>
LayerCount: 2
Fore
SplineSet
10 10 m 1x2148
 0 10 l 1
 0 50 l 1x3180
 10 50 l 1
 10 60 l 1x3340
 20 60 l 1
 20 70 l 1x3380
 10 70 l 1
 10 110 l 1x3340
 20 110 l 1
 20 120 l 1
 60 120 l 1
 60 110 l 1x3390
 70 110 l 1
 70 80 l 1x0508
 60 80 l 1x0510
 60 70 l 1
 100 70 l 1
 100 60 l 1x0312
 90 60 l 1x0304
 90 40 l 1
 80 40 l 1x0904
 80 30 l 1
 70 30 l 1
 70 20 l 1
 80 20 l 1x3108
 80 10 l 1
 90 10 l 1x8104
 90 20 l 1
 100 20 l 1
 100 10 l 1x2102
 90 10 l 1
 90 0 l 1
 70 0 l 1x8104
 70 10 l 1x4104
 50 10 l 1x4108
 50 0 l 1
 10 0 l 1x8148
 10 10 l 1x2148
40 10 m 1x9190
 40 20 l 1x2190
 50 20 l 1
 50 30 l 1x3108
 40 30 l 1x3110
 40 40 l 1x0910
 30 40 l 1x0920
 30 50 l 1x1120
 20 50 l 1
 20 10 l 1
 40 10 l 1x9190
30 110 m 1x0548
 30 70 l 1
 40 70 l 1x0950
 40 80 l 1x0550
 50 80 l 1
 50 110 l 1
 30 110 l 1x0548
50 60 m 1x0508
 40 60 l 1
 40 50 l 1x1510
 50 50 l 1x1520
 50 40 l 1x4120
 70 40 l 1
 70 60 l 1
 60 60 l 1
 60 70 l 1x4314
 50 70 l 1x4308
 50 60 l 1x0508
EndSplineSet
Validated: 5
EndChar

StartChar: quotesingle
Encoding: 9 39 10
Width: 110
GlyphClass: 2
Flags: W
HStem: 70 10<30 40> 100 20G<30 60>
VStem: 30 20<70 80> 40 20<80 90>
LayerCount: 2
Fore
SplineSet
40 90 m 1xd0
 30 90 l 1
 30 120 l 1xe0
 60 120 l 1
 60 80 l 1xd0
 50 80 l 1
 50 70 l 1
 30 70 l 1
 30 80 l 1xe0
 40 80 l 1
 40 90 l 1xd0
EndSplineSet
Validated: 1
AlternateSubs2: "'ssty' Math Script Style lookup 4 subtable" quotesingle.ssty quotesingle.ssty2
AlternateSubs2: "'aalt' Access All Alternates lookup 1 subtable" quotesingle.ssty quotesingle.ssty2
EndChar

StartChar: parenleft
Encoding: 10 40 11
Width: 110
GlyphClass: 2
Flags: W
IsExtendedShape: 1
GlyphVariantsVertical: parenleft parenleft.v1 parenleft.v2 parenleft.v3 parenleft.v4 parenleft.v5 parenleft.v6 parenleft.v7
GlyphCompositionVertical: 3  uni239D%0,0,45,210 uni239C%1,90,90,90 uni239B%0,45,0,210
HStem: 0 20<60 70> 0 10<70 80> 100 20<60 70> 110 10<70 80>
VStem: 30 20<40 80> 40 20<20 40 80 100> 50 20<10 20 100 110> 60 20<0 10 110 120>
LayerCount: 2
Fore
SplineSet
80 120 m 1x11
 80 110 l 1x11
 70 110 l 1x12
 70 100 l 1x22
 60 100 l 1
 60 80 l 1x24
 50 80 l 1
 50 40 l 1x28
 60 40 l 1
 60 20 l 1xa4
 70 20 l 1xa2
 70 10 l 1x42
 80 10 l 1
 80 0 l 1x41
 60 0 l 1x81
 60 10 l 1x41
 50 10 l 1x42
 50 20 l 1x82
 40 20 l 1
 40 40 l 1x84
 30 40 l 1
 30 80 l 1x88
 40 80 l 1
 40 100 l 1xa4
 50 100 l 1xa2
 50 110 l 1x12
 60 110 l 1x11
 60 120 l 1x21
 80 120 l 1x11
EndSplineSet
Validated: 1
AlternateSubs2: "'ssty' Math Script Style lookup 4 subtable" parenleft.ssty parenleft.ssty2
AlternateSubs2: "'aalt' Access All Alternates lookup 1 subtable" parenleft.ssty parenleft.ssty2
EndChar

StartChar: parenright
Encoding: 11 41 12
Width: 110
GlyphClass: 2
Flags: W
IsExtendedShape: 1
GlyphVariantsVertical: parenright parenright.v1 parenright.v2 parenright.v3 parenright.v4 parenright.v5 parenright.v6 parenright.v7
GlyphCompositionVertical: 3  uni23A0%0,0,45,210 uni239F%1,90,90,90 uni239E%0,45,0,210
HStem: 0 20<40 50> 0 10<30 40> 100 20<40 50> 110 10<30 40>
VStem: 30 20<0 10 110 120> 40 20<10 20 100 110> 50 20<20 40 80 100> 60 20<40 80>
LayerCount: 2
Fore
SplineSet
30 120 m 1x18
 50 120 l 1x28
 50 110 l 1x18
 60 110 l 1x14
 60 100 l 1x24
 70 100 l 1
 70 80 l 1x22
 80 80 l 1
 80 40 l 1x21
 70 40 l 1
 70 20 l 1xa2
 60 20 l 1xa4
 60 10 l 1x44
 50 10 l 1x48
 50 0 l 1x88
 30 0 l 1
 30 10 l 1x48
 40 10 l 1x44
 40 20 l 1x84
 50 20 l 1
 50 40 l 1x82
 60 40 l 1
 60 80 l 1x81
 50 80 l 1
 50 100 l 1xa2
 40 100 l 1xa4
 40 110 l 1x14
 30 110 l 1
 30 120 l 1x18
EndSplineSet
Validated: 1
AlternateSubs2: "'ssty' Math Script Style lookup 4 subtable" parenright.ssty parenright.ssty2
AlternateSubs2: "'aalt' Access All Alternates lookup 1 subtable" parenright.ssty parenright.ssty2
EndChar

StartChar: asterisk
Encoding: 12 42 13
Width: 110
GlyphClass: 2
Flags: W
HStem: 50 20<30 40 60 70>
VStem: 40 20<40 50 70 80>
LayerCount: 2
Fore
SplineSet
30 70 m 1
 40 70 l 1
 40 80 l 1
 60 80 l 1
 60 70 l 1
 70 70 l 1
 70 50 l 1
 60 50 l 1
 60 40 l 1
 40 40 l 1
 40 50 l 1
 30 50 l 1
 30 70 l 1
EndSplineSet
Validated: 1
AlternateSubs2: "'ssty' Math Script Style lookup 4 subtable" asterisk.ssty asterisk.ssty2
AlternateSubs2: "'aalt' Access All Alternates lookup 1 subtable" asterisk.ssty asterisk.ssty2
EndChar

StartChar: plus
Encoding: 13 43 14
Width: 110
GlyphClass: 2
Flags: W
HStem: 50 20<0 40 60 100>
VStem: 40 20<10 50 70 110>
LayerCount: 2
Fore
SplineSet
40 110 m 1
 60 110 l 1
 60 70 l 1
 100 70 l 1
 100 50 l 1
 60 50 l 1
 60 10 l 1
 40 10 l 1
 40 50 l 1
 0 50 l 1
 0 70 l 1
 40 70 l 1
 40 110 l 1
EndSplineSet
Validated: 1
AlternateSubs2: "'ssty' Math Script Style lookup 4 subtable" plus.ssty plus.ssty2
AlternateSubs2: "'aalt' Access All Alternates lookup 1 subtable" plus.ssty plus.ssty2
EndChar

StartChar: comma
Encoding: 14 44 15
Width: 110
GlyphClass: 2
Flags: W
HStem: -10 10<20 30>
VStem: 20 20<-10 0> 30 20<0 10>
LayerCount: 2
Fore
SplineSet
30 10 m 1xa0
 20 10 l 1
 20 40 l 1xc0
 50 40 l 1
 50 0 l 1xa0
 40 0 l 1
 40 -10 l 1
 20 -10 l 1
 20 0 l 1xc0
 30 0 l 1
 30 10 l 1xa0
EndSplineSet
Validated: 1
AlternateSubs2: "'ssty' Math Script Style lookup 4 subtable" comma.ssty comma.ssty2
AlternateSubs2: "'aalt' Access All Alternates lookup 1 subtable" comma.ssty comma.ssty2
EndChar

StartChar: hyphen
Encoding: 15 45 16
Width: 110
GlyphClass: 2
Flags: W
HStem: 50 20<20 80>
LayerCount: 2
Fore
SplineSet
20 50 m 1
 20 70 l 1
 80 70 l 1
 80 50 l 1
 20 50 l 1
EndSplineSet
Validated: 1
AlternateSubs2: "'ssty' Math Script Style lookup 4 subtable" hyphen.ssty hyphen.ssty2
AlternateSubs2: "'aalt' Access All Alternates lookup 1 subtable" hyphen.ssty hyphen.ssty2
EndChar

StartChar: period
Encoding: 16 46 17
Width: 110
GlyphClass: 2
Flags: W
HStem: 0 30<20 50>
VStem: 20 30<0 30>
LayerCount: 2
Fore
SplineSet
20 0 m 1
 20 30 l 1
 50 30 l 1
 50 0 l 1
 20 0 l 1
EndSplineSet
Validated: 1
AlternateSubs2: "'ssty' Math Script Style lookup 4 subtable" period.ssty period.ssty2
AlternateSubs2: "'aalt' Access All Alternates lookup 1 subtable" period.ssty period.ssty2
EndChar

StartChar: slash
Encoding: 17 47 18
Width: 110
GlyphClass: 2
Flags: W
HStem: 0 20<20 30> 100 20<70 80>
VStem: 20 20<0 20> 30 20<20 50> 40 20<50 70> 50 20<70 100> 60 20<100 120>
LayerCount: 2
Fore
SplineSet
20 0 m 1xe0
 20 20 l 1xe0
 30 20 l 1
 30 50 l 1xd0
 40 50 l 1
 40 70 l 1xc8
 50 70 l 1
 50 100 l 1xc4
 60 100 l 1
 60 120 l 1
 80 120 l 1
 80 100 l 1xc2
 70 100 l 1
 70 70 l 1xc4
 60 70 l 1
 60 50 l 1xc8
 50 50 l 1
 50 20 l 1xd0
 40 20 l 1
 40 0 l 1
 20 0 l 1xe0
EndSplineSet
Validated: 1
AlternateSubs2: "'ssty' Math Script Style lookup 4 subtable" slash.ssty slash.ssty2
AlternateSubs2: "'aalt' Access All Alternates lookup 1 subtable" slash.ssty slash.ssty2
EndChar

StartChar: zero
Encoding: 18 48 19
Width: 110
GlyphClass: 2
Flags: W
HStem: 0 20<30 40 70 80> 0 10<40 70> 100 20<30 40 70 80> 110 10<40 70>
VStem: 10 20<30 90> 20 20<10 20 100 110> 20 10<20 30 90 100> 70 20<10 20 100 110> 80 20<30 90> 80 10<20 30 90 100>
LayerCount: 2
Fore
SplineSet
10 30 m 1x48
 10 90 l 1x48
 20 90 l 1x42
 20 110 l 1x54
 30 110 l 1x52
 30 120 l 1
 80 120 l 1x2240
 80 110 l 1x1240
 90 110 l 1x11
 90 90 l 1x1040
 100 90 l 1
 100 30 l 1x1080
 90 30 l 1x1040
 90 10 l 1x51
 80 10 l 1x5040
 80 0 l 1
 30 0 l 1x8240
 30 10 l 1x4240
 20 10 l 1x44
 20 30 l 1x42
 10 30 l 1x48
30 20 m 1xa2
 40 20 l 1xa4
 40 10 l 1
 70 10 l 1x45
 70 20 l 1x85
 80 20 l 1
 80 100 l 1xa040
 70 100 l 1xa1
 70 110 l 1
 40 110 l 1x15
 40 100 l 1x25
 30 100 l 1
 30 20 l 1xa2
EndSplineSet
Validated: 1
AlternateSubs2: "'ssty' Math Script Style lookup 4 subtable" zero.ssty zero.ssty2
AlternateSubs2: "'aalt' Access All Alternates lookup 1 subtable" zero.ssty zero.ssty2
EndChar

StartChar: one
Encoding: 19 49 20
Width: 110
GlyphClass: 2
Flags: W
HStem: 0 10<20 40 60 80> 100 20G<40 60> 100 10<20 40>
VStem: 40 20<10 100 110 120>
LayerCount: 2
Fore
SplineSet
20 0 m 1xd0
 20 10 l 1
 40 10 l 1
 40 100 l 1xd0
 20 100 l 1
 20 110 l 1
 40 110 l 1xb0
 40 120 l 1
 60 120 l 1
 60 10 l 1
 80 10 l 1
 80 0 l 1
 20 0 l 1xd0
EndSplineSet
Validated: 1
AlternateSubs2: "'ssty' Math Script Style lookup 4 subtable" one.ssty one.ssty2
AlternateSubs2: "'aalt' Access All Alternates lookup 1 subtable" one.ssty one.ssty2
EndChar

StartChar: two
Encoding: 20 50 21
Width: 110
GlyphClass: 2
Flags: W
HStem: 0 30<20 30 90 100> 0 20<10 20 40 90> 30 20<40 50> 40 20<50 60> 50 20<70 80> 50 10<60 70> 80 20<10 20> 100 20<30 40 70 80> 110 10<40 70>
VStem: 10 20<80 100> 20 20<20 30 100 110> 30 20<30 40> 40 20<40 50> 70 20<60 70 100 110> 80 20<70 100> 90 10<20 30>
LayerCount: 2
Fore
SplineSet
10 0 m 1x4041
 10 20 l 1x4041
 20 20 l 1x4020
 20 30 l 1x8020
 30 30 l 1
 30 40 l 1x9010
 40 40 l 1x9008
 40 50 l 1x2008
 50 50 l 1x2010
 50 60 l 1x1010
 70 60 l 1x0414
 70 70 l 1x0814
 80 70 l 1
 80 100 l 1x0902
 70 100 l 1x0904
 70 110 l 1
 40 110 l 1x00a4
 40 100 l 1x0124
 30 100 l 1x0140
 30 80 l 1
 10 80 l 1
 10 100 l 1x0240
 20 100 l 1
 20 110 l 1x02a0
 30 110 l 1x0290
 30 120 l 1
 80 120 l 1x0112
 80 110 l 1x0092
 90 110 l 1x0084
 90 100 l 1x0104
 100 100 l 1
 100 70 l 1x0902
 90 70 l 1x0904
 90 60 l 1x0404
 80 60 l 1x0402
 80 50 l 1x0802
 60 50 l 1x040a
 60 40 l 1x100a
 50 40 l 1x1010
 50 30 l 1x2010
 40 30 l 1
 40 20 l 1
 90 20 l 1x6021
 90 30 l 1
 100 30 l 1
 100 0 l 1x8021
 10 0 l 1x4041
EndSplineSet
Validated: 1
AlternateSubs2: "'ssty' Math Script Style lookup 4 subtable" two.ssty two.ssty2
AlternateSubs2: "'aalt' Access All Alternates lookup 1 subtable" two.ssty two.ssty2
EndChar

StartChar: three
Encoding: 21 51 22
Width: 110
GlyphClass: 2
Flags: W
HStem: 0 20<30 40 70 80> 0 10<40 70> 10 20<10 20> 60 10<30 70> 80 20<90 100> 90 20<10 20> 100 20<30 40 70 80> 110 10<40 70>
VStem: 10 30<10 20 100 110> 10 20<20 30 90 100> 70 20<10 20 50 60 70 80 100 110> 80 20<20 50 80 100>
LayerCount: 2
Fore
SplineSet
10 30 m 1x3040
 30 30 l 1x3040
 30 20 l 1x9040
 40 20 l 1x9080
 40 10 l 1
 70 10 l 1x50a0
 70 20 l 1x90a0
 80 20 l 1
 80 50 l 1x9010
 70 50 l 1
 70 60 l 1
 30 60 l 1
 30 70 l 1
 70 70 l 1
 70 80 l 1x9860
 80 80 l 1x9810
 80 100 l 1x1210
 70 100 l 1x1220
 70 110 l 1
 40 110 l 1x11a0
 40 100 l 1x12a0
 30 100 l 1x1240
 30 90 l 1
 10 90 l 1x1440
 10 110 l 1
 20 110 l 1x1480
 20 120 l 1x1180
 80 120 l 1x1290
 80 110 l 1x1190
 90 110 l 1
 90 100 l 1x1920
 100 100 l 1
 100 80 l 1x1910
 90 80 l 1
 90 70 l 1x1920
 80 70 l 1
 80 60 l 1x1910
 90 60 l 1
 90 50 l 1x1920
 100 50 l 1
 100 20 l 1x9910
 90 20 l 1x9920
 90 10 l 1x3020
 80 10 l 1x3010
 80 0 l 1x9010
 20 0 l 1x5010
 20 10 l 1
 10 10 l 1x3090
 10 30 l 1x3040
EndSplineSet
Validated: 1
AlternateSubs2: "'ssty' Math Script Style lookup 4 subtable" three.ssty three.ssty2
AlternateSubs2: "'aalt' Access All Alternates lookup 1 subtable" three.ssty three.ssty2
EndChar

StartChar: four
Encoding: 22 52 23
Width: 110
GlyphClass: 2
Flags: W
HStem: 0 10<50 60 80 90> 30 10<10 20 30 60 80 100> 60 20<30 40> 80 20<40 50> 100 20G<60 80> 100 10<50 60>
VStem: 20 10<40 60> 30 10<60 80> 40 10<80 100> 60 20<10 30 40 100 110 120>
LayerCount: 2
Fore
SplineSet
10 40 m 1xc8c0
 20 40 l 1
 20 60 l 1
 30 60 l 1xeac0
 30 80 l 1
 40 80 l 1xe940
 40 100 l 1
 50 100 l 1xd0c0
 50 110 l 1
 60 110 l 1xc4c0
 60 120 l 1
 80 120 l 1
 80 40 l 1
 100 40 l 1
 100 30 l 1
 80 30 l 1
 80 10 l 1
 90 10 l 1
 90 0 l 1
 50 0 l 1
 50 10 l 1
 60 10 l 1
 60 30 l 1
 10 30 l 1
 10 40 l 1xc8c0
30 60 m 1
 30 40 l 1
 60 40 l 1
 60 100 l 1xea40
 50 100 l 1
 50 80 l 1xd2c0
 40 80 l 1
 40 60 l 1xe140
 30 60 l 1
EndSplineSet
Validated: 5
AlternateSubs2: "'ssty' Math Script Style lookup 4 subtable" four.ssty four.ssty2
AlternateSubs2: "'aalt' Access All Alternates lookup 1 subtable" four.ssty four.ssty2
EndChar

StartChar: five
Encoding: 23 53 24
Width: 110
GlyphClass: 2
Flags: W
HStem: 0 20<30 40 70 80> 0 10<40 70> 10 20<10 20> 50 20<10 20> 60 20<70 80> 70 10<30 70> 100 20<30 90> 110 10<90 100>
VStem: 10 10<50 60> 20 10<80 100> 70 20<10 20 60 70> 80 20<20 60>
LayerCount: 2
Fore
SplineSet
20 10 m 1x2050
 10 10 l 1
 10 30 l 1x2080
 30 30 l 1x2040
 30 20 l 1
 40 20 l 1x8040
 40 10 l 1
 70 10 l 1x4060
 70 20 l 1x8060
 80 20 l 1
 80 60 l 1x8810
 70 60 l 1x8820
 70 70 l 1
 30 70 l 1x0460
 30 60 l 1x0860
 20 60 l 1x0880
 20 50 l 1
 10 50 l 1
 10 70 l 1x1080
 20 70 l 1
 20 120 l 1
 100 120 l 1
 100 110 l 1x1150
 90 110 l 1x1120
 90 100 l 1
 30 100 l 1
 30 80 l 1x0660
 80 80 l 1x0850
 80 70 l 1x0450
 90 70 l 1x0420
 90 60 l 1x0820
 100 60 l 1
 100 20 l 1x8810
 90 20 l 1x8820
 90 10 l 1x2020
 80 10 l 1x2010
 80 0 l 1x8010
 20 0 l 1x4050
 20 10 l 1x2050
EndSplineSet
Validated: 1
AlternateSubs2: "'ssty' Math Script Style lookup 4 subtable" five.ssty five.ssty2
AlternateSubs2: "'aalt' Access All Alternates lookup 1 subtable" five.ssty five.ssty2
EndChar

StartChar: six
Encoding: 24 54 25
Width: 110
GlyphClass: 2
Flags: W
HStem: 0 20<30 40 70 80> 0 10<40 70> 60 10<30 40> 70 10<40 70> 90 20<90 100> 100 20<30 40 70 80> 110 10<40 70>
VStem: 10 20<20 60 70 100> 20 20<10 20 100 110> 70 20<10 20 60 70> 80 20<20 60 90 100>
LayerCount: 2
Fore
SplineSet
20 20 m 1x8080
 10 20 l 1
 10 100 l 1x85
 20 100 l 1x8480
 20 110 l 1x0280
 30 110 l 1x03
 30 120 l 1x05
 90 120 l 1x0340
 90 110 l 1x0940
 100 110 l 1
 100 90 l 1
 80 90 l 1x0820
 80 100 l 1x0420
 70 100 l 1x0440
 70 110 l 1
 40 110 l 1x02c0
 40 100 l 1x04c0
 30 100 l 1
 30 70 l 1x25
 40 70 l 1x2480
 40 80 l 1
 80 80 l 1
 80 70 l 1x10a0
 90 70 l 1x1040
 90 60 l 1x2040
 100 60 l 1
 100 20 l 1xa020
 90 20 l 1xa040
 90 10 l 1x4040
 80 10 l 1x4020
 80 0 l 1
 30 0 l 1x8120
 30 10 l 1x4120
 20 10 l 1x4080
 20 20 l 1x8080
30 60 m 1x21
 30 20 l 1xa1
 40 20 l 1xa080
 40 10 l 1
 70 10 l 1x40c0
 70 20 l 1x80c0
 80 20 l 1
 80 60 l 1xa020
 70 60 l 1xa040
 70 70 l 1x1040
 40 70 l 1
 40 60 l 1x20c0
 30 60 l 1x21
EndSplineSet
Validated: 5
AlternateSubs2: "'ssty' Math Script Style lookup 4 subtable" six.ssty six.ssty2
AlternateSubs2: "'aalt' Access All Alternates lookup 1 subtable" six.ssty six.ssty2
EndChar

StartChar: seven
Encoding: 25 55 26
Width: 110
GlyphClass: 2
Flags: W
HStem: 0 21G<40 60> 80 10<80 90> 100 20<20 90>
VStem: 10 10<80 100> 40 20<0 40> 50 20<40 60> 60 20<60 80> 70 20<80 90> 90 10<90 100>
LayerCount: 2
Fore
SplineSet
10 120 m 1xf080
 100 120 l 1
 100 90 l 1xf080
 90 90 l 1
 90 80 l 1xf1
 80 80 l 1
 80 60 l 1xf2
 70 60 l 1
 70 40 l 1xf4
 60 40 l 1
 60 0 l 1
 40 0 l 1
 40 40 l 1xf8
 50 40 l 1
 50 60 l 1xf4
 60 60 l 1
 60 80 l 1xf2
 70 80 l 1
 70 90 l 1
 90 90 l 1xf1
 90 100 l 1
 20 100 l 1
 20 80 l 1
 10 80 l 1
 10 120 l 1xf080
EndSplineSet
Validated: 5
AlternateSubs2: "'ssty' Math Script Style lookup 4 subtable" seven.ssty seven.ssty2
AlternateSubs2: "'aalt' Access All Alternates lookup 1 subtable" seven.ssty seven.ssty2
EndChar

StartChar: eight
Encoding: 26 56 27
Width: 110
GlyphClass: 2
Flags: W
HStem: 0 20<30 40 70 80> 0 10<40 70> 20 30<10 20 90 100> 50 20<40 70> 70 30<10 20 90 100> 100 20<30 40 70 80> 110 10<40 70>
VStem: 10 20<20 50 80 100> 20 20<10 20 100 110> 70 20<10 20 100 110> 80 20<20 40 70 100>
LayerCount: 2
Fore
SplineSet
20 20 m 1x6080
 10 20 l 1
 10 50 l 1x61
 20 50 l 1
 20 70 l 1x6880
 10 70 l 1
 10 100 l 1x69
 20 100 l 1
 20 110 l 1x6a80
 30 110 l 1x6b
 30 120 l 1
 80 120 l 1x0520
 80 110 l 1x0320
 90 110 l 1
 90 100 l 1x0a40
 100 100 l 1
 100 70 l 1x0a20
 90 70 l 1
 90 50 l 1x2a40
 100 50 l 1
 100 20 l 1x2a20
 90 20 l 1
 90 10 l 1x6a40
 80 10 l 1x6a20
 80 0 l 1
 30 0 l 1x8120
 30 10 l 1x4120
 20 10 l 1
 20 20 l 1x6080
30 50 m 1x9140
 30 20 l 1x9140
 40 20 l 1x9080
 40 10 l 1
 70 10 l 1x40c0
 70 20 l 1x80c0
 80 20 l 1
 80 40 l 1x8020
 70 40 l 1
 70 50 l 1
 30 50 l 1x9140
30 80 m 1
 40 80 l 1
 40 70 l 1x1480
 80 70 l 1x08a0
 80 100 l 1x04a0
 70 100 l 1x0440
 70 110 l 1
 40 110 l 1x02c0
 40 100 l 1x04c0
 30 100 l 1x05
 30 80 l 1
EndSplineSet
Validated: 1
AlternateSubs2: "'ssty' Math Script Style lookup 4 subtable" eight.ssty eight.ssty2
AlternateSubs2: "'aalt' Access All Alternates lookup 1 subtable" eight.ssty eight.ssty2
EndChar

StartChar: nine
Encoding: 27 57 28
Width: 110
GlyphClass: 2
Flags: W
HStem: 0 20<30 40 70 80> 0 10<40 70> 10 20<10 20> 40 10<40 70> 50 10<70 80> 100 20<30 40 70 80> 110 10<40 70>
VStem: 10 20<20 30 60 100> 20 20<50 60 100 110> 70 20<10 20 100 110> 80 20<20 50 60 100>
LayerCount: 2
Fore
SplineSet
20 0 m 1x40a0
 20 10 l 1x20a0
 10 10 l 1
 10 30 l 1
 30 30 l 1x21
 30 20 l 1x81
 40 20 l 1x8080
 40 10 l 1
 70 10 l 1x40c0
 70 20 l 1x80c0
 80 20 l 1
 80 50 l 1x8820
 70 50 l 1
 70 40 l 1
 30 40 l 1x1140
 30 50 l 1x0940
 20 50 l 1
 20 60 l 1x0880
 10 60 l 1
 10 100 l 1x0d
 20 100 l 1x0c80
 20 110 l 1x0280
 30 110 l 1x03
 30 120 l 1
 80 120 l 1x0520
 80 110 l 1x0320
 90 110 l 1x0240
 90 100 l 1x0440
 100 100 l 1
 100 20 l 1x8420
 90 20 l 1x8440
 90 10 l 1x2040
 80 10 l 1x2020
 80 0 l 1x8020
 20 0 l 1x40a0
30 100 m 1x05
 30 60 l 1x0d
 40 60 l 1x0c80
 40 50 l 1
 70 50 l 1x10c0
 70 60 l 1x08c0
 80 60 l 1
 80 100 l 1x0c20
 70 100 l 1x0c40
 70 110 l 1
 40 110 l 1x02c0
 40 100 l 1x04c0
 30 100 l 1x05
EndSplineSet
Validated: 5
AlternateSubs2: "'ssty' Math Script Style lookup 4 subtable" nine.ssty nine.ssty2
AlternateSubs2: "'aalt' Access All Alternates lookup 1 subtable" nine.ssty nine.ssty2
EndChar

StartChar: colon
Encoding: 28 58 29
Width: 110
GlyphClass: 2
Flags: W
HStem: 10 30<40 70> 70 30<40 70>
VStem: 40 30<10 40 70 100>
LayerCount: 2
Fore
SplineSet
40 10 m 1
 40 40 l 1
 70 40 l 1
 70 10 l 1
 40 10 l 1
40 70 m 1
 40 100 l 1
 70 100 l 1
 70 70 l 1
 40 70 l 1
EndSplineSet
Validated: 1
AlternateSubs2: "'ssty' Math Script Style lookup 4 subtable" colon.ssty colon.ssty2
AlternateSubs2: "'aalt' Access All Alternates lookup 1 subtable" colon.ssty colon.ssty2
EndChar

StartChar: semicolon
Encoding: 29 59 30
Width: 110
GlyphClass: 2
Flags: W
HStem: -10 10<40 50>
VStem: 40 20<-10 0> 50 20<0 10>
LayerCount: 2
Fore
SplineSet
50 10 m 1xa0
 40 10 l 1
 40 40 l 1xc0
 70 40 l 1
 70 0 l 1xa0
 60 0 l 1
 60 -10 l 1
 40 -10 l 1
 40 0 l 1xc0
 50 0 l 1
 50 10 l 1xa0
40 100 m 1
 40 70 l 1xc0
 70 70 l 1
 70 100 l 1xa0
 40 100 l 1
EndSplineSet
Validated: 9
AlternateSubs2: "'ssty' Math Script Style lookup 4 subtable" semicolon.ssty semicolon.ssty2
AlternateSubs2: "'aalt' Access All Alternates lookup 1 subtable" semicolon.ssty semicolon.ssty2
EndChar

StartChar: less
Encoding: 30 60 31
Width: 110
GlyphClass: 2
Flags: W
HStem: 0 20<70 80> 50 10<10 20> 90 20<70 80>
VStem: 20 30<40 50 60 70> 30 30<30 40 70 80> 40 30<20 30 80 90> 50 30<10 20 90 100> 60 20<0 10 100 110>
CounterMasks: 1 e0
LayerCount: 2
Fore
SplineSet
80 0 m 1xe1
 60 0 l 1
 60 10 l 1xe1
 50 10 l 1
 50 20 l 1xe2
 40 20 l 1
 40 30 l 1xe4
 30 30 l 1
 30 40 l 1xe8
 20 40 l 1
 20 50 l 1
 10 50 l 1
 10 60 l 1
 20 60 l 1
 20 70 l 1xf0
 30 70 l 1
 30 80 l 1xe8
 40 80 l 1
 40 90 l 1xe4
 50 90 l 1
 50 100 l 1xe2
 60 100 l 1
 60 110 l 1
 80 110 l 1xe1
 80 90 l 1xe2
 70 90 l 1
 70 80 l 1xe4
 60 80 l 1
 60 70 l 1xe8
 50 70 l 1
 50 60 l 1xf0
 40 60 l 1
 40 50 l 1xe4
 50 50 l 1
 50 40 l 1xf0
 60 40 l 1
 60 30 l 1xe8
 70 30 l 1
 70 20 l 1xe4
 80 20 l 1xe2
 80 0 l 1xe1
EndSplineSet
Validated: 1
AlternateSubs2: "'ssty' Math Script Style lookup 4 subtable" less.ssty less.ssty2
AlternateSubs2: "'aalt' Access All Alternates lookup 1 subtable" less.ssty less.ssty2
EndChar

StartChar: equal
Encoding: 31 61 32
Width: 110
GlyphClass: 2
Flags: W
HStem: 30 20<0 100> 70 20<0 100>
LayerCount: 2
Fore
SplineSet
0 70 m 1
 0 90 l 1
 100 90 l 1
 100 70 l 1
 0 70 l 1
0 30 m 1
 0 50 l 1
 100 50 l 1
 100 30 l 1
 0 30 l 1
EndSplineSet
Validated: 1
AlternateSubs2: "'ssty' Math Script Style lookup 4 subtable" equal.ssty equal.ssty2
AlternateSubs2: "'aalt' Access All Alternates lookup 1 subtable" equal.ssty equal.ssty2
EndChar

StartChar: greater
Encoding: 32 62 33
Width: 110
GlyphClass: 2
Flags: W
HStem: 0 20<20 30> 50 10<80 90> 90 20<20 30>
VStem: 20 30<10 20 90 100> 20 20<0 10 100 110> 30 30<20 30 80 90> 40 30<30 40 70 80> 50 30<40 50 60 70>
CounterMasks: 1 e0
LayerCount: 2
Fore
SplineSet
20 0 m 1xe8
 20 20 l 1xf0
 30 20 l 1
 30 30 l 1xe4
 40 30 l 1
 40 40 l 1xe2
 50 40 l 1
 50 50 l 1xe1
 60 50 l 1
 60 60 l 1xe4
 50 60 l 1
 50 70 l 1xe1
 40 70 l 1
 40 80 l 1xe2
 30 80 l 1
 30 90 l 1xe4
 20 90 l 1xf0
 20 110 l 1
 40 110 l 1
 40 100 l 1xe8
 50 100 l 1
 50 90 l 1xf0
 60 90 l 1
 60 80 l 1xe4
 70 80 l 1
 70 70 l 1xe2
 80 70 l 1
 80 60 l 1
 90 60 l 1
 90 50 l 1
 80 50 l 1
 80 40 l 1xe1
 70 40 l 1
 70 30 l 1xe2
 60 30 l 1
 60 20 l 1xe4
 50 20 l 1
 50 10 l 1xf0
 40 10 l 1
 40 0 l 1
 20 0 l 1xe8
EndSplineSet
Validated: 1
AlternateSubs2: "'ssty' Math Script Style lookup 4 subtable" greater.ssty greater.ssty2
AlternateSubs2: "'aalt' Access All Alternates lookup 1 subtable" greater.ssty greater.ssty2
EndChar

StartChar: question
Encoding: 33 63 34
Width: 110
GlyphClass: 2
Flags: W
HStem: 0 20<40 60> 40 20<40 50> 60 20<60 70> 80 20<10 20 80 90> 100 20<30 40 60 70> 110 10<40 60>
VStem: 10 20<80 100> 20 20<100 110> 40 20<0 20 40 60> 50 20<60 70> 60 20<70 80 100 110> 70 20<80 100>
LayerCount: 2
Fore
SplineSet
10 80 m 1x92
 10 100 l 1x92
 20 100 l 1
 20 110 l 1x95
 30 110 l 1x96
 30 120 l 1
 70 120 l 1x8a10
 70 110 l 1x8610
 80 110 l 1
 80 100 l 1x9420
 90 100 l 1
 90 80 l 1x9410
 80 80 l 1
 80 70 l 1x9420
 70 70 l 1
 70 60 l 1xa040
 60 60 l 1xa080
 60 40 l 1
 40 40 l 1
 40 60 l 1xc080
 50 60 l 1
 50 70 l 1xc040
 60 70 l 1
 60 80 l 1xa020
 70 80 l 1
 70 100 l 1xa810
 60 100 l 1xa820
 60 110 l 1
 40 110 l 1x8520
 40 100 l 1x8920
 30 100 l 1x8a
 30 80 l 1
 10 80 l 1x92
40 0 m 1x8080
 40 20 l 1
 60 20 l 1
 60 0 l 1
 40 0 l 1x8080
EndSplineSet
Validated: 1
AlternateSubs2: "'ssty' Math Script Style lookup 4 subtable" question.ssty question.ssty2
AlternateSubs2: "'aalt' Access All Alternates lookup 1 subtable" question.ssty question.ssty2
EndChar

StartChar: at
Encoding: 34 64 35
Width: 110
GlyphClass: 2
Flags: W
HStem: 0 10<40 70> 10 20<90 100> 10 10<20 30 80 90> 30 20<80 90> 30 10<40 50 70 80> 40 20<50 60> 70 20<40 50> 80 10<50 60> 90 20<80 90> 100 10<20 30 70 80> 110 10<40 60>
VStem: 0 10<40 80> 10 10<20 30 90 100> 20 20<40 70> 30 20<30 40 70 80> 40 20<80 90> 50 20<40 60> 60 30<30 40 100 110> 60 20<60 80> 70 10<80 90> 80 20<40 50 90 100> 90 10<20 30 50 90>
LayerCount: 2
Fore
SplineSet
0 30 m 1x2810
 0 90 l 1x2890
 10 90 l 1x2888
 10 110 l 1x0028
 30 110 l 1x004a
 30 120 l 1
 70 120 l 1x002a10
 70 110 l 1x004a10
 90 110 l 1x008040
 90 100 l 1x004040
 100 100 l 1
 100 40 l 1x044008
 90 40 l 1
 90 30 l 1x444040
 100 30 l 1
 100 10 l 1x444004
 80 10 l 1x200008
 80 0 l 1
 30 0 l 1x800208
 30 10 l 1
 10 10 l 1
 10 30 l 1x280a08
 0 30 l 1x2810
10 40 m 1x0554
 20 40 l 1x0554
 20 20 l 1
 40 20 l 1x2549
 40 10 l 1
 70 10 l 1x800910
 70 20 l 1
 90 20 l 1x200914
 90 30 l 1x400040
 60 30 l 1x080040
 60 40 l 1x040040
 50 40 l 1x080240
 50 60 l 1x040080
 60 60 l 1x040020
 60 80 l 1
 70 80 l 1x050110
 70 90 l 1
 80 90 l 1x008110
 80 60 l 1x048020
 70 60 l 1x048080
 70 40 l 1
 80 40 l 1x080088
 80 50 l 1x100088
 90 50 l 1
 90 90 l 1
 80 90 l 1x108014
 80 100 l 1x004008
 60 100 l 1x004040
 60 110 l 1x002040
 40 110 l 1x0021
 40 100 l 1
 20 100 l 1x0049
 20 80 l 1
 10 80 l 1
 10 40 l 1x0554
20 70 m 1x0604
 30 70 l 1x0602
 30 80 l 1x0102
 40 80 l 1x0101
 40 90 l 1x0201
 60 90 l 1
 60 80 l 1x0101
 50 80 l 1x0102
 50 70 l 1x0202
 40 70 l 1
 40 40 l 1x0a04
 50 40 l 1
 50 30 l 1
 30 30 l 1x0a02
 30 40 l 1x0402
 20 40 l 1
 20 70 l 1x0604
EndSplineSet
Validated: 5
AlternateSubs2: "'ssty' Math Script Style lookup 4 subtable" at.ssty at.ssty2
AlternateSubs2: "'aalt' Access All Alternates lookup 1 subtable" at.ssty at.ssty2
EndChar

StartChar: A
Encoding: 35 65 36
Width: 110
GlyphClass: 2
Flags: W
HStem: 0 10<0 10 20 30 60 70 90 100> 40 10<30 60> 100 20<40 50>
VStem: 10 10<10 40> 20 10<50 70> 30 10<70 100> 50 20<70 100> 60 20<50 70> 70 20<10 40>
LayerCount: 2
Fore
SplineSet
40 70 m 1xe6
 30 70 l 1
 30 50 l 1
 60 50 l 1
 60 70 l 1xe9
 50 70 l 1
 50 100 l 1
 40 100 l 1
 40 70 l 1xe6
30 0 m 1xf480
 0 0 l 1
 0 10 l 1
 10 10 l 1
 10 40 l 1
 20 40 l 1xf480
 20 70 l 1
 30 70 l 1xe8
 30 100 l 1
 40 100 l 1
 40 120 l 1
 60 120 l 1
 60 100 l 1xe5
 70 100 l 1
 70 70 l 1xe2
 80 70 l 1
 80 40 l 1xe1
 90 40 l 1
 90 10 l 1xe080
 100 10 l 1
 100 0 l 1
 60 0 l 1
 60 10 l 1xe1
 70 10 l 1
 70 40 l 1
 20 40 l 1
 20 10 l 1
 30 10 l 1
 30 0 l 1xf480
EndSplineSet
Validated: 5
AlternateSubs2: "'ssty' Math Script Style lookup 4 subtable" A.ssty A.ssty2
AlternateSubs2: "'aalt' Access All Alternates lookup 1 subtable" A.ssty A.ssty2
EndChar

StartChar: B
Encoding: 36 66 37
Width: 110
GlyphClass: 2
Flags: W
HStem: 0 20<70 80> 0 10<0 10 30 70> 60 10<30 70> 80 20<90 100> 100 20<70 80> 110 10<0 10 30 70>
VStem: 10 20<10 60 70 110> 70 20<10 20 50 60 70 80 100 110> 80 20<20 50 80 100>
LayerCount: 2
Fore
SplineSet
80 0 m 1xa280
 0 0 l 1
 0 10 l 1
 10 10 l 1
 10 110 l 1
 0 110 l 1
 0 120 l 1x6680
 80 120 l 1x2a80
 80 110 l 1x2680
 90 110 l 1
 90 100 l 1x37
 100 100 l 1
 100 80 l 1x3680
 90 80 l 1
 90 70 l 1x37
 80 70 l 1
 80 60 l 1x3680
 90 60 l 1
 90 50 l 1x37
 100 50 l 1
 100 20 l 1xb680
 90 20 l 1xb7
 90 10 l 1x63
 80 10 l 1x6280
 80 0 l 1xa280
70 50 m 1xa3
 70 60 l 1
 30 60 l 1
 30 10 l 1
 70 10 l 1x63
 70 20 l 1xa3
 80 20 l 1
 80 50 l 1xa280
 70 50 l 1xa3
30 110 m 1x27
 30 70 l 1
 70 70 l 1
 70 80 l 1x37
 80 80 l 1x3680
 80 100 l 1x2a80
 70 100 l 1x2b
 70 110 l 1
 30 110 l 1x27
EndSplineSet
Validated: 1
AlternateSubs2: "'ssty' Math Script Style lookup 4 subtable" B.ssty B.ssty2
AlternateSubs2: "'aalt' Access All Alternates lookup 1 subtable" B.ssty B.ssty2
EndChar

StartChar: C
Encoding: 37 67 38
Width: 110
GlyphClass: 2
Flags: W
HStem: 0 10<40 80> 10 10<80 90> 20 20<90 100> 90 20<80 90> 100 20<30 40 70 80> 110 10<40 70>
VStem: 0 20<40 80> 10 20<20 40 80 100> 20 20<10 20 100 110> 80 10<10 20> 90 10<20 40 80 90 110 120>
LayerCount: 2
Fore
SplineSet
10 20 m 1x21
 10 40 l 1x21
 0 40 l 1
 0 80 l 1x22
 10 80 l 1
 10 100 l 1x29
 20 100 l 1x2880
 20 110 l 1x0480
 30 110 l 1x05
 30 120 l 1
 80 120 l 1x0940
 80 110 l 1x1140
 90 110 l 1x1020
 90 120 l 1
 100 120 l 1x0420
 100 80 l 1
 90 80 l 1
 90 90 l 1x1020
 80 90 l 1x1040
 80 100 l 1
 70 100 l 1x0840
 70 110 l 1
 40 110 l 1x04c0
 40 100 l 1x08c0
 30 100 l 1
 30 80 l 1x09
 20 80 l 1
 20 40 l 1x2a
 30 40 l 1
 30 20 l 1x29
 40 20 l 1
 40 10 l 1
 80 10 l 1xa8c0
 80 20 l 1
 90 20 l 1x40c0
 90 40 l 1
 100 40 l 1
 100 20 l 1x2020
 90 20 l 1
 90 10 l 1x4040
 80 10 l 1
 80 0 l 1
 30 0 l 1x8140
 30 10 l 1x4140
 20 10 l 1x4080
 20 20 l 1x2080
 10 20 l 1x21
EndSplineSet
Validated: 5
AlternateSubs2: "'ssty' Math Script Style lookup 4 subtable" C.ssty C.ssty2
AlternateSubs2: "'aalt' Access All Alternates lookup 1 subtable" C.ssty C.ssty2
EndChar

StartChar: D
Encoding: 38 68 39
Width: 110
GlyphClass: 2
Flags: W
HStem: 0 20<60 70> 0 10<0 10 30 60> 100 20<60 70> 110 10<0 10 30 60>
VStem: 10 20<10 110> 60 20<10 20 100 110> 70 20<20 40 80 100> 80 20<40 80>
LayerCount: 2
Fore
SplineSet
0 110 m 1x5a
 0 120 l 1x5a
 70 120 l 1x2a
 70 110 l 1x1a
 80 110 l 1x1c
 80 100 l 1x2c
 90 100 l 1
 90 80 l 1x2a
 100 80 l 1
 100 40 l 1x29
 90 40 l 1
 90 20 l 1xaa
 80 20 l 1xac
 80 10 l 1x4c
 70 10 l 1x4a
 70 0 l 1x8a
 0 0 l 1
 0 10 l 1
 10 10 l 1
 10 110 l 1
 0 110 l 1x5a
30 110 m 1
 30 10 l 1
 60 10 l 1x5c
 60 20 l 1x8c
 70 20 l 1
 70 40 l 1x8a
 80 40 l 1
 80 80 l 1x89
 70 80 l 1
 70 100 l 1xaa
 60 100 l 1xac
 60 110 l 1x1c
 30 110 l 1
EndSplineSet
Validated: 1
AlternateSubs2: "'ssty' Math Script Style lookup 4 subtable" D.ssty D.ssty2
AlternateSubs2: "'aalt' Access All Alternates lookup 1 subtable" D.ssty D.ssty2
EndChar

StartChar: E
Encoding: 39 69 40
Width: 110
GlyphClass: 2
Flags: W
HStem: 0 20<80 90> 0 10<0 10 30 80> 60 10<30 60> 70 20G<60 70> 90 21G<90 100> 100 20<80 90> 110 10<0 10 30 80>
VStem: 10 20<10 60 70 110> 60 10<40 60 70 90> 80 20<10 20 100 110> 90 10<20 30 90 100>
LayerCount: 2
Fore
SplineSet
10 110 m 1x43a0
 0 110 l 1
 0 120 l 1
 100 120 l 1x43a0
 100 90 l 1
 90 90 l 1x09a0
 90 100 l 1x05a0
 80 100 l 1x05c0
 80 110 l 1
 30 110 l 1
 30 70 l 1
 60 70 l 1x23c0
 60 90 l 1
 70 90 l 1x11c0
 70 40 l 1
 60 40 l 1
 60 60 l 1
 30 60 l 1
 30 10 l 1
 80 10 l 1x61c0
 80 20 l 1x81c0
 90 20 l 1x81a0
 90 30 l 1
 100 30 l 1
 100 0 l 1
 0 0 l 1
 0 10 l 1
 10 10 l 1
 10 110 l 1x43a0
EndSplineSet
Validated: 1
AlternateSubs2: "'ssty' Math Script Style lookup 4 subtable" E.ssty E.ssty2
AlternateSubs2: "'aalt' Access All Alternates lookup 1 subtable" E.ssty E.ssty2
EndChar

StartChar: F
Encoding: 40 70 41
Width: 110
GlyphClass: 2
Flags: W
HStem: 0 10<0 10 30 50> 60 10<30 60> 70 20G<60 70> 90 21G<90 100> 100 20<80 90> 110 10<0 10 30 80>
VStem: 10 20<10 60 70 110> 60 10<40 60 70 90> 80 20<100 110> 90 10<90 100>
LayerCount: 2
Fore
SplineSet
0 120 m 1xc780
 100 120 l 1xc740
 100 90 l 1
 90 90 l 1x9340
 90 100 l 1x8b40
 80 100 l 1x8b80
 80 110 l 1
 30 110 l 1
 30 70 l 1
 60 70 l 1xc780
 60 90 l 1
 70 90 l 1xa380
 70 40 l 1
 60 40 l 1
 60 60 l 1
 30 60 l 1
 30 10 l 1
 50 10 l 1
 50 0 l 1
 0 0 l 1
 0 10 l 1
 10 10 l 1
 10 110 l 1
 0 110 l 1
 0 120 l 1xc780
EndSplineSet
Validated: 1
AlternateSubs2: "'ssty' Math Script Style lookup 4 subtable" F.ssty F.ssty2
AlternateSubs2: "'aalt' Access All Alternates lookup 1 subtable" F.ssty F.ssty2
EndChar

StartChar: G
Encoding: 41 71 42
Width: 110
GlyphClass: 2
Flags: W
HStem: 0 10<40 70> 10 10<70 80> 50 10<60 80> 90 20<80 90> 100 20<30 40 70 80> 110 10<40 70>
VStem: 0 20<40 80> 10 20<20 40 80 100> 20 20<10 20 100 110> 70 10<10 20> 80 20<20 50 90 100> 90 10<0 20 80 90 110 120>
LayerCount: 2
Fore
SplineSet
0 40 m 1x62
 0 80 l 1x62
 10 80 l 1
 10 100 l 1x69
 20 100 l 1x6880
 20 110 l 1x2480
 30 110 l 1x25
 30 120 l 1
 80 120 l 1x2920
 80 110 l 1x3120
 90 110 l 1x3010
 90 120 l 1
 100 120 l 1x2410
 100 80 l 1
 90 80 l 1
 90 90 l 1x3010
 80 90 l 1x3020
 80 100 l 1x2820
 70 100 l 1x2840
 70 110 l 1
 40 110 l 1x24c0
 40 100 l 1x28c0
 30 100 l 1
 30 80 l 1x29
 20 80 l 1
 20 40 l 1x2a
 30 40 l 1
 30 20 l 1x69
 40 20 l 1x6880
 40 10 l 1
 70 10 l 1xa0c0
 70 20 l 1
 80 20 l 1x60c0
 80 50 l 1x6020
 60 50 l 1
 60 60 l 1
 100 60 l 1
 100 0 l 1
 90 0 l 1xa010
 90 20 l 1
 80 20 l 1
 80 10 l 1x6050
 70 10 l 1
 70 0 l 1
 30 0 l 1xa150
 30 10 l 1x6150
 20 10 l 1
 20 20 l 1x6080
 10 20 l 1
 10 40 l 1x61
 0 40 l 1x62
EndSplineSet
Validated: 5
AlternateSubs2: "'ssty' Math Script Style lookup 4 subtable" G.ssty G.ssty2
AlternateSubs2: "'aalt' Access All Alternates lookup 1 subtable" G.ssty G.ssty2
EndChar

StartChar: H
Encoding: 42 72 43
Width: 110
GlyphClass: 2
Flags: W
HStem: 0 10<0 10 30 40 60 70 90 100> 60 10<30 70> 110 10<0 10 30 40 60 70 90 100>
VStem: 10 20<10 60 70 110> 70 20<10 60 70.8 110>
LayerCount: 2
Fore
SplineSet
10 110 m 1
 0 110 l 1
 0 120 l 1
 40 120 l 1
 40 110 l 1
 30 110 l 1
 30 70 l 1
 71 70 l 1
 70 110 l 1
 60 110 l 1
 60 120 l 1
 100 120 l 1
 100 110 l 1
 90 110 l 1
 90 10 l 1
 100 10 l 1
 100 0 l 1
 60 0 l 1
 60 10 l 1
 70 10 l 1
 70 60 l 1
 30 60 l 1
 30 10 l 1
 40 10 l 1
 40 0 l 1
 0 0 l 1
 0 10 l 1
 10 10 l 1
 10 110 l 1
EndSplineSet
Validated: 1
AlternateSubs2: "'ssty' Math Script Style lookup 4 subtable" H.ssty H.ssty2
AlternateSubs2: "'aalt' Access All Alternates lookup 1 subtable" H.ssty H.ssty2
EndChar

StartChar: I
Encoding: 43 73 44
Width: 110
GlyphClass: 2
Flags: W
HStem: 0 10<30 40 60 70> 110 10<30 40 60 70>
VStem: 40 20<10 110>
LayerCount: 2
Fore
SplineSet
40 110 m 1
 30 110 l 1
 30 120 l 1
 70 120 l 1
 70 110 l 1
 60 110 l 1
 60 10 l 1
 70 10 l 1
 70 0 l 1
 30 0 l 1
 30 10 l 1
 40 10 l 1
 40 110 l 1
EndSplineSet
Validated: 1
AlternateSubs2: "'ssty' Math Script Style lookup 4 subtable" I.ssty I.ssty2
AlternateSubs2: "'aalt' Access All Alternates lookup 1 subtable" I.ssty I.ssty2
EndChar

StartChar: J
Encoding: 44 74 45
Width: 110
GlyphClass: 2
Flags: W
HStem: 0 20<30 40 50 60> 0 10<40 50> 110 10<40 60 80 100>
VStem: 10 20<20 50> 20 20<10 20> 50 20<10 20> 60 20<20 110>
LayerCount: 2
Fore
SplineSet
10 50 m 1xb0
 30 50 l 1
 30 20 l 1xb0
 40 20 l 1xa8
 40 10 l 1
 50 10 l 1x6c
 50 20 l 1xac
 60 20 l 1
 60 110 l 1
 40 110 l 1
 40 120 l 1
 100 120 l 1
 100 110 l 1
 80 110 l 1
 80 20 l 1xaa
 70 20 l 1xa4
 70 10 l 1x64
 60 10 l 1x62
 60 0 l 1
 30 0 l 1xb2
 30 10 l 1x72
 20 10 l 1x68
 20 20 l 1xa8
 10 20 l 1
 10 50 l 1xb0
EndSplineSet
Validated: 1
AlternateSubs2: "'ssty' Math Script Style lookup 4 subtable" J.ssty J.ssty2
AlternateSubs2: "'aalt' Access All Alternates lookup 1 subtable" J.ssty J.ssty2
EndChar

StartChar: K
Encoding: 45 75 46
Width: 110
GlyphClass: 2
Flags: W
HStem: 0 10<0 10 30 40 60 70 90 100> 50 20<40 50> 50 10<30 40> 80 10<60 70> 90 10<70 80> 100 20<80 90> 110 10<0 10 30 40 70 80 90 100>
VStem: 10 20<10 50 60 110> 40 20<60 70> 50 10<70 80> 60 10<80 90> 70 10<90 100> 80 10<100 110>
LayerCount: 2
Fore
SplineSet
10 110 m 1xa380
 0 110 l 1
 0 120 l 1
 40 120 l 1
 40 110 l 1
 30 110 l 1
 30 60 l 1
 40 60 l 1xa380
 40 70 l 1xc180
 50 70 l 1
 50 80 l 1
 60 80 l 1xd140
 60 90 l 1
 70 90 l 1xd120
 70 100 l 1
 80 100 l 1x8910
 80 110 l 1x8b08
 70 110 l 1
 70 120 l 1x8b10
 100 120 l 1
 100 110 l 1
 90 110 l 1x8b08
 90 100 l 1x8508
 80 100 l 1
 80 90 l 1x8910
 70 90 l 1
 70 80 l 1x9120
 60 80 l 1x9140
 60 60 l 1
 70 60 l 1
 70 40 l 1xb190
 80 40 l 1
 80 30 l 1
 90 30 l 1
 90 10 l 1
 100 10 l 1
 100 0 l 1
 60 0 l 1
 60 10 l 1xb128
 70 10 l 1
 70 20 l 1xb110
 60 20 l 1
 60 40 l 1xb120
 50 40 l 1
 50 50 l 1xc140
 30 50 l 1
 30 10 l 1
 40 10 l 1
 40 0 l 1
 0 0 l 1
 0 10 l 1
 10 10 l 1
 10 110 l 1xa380
EndSplineSet
Validated: 5
AlternateSubs2: "'ssty' Math Script Style lookup 4 subtable" K.ssty K.ssty2
AlternateSubs2: "'aalt' Access All Alternates lookup 1 subtable" K.ssty K.ssty2
EndChar

StartChar: L
Encoding: 46 76 47
Width: 110
GlyphClass: 2
Flags: W
HStem: 0 20<80 90> 0 10<0 10 30 80> 110 10<0 10 30 40>
VStem: 10 20<10 110> 80 20<10 20> 90 10<20 40>
LayerCount: 2
Fore
SplineSet
0 110 m 1x74
 0 120 l 1
 40 120 l 1
 40 110 l 1
 30 110 l 1
 30 10 l 1
 80 10 l 1x78
 80 20 l 1xb8
 90 20 l 1xb4
 90 40 l 1
 100 40 l 1
 100 0 l 1
 0 0 l 1
 0 10 l 1
 10 10 l 1
 10 110 l 1
 0 110 l 1x74
EndSplineSet
Validated: 1
AlternateSubs2: "'ssty' Math Script Style lookup 4 subtable" L.ssty L.ssty2
AlternateSubs2: "'aalt' Access All Alternates lookup 1 subtable" L.ssty L.ssty2
EndChar

StartChar: M
Encoding: 47 77 48
Width: 110
GlyphClass: 2
Flags: W
HStem: 0 10<0 10 20 30 60 70 90 100> 110 10<0 10 90 100>
VStem: 0 20<110 120> 10 30<50 80> 10 20<80 110> 10 10<10 50> 30 30<20 50> 50 10<50 70> 60 30<70 110> 70 20<10 70>
LayerCount: 2
Fore
SplineSet
10 110 m 1xc8
 0 110 l 1
 0 120 l 1
 20 120 l 1
 20 110 l 1xe0
 30 110 l 1
 30 80 l 1xc8
 40 80 l 1
 40 50 l 1
 50 50 l 1
 50 70 l 1
 60 70 l 1xd1
 60 110 l 1xc080
 70 110 l 1
 70 120 l 1xc040
 100 120 l 1
 100 110 l 1
 90 110 l 1xc080
 90 10 l 1xc040
 100 10 l 1
 100 0 l 1
 60 0 l 1
 60 10 l 1xc080
 70 10 l 1
 70 70 l 1
 60 70 l 1xc140
 60 20 l 1xc2
 50 20 l 1
 50 0 l 1
 40 0 l 1
 40 20 l 1xd1
 30 20 l 1
 30 50 l 1
 20 50 l 1
 20 10 l 1xc6
 30 10 l 1
 30 0 l 1
 0 0 l 1
 0 10 l 1xe2
 10 10 l 1xc4
 10 110 l 1xc8
EndSplineSet
Validated: 5
AlternateSubs2: "'ssty' Math Script Style lookup 4 subtable" M.ssty M.ssty2
AlternateSubs2: "'aalt' Access All Alternates lookup 1 subtable" M.ssty M.ssty2
EndChar

StartChar: N
Encoding: 48 78 49
Width: 110
GlyphClass: 2
Flags: W
HStem: 0 10<0 10 20 30> 110 10<0 10 70 80 90 100>
VStem: 0 20<110 120> 10 30<80 100> 10 20<100 110> 10 10<10 80> 30 20<70 80> 40 20<50 70> 50 20<40 50> 60 30<20 40> 70 20<10 20> 80 10<0 10 40 110>
LayerCount: 2
Fore
SplineSet
10 110 m 1xc8
 0 110 l 1
 0 120 l 1
 20 120 l 1
 20 110 l 1xe0
 30 110 l 1
 30 100 l 1xc8
 40 100 l 1
 40 80 l 1xd0
 50 80 l 1
 50 70 l 1xc2
 60 70 l 1
 60 50 l 1xc1
 70 50 l 1
 70 40 l 1
 80 40 l 1
 80 110 l 1xc090
 70 110 l 1
 70 120 l 1xc020
 100 120 l 1
 100 110 l 1
 90 110 l 1
 90 0 l 1
 80 0 l 1
 80 10 l 1xc010
 70 10 l 1
 70 20 l 1xc020
 60 20 l 1
 60 40 l 1xc040
 50 40 l 1
 50 50 l 1xc080
 40 50 l 1
 40 70 l 1xc1
 30 70 l 1
 30 80 l 1
 20 80 l 1
 20 10 l 1xc6
 30 10 l 1
 30 0 l 1
 0 0 l 1
 0 10 l 1xe2
 10 10 l 1xc4
 10 110 l 1xc8
EndSplineSet
Validated: 1
AlternateSubs2: "'ssty' Math Script Style lookup 4 subtable" N.ssty N.ssty2
AlternateSubs2: "'aalt' Access All Alternates lookup 1 subtable" N.ssty N.ssty2
EndChar

StartChar: O
Encoding: 49 79 50
Width: 110
GlyphClass: 2
Flags: W
HStem: 0 30<20 30 70 80> 0 10<30 70> 90 30<20 30 70 80> 110 10<30 70>
VStem: 0 20<30 90> 10 20<10 30 90 110> 70 20<10 30 90 110> 80 20<30 90>
LayerCount: 2
Fore
SplineSet
30 90 m 1x26
 20 90 l 1
 20 30 l 1xa8
 30 30 l 1xa4
 30 10 l 1
 70 10 l 1x46
 70 30 l 1x86
 80 30 l 1
 80 90 l 1xa1
 70 90 l 1xa2
 70 110 l 1
 30 110 l 1x16
 30 90 l 1x26
0 30 m 1
 0 90 l 1xa8
 10 90 l 1xa4
 10 110 l 1x14
 20 110 l 1x18
 20 120 l 1
 80 120 l 1x29
 80 110 l 1x19
 90 110 l 1x12
 90 90 l 1x22
 100 90 l 1
 100 30 l 1xa1
 90 30 l 1xa2
 90 10 l 1x42
 80 10 l 1x41
 80 0 l 1
 20 0 l 1x89
 20 10 l 1x49
 10 10 l 1x44
 10 30 l 1x84
 0 30 l 1
EndSplineSet
Validated: 1
AlternateSubs2: "'ssty' Math Script Style lookup 4 subtable" O.ssty O.ssty2
AlternateSubs2: "'aalt' Access All Alternates lookup 1 subtable" O.ssty O.ssty2
EndChar

StartChar: P
Encoding: 50 80 51
Width: 110
GlyphClass: 2
Flags: W
HStem: 0 10<0 10 30 40> 50 20<70 80> 50 10<30 70> 100 20<70 80> 110 10<0 10 30 70>
VStem: 10 20<10 50 60 110> 70 20<60 70 100 110> 80 20<70 100>
LayerCount: 2
Fore
SplineSet
10 110 m 1xad
 0 110 l 1
 0 120 l 1xad
 80 120 l 1x95
 80 110 l 1x8d
 90 110 l 1x8e
 90 100 l 1x96
 100 100 l 1
 100 70 l 1xd5
 90 70 l 1xd6
 90 60 l 1xa6
 80 60 l 1xa5
 80 50 l 1xc5
 30 50 l 1
 30 10 l 1
 40 10 l 1
 40 0 l 1
 0 0 l 1
 0 10 l 1
 10 10 l 1
 10 110 l 1xad
70 110 m 1x8e
 30 110 l 1
 30 60 l 1
 70 60 l 1xae
 70 70 l 1xc6
 80 70 l 1
 80 100 l 1xd5
 70 100 l 1xd6
 70 110 l 1x8e
EndSplineSet
Validated: 1
AlternateSubs2: "'ssty' Math Script Style lookup 4 subtable" P.ssty P.ssty2
AlternateSubs2: "'aalt' Access All Alternates lookup 1 subtable" P.ssty P.ssty2
EndChar

StartChar: Q
Encoding: 51 81 52
Width: 110
GlyphClass: 2
Flags: W
HStem: -10 10<80 90> 0 10<30 60> 20 10<30 40> 30 10<40 60> 90 30<20 30 70 80> 110 10<30 70>
VStem: 0 20<30 90> 10 20<10 20 90 110> 40 20<30 40> 60 10<20 30> 70 20<90 110> 80 20<30 90> 80 10<20 30>
LayerCount: 2
Fore
SplineSet
0 90 m 1x5a
 10 90 l 1x59
 10 110 l 1x05
 20 110 l 1x06
 20 120 l 1
 80 120 l 1x0a08
 80 110 l 1x0608
 90 110 l 1x0420
 90 90 l 1x0820
 100 90 l 1
 100 30 l 1x1810
 90 30 l 1
 90 10 l 1
 80 10 l 1x5808
 80 0 l 1
 90 0 l 1
 90 -10 l 1
 60 -10 l 1x8048
 60 0 l 1
 20 0 l 1
 20 10 l 1x4248
 10 10 l 1
 10 30 l 1x51
 0 30 l 1
 0 90 l 1x5a
20 90 m 1x0a
 20 30 l 1x1a
 40 30 l 1
 40 20 l 1x2280
 30 20 l 1
 30 10 l 1
 60 10 l 1x6140
 60 30 l 1x5080
 70 30 l 1x5040
 70 20 l 1
 80 20 l 1x2048
 80 90 l 1x2810
 70 90 l 1x2820
 70 110 l 1
 30 110 l 1x0520
 30 90 l 1x0920
 20 90 l 1x0a
40 30 m 1x2080
 40 40 l 1
 60 40 l 1
 60 30 l 1x1080
 40 30 l 1x2080
EndSplineSet
Validated: 5
AlternateSubs2: "'ssty' Math Script Style lookup 4 subtable" Q.ssty Q.ssty2
AlternateSubs2: "'aalt' Access All Alternates lookup 1 subtable" Q.ssty Q.ssty2
EndChar

StartChar: R
Encoding: 52 82 53
Width: 110
GlyphClass: 2
Flags: W
HStem: 0 10<0 10 30 40 80 90> 10 10<90 100> 40 20<50 60> 100 20<60 70> 110 10<0 10 30 60>
VStem: 10 20<10 50 60 110> 50 20<40 50> 60 20<10 40 60 70 100 110> 70 20<0 10 70 100> 90 10<10 20>
LayerCount: 2
Fore
SplineSet
10 110 m 1xae
 0 110 l 1
 0 120 l 1xae
 70 120 l 1x3480
 70 110 l 1x2c80
 80 110 l 1x2d
 80 100 l 1x35
 90 100 l 1
 90 70 l 1x3480
 80 70 l 1
 80 60 l 1x35
 70 60 l 1x3480
 70 40 l 1x36
 80 40 l 1
 80 10 l 1xb5
 90 10 l 1xb480
 90 20 l 1
 100 20 l 1
 100 10 l 1x6440
 90 10 l 1
 90 0 l 1
 70 0 l 1xa480
 70 10 l 1x6480
 60 10 l 1
 60 40 l 1x65
 50 40 l 1
 50 50 l 1
 30 50 l 1
 30 10 l 1
 40 10 l 1
 40 0 l 1
 0 0 l 1
 0 10 l 1
 10 10 l 1
 10 110 l 1xae
30 60 m 1
 60 60 l 1
 60 70 l 1x2d
 70 70 l 1
 70 100 l 1x3480
 60 100 l 1x35
 60 110 l 1x2d
 30 110 l 1
 30 60 l 1
EndSplineSet
Validated: 5
AlternateSubs2: "'ssty' Math Script Style lookup 4 subtable" R.ssty R.ssty2
AlternateSubs2: "'aalt' Access All Alternates lookup 1 subtable" R.ssty R.ssty2
EndChar

StartChar: S
Encoding: 53 83 54
Width: 110
GlyphClass: 2
Flags: W
HStem: 0 20<30 40 70 80> 0 10<40 70> 10 20<20 30> 40 20<70 80> 50 20<40 70> 60 20<30 40> 90 20<80 90> 100 20<30 40 70 80> 110 10<40 70>
VStem: 10 20<20 30 80 100> 10 10<0 10 30 40> 20 20<100 110> 70 20<10 20> 80 20<20 40 90 100> 90 10<80 90 110 120>
LayerCount: 2
Fore
SplineSet
10 70 m 1x0820
 10 100 l 1x0940
 20 100 l 1x0910
 20 110 l 1x0090
 30 110 l 1x00c0
 30 120 l 1
 80 120 l 1x0144
 80 110 l 1x0244
 90 110 l 1x0202
 90 120 l 1
 100 120 l 1x0082
 100 80 l 1
 90 80 l 1
 90 90 l 1x0602
 80 90 l 1x0604
 80 100 l 1x0104
 70 100 l 1x0108
 70 110 l 1
 40 110 l 1x0098
 40 100 l 1x0118
 30 100 l 1
 30 80 l 1x0540
 40 80 l 1x0510
 40 70 l 1
 70 70 l 1x0818
 70 60 l 1x1018
 90 60 l 1x0402
 90 50 l 1
 100 50 l 1x0802
 100 20 l 1x8804
 90 20 l 1x8808
 90 10 l 1x2008
 80 10 l 1x2004
 80 0 l 1
 30 0 l 1x8044
 30 10 l 1x2044
 20 10 l 1x2020
 20 0 l 1
 10 0 l 1x4020
 10 40 l 1
 20 40 l 1
 20 30 l 1x3020
 30 30 l 1x3040
 30 20 l 1x8040
 40 20 l 1x8010
 40 10 l 1
 70 10 l 1x4018
 70 20 l 1x8018
 80 20 l 1
 80 40 l 1x9004
 70 40 l 1x9008
 70 50 l 1
 40 50 l 1x0818
 40 60 l 1
 20 60 l 1x0418
 20 70 l 1x0818
 10 70 l 1x0820
EndSplineSet
Validated: 1
AlternateSubs2: "'ssty' Math Script Style lookup 4 subtable" S.ssty S.ssty2
AlternateSubs2: "'aalt' Access All Alternates lookup 1 subtable" S.ssty S.ssty2
EndChar

StartChar: T
Encoding: 54 84 55
Width: 110
GlyphClass: 2
Flags: W
HStem: 0 10<30 40 60 70> 90 30<0 10 90 100> 100 20<10 20 80 90> 110 10<20 40 60 80>
VStem: 0 20<100 110> 0 10<90 100> 40 20<10 110> 80 20<100 110> 90 10<90 100>
LayerCount: 2
Fore
SplineSet
10 90 m 1xc6
 0 90 l 1
 0 120 l 1
 100 120 l 1
 100 90 l 1
 90 90 l 1xc680
 90 100 l 1xa680
 80 100 l 1xa3
 80 110 l 1
 60 110 l 1
 60 10 l 1
 70 10 l 1
 70 0 l 1
 30 0 l 1
 30 10 l 1
 40 10 l 1
 40 110 l 1
 20 110 l 1x9b
 20 100 l 1xab
 10 100 l 1xa6
 10 90 l 1xc6
EndSplineSet
Validated: 1
AlternateSubs2: "'ssty' Math Script Style lookup 4 subtable" T.ssty T.ssty2
AlternateSubs2: "'aalt' Access All Alternates lookup 1 subtable" T.ssty T.ssty2
EndChar

StartChar: U
Encoding: 55 85 56
Width: 110
GlyphClass: 2
Flags: W
HStem: 0 10<40 70> 10 10<70 80> 110 10<0 10 30 40 70 80 90 100>
VStem: 10 20<20 110> 20 20<10 20> 70 10<10 20> 80 10<20 110>
LayerCount: 2
Fore
SplineSet
10 20 m 1x70
 10 110 l 1x70
 0 110 l 1
 0 120 l 1
 40 120 l 1
 40 110 l 1x68
 30 110 l 1
 30 20 l 1x70
 40 20 l 1x68
 40 10 l 1
 70 10 l 1xac
 70 20 l 1
 80 20 l 1x6c
 80 110 l 1x62
 70 110 l 1
 70 120 l 1x64
 100 120 l 1
 100 110 l 1
 90 110 l 1
 90 20 l 1x62
 80 20 l 1
 80 10 l 1x64
 70 10 l 1
 70 0 l 1
 30 0 l 1xb4
 30 10 l 1x74
 20 10 l 1
 20 20 l 1x68
 10 20 l 1x70
EndSplineSet
Validated: 5
AlternateSubs2: "'ssty' Math Script Style lookup 4 subtable" U.ssty U.ssty2
AlternateSubs2: "'aalt' Access All Alternates lookup 1 subtable" U.ssty U.ssty2
EndChar

StartChar: V
Encoding: 56 86 57
Width: 110
GlyphClass: 2
Flags: W
HStem: 0 21G<50 60> 110 10<10 20 40 50 70 80 90 100>
VStem: 20 20<80 110> 30 20<50 80> 40 30<20 50> 70 10<50 80> 80 10<80 110>
LayerCount: 2
Fore
SplineSet
20 80 m 1xe0
 20 110 l 1xe0
 10 110 l 1
 10 120 l 1
 50 120 l 1
 50 110 l 1xd0
 40 110 l 1
 40 80 l 1xe0
 50 80 l 1
 50 50 l 1xd0
 70 50 l 1xc8
 70 80 l 1
 80 80 l 1xc4
 80 110 l 1xc2
 70 110 l 1
 70 120 l 1xc4
 100 120 l 1
 100 110 l 1
 90 110 l 1
 90 80 l 1xc2
 80 80 l 1
 80 50 l 1xc4
 70 50 l 1
 70 20 l 1xc8
 60 20 l 1
 60 0 l 1
 50 0 l 1
 50 20 l 1xd0
 40 20 l 1
 40 50 l 1xc8
 30 50 l 1
 30 80 l 1xd0
 20 80 l 1xe0
EndSplineSet
Validated: 5
AlternateSubs2: "'ssty' Math Script Style lookup 4 subtable" V.ssty V.ssty2
AlternateSubs2: "'aalt' Access All Alternates lookup 1 subtable" V.ssty V.ssty2
EndChar

StartChar: W
Encoding: 57 87 58
Width: 110
GlyphClass: 2
Flags: W
HStem: 0 21G<30 40 70 80> 110 10<0 10 30 40 80 90>
VStem: 10 20<70 110> 20 10<50 70> 30 10<0 20> 40 10<50 70> 50 20<80 120> 60 10<50 70> 80 10<50 70> 90 10<80 110>
LayerCount: 2
Fore
SplineSet
0 110 m 1xe0
 0 120 l 1
 40 120 l 1
 40 110 l 1
 30 110 l 1xe4
 30 50 l 1
 40 50 l 1
 40 80 l 1xd4
 50 80 l 1
 50 120 l 1
 70 120 l 1xc2
 70 50 l 1
 80 50 l 1
 80 80 l 1xc180
 90 80 l 1
 90 110 l 1xc040
 80 110 l 1
 80 120 l 1xc080
 100 120 l 1
 100 70 l 1xc040
 90 70 l 1xc080
 90 20 l 1xc040
 80 20 l 1
 80 0 l 1
 70 0 l 1
 70 20 l 1
 60 20 l 1
 60 70 l 1
 50 70 l 1xc580
 50 20 l 1
 40 20 l 1
 40 0 l 1
 30 0 l 1
 30 20 l 1xca
 20 20 l 1
 20 70 l 1xd0
 10 70 l 1
 10 110 l 1
 0 110 l 1xe0
EndSplineSet
Validated: 1
AlternateSubs2: "'ssty' Math Script Style lookup 4 subtable" W.ssty W.ssty2
AlternateSubs2: "'aalt' Access All Alternates lookup 1 subtable" W.ssty W.ssty2
EndChar

StartChar: X
Encoding: 58 88 59
Width: 110
GlyphClass: 2
Flags: W
HStem: 0 20<10 20 80 90> 0 10<0 10 20 30 60 70 90 100> 20 10<20 30> 30 20<30 40> 70 20<60 70> 90 10<70 80> 100 20<10 20 80 90> 110 10<0 10 30 40 70 80 90 100>
VStem: 10 10<10 20> 20 10<20 30> 30 20<70 80> 30 10<30 50> 50 20<40 50> 60 10<70 90> 70 10<90 100> 80 10<100 110>
LayerCount: 2
Fore
SplineSet
0 10 m 1x4090
 10 10 l 1x4090
 10 20 l 1
 20 20 l 1x8090
 20 30 l 1
 30 30 l 1x2040
 30 50 l 1
 40 50 l 1
 40 70 l 1x1810
 30 70 l 1
 30 80 l 1x1820
 20 80 l 1
 20 100 l 1x1a40
 10 100 l 1x1a80
 10 110 l 1
 0 110 l 1
 0 120 l 1
 40 120 l 1
 40 110 l 1
 30 110 l 1x0190
 30 100 l 1
 40 100 l 1x0290
 40 90 l 1
 50 90 l 1x0498
 50 70 l 1
 60 70 l 1
 60 90 l 1
 70 90 l 1x0824
 70 100 l 1
 80 100 l 1x0402
 80 110 l 1x0501
 70 110 l 1
 70 120 l 1x0502
 100 120 l 1
 100 110 l 1
 90 110 l 1x0501
 90 100 l 1x0201
 80 100 l 1
 80 90 l 1x0402
 70 90 l 1
 70 70 l 1
 60 70 l 1
 60 50 l 1x1804
 70 50 l 1
 70 40 l 1
 80 40 l 1
 80 20 l 1
 90 20 l 1x9809
 90 10 l 1
 100 10 l 1
 100 0 l 1
 60 0 l 1
 60 10 l 1x4005
 70 10 l 1
 70 20 l 1x6002
 60 20 l 1x6004
 60 30 l 1x1004
 50 30 l 1
 50 50 l 1
 40 50 l 1
 40 30 l 1x1018
 30 30 l 1
 30 20 l 1x2040
 20 20 l 1x8080
 20 10 l 1
 30 10 l 1
 30 0 l 1
 0 0 l 1
 0 10 l 1x4090
EndSplineSet
Validated: 5
AlternateSubs2: "'ssty' Math Script Style lookup 4 subtable" X.ssty X.ssty2
AlternateSubs2: "'aalt' Access All Alternates lookup 1 subtable" X.ssty X.ssty2
EndChar

StartChar: Y
Encoding: 59 89 60
Width: 110
GlyphClass: 2
Flags: W
HStem: 0 10<30 40 60 70> 50 20<60 70> 70 20<70 80> 90 30<10 20 80 90> 110 10<0 10 30 40 70 80 90 100>
VStem: 10 20<90 110> 20 20<70 90> 30 20<60 70> 40 20<10 50> 60 10<60 70> 70 10<70 90> 80 10<90 110>
LayerCount: 2
Fore
SplineSet
10 90 m 1x94
 10 110 l 1
 0 110 l 1
 0 120 l 1
 40 120 l 1
 40 110 l 1
 30 110 l 1x8c80
 30 90 l 1x9480
 40 90 l 1x92
 40 70 l 1xa2
 50 70 l 1xa1
 50 60 l 1
 60 60 l 1
 60 70 l 1
 70 70 l 1xc140
 70 90 l 1
 80 90 l 1xa020
 80 110 l 1xa810
 70 110 l 1
 70 120 l 1xa820
 100 120 l 1
 100 110 l 1
 90 110 l 1xa810
 90 90 l 1x9010
 80 90 l 1
 80 70 l 1xa020
 70 70 l 1xc040
 70 50 l 1
 60 50 l 1
 60 10 l 1xc0a0
 70 10 l 1
 70 0 l 1
 30 0 l 1
 30 10 l 1xc120
 40 10 l 1
 40 50 l 1xc080
 30 50 l 1xc1
 30 70 l 1xa1
 20 70 l 1xa2
 20 90 l 1x92
 10 90 l 1x94
EndSplineSet
Validated: 5
AlternateSubs2: "'ssty' Math Script Style lookup 4 subtable" Y.ssty Y.ssty2
AlternateSubs2: "'aalt' Access All Alternates lookup 1 subtable" Y.ssty Y.ssty2
EndChar

StartChar: Z
Encoding: 60 90 61
Width: 110
GlyphClass: 2
Flags: W
HStem: 0 20<10 20 80 90> 0 10<0 10 30 80> 90 21G<0 10> 100 20<10 20 80 90> 110 10<20 70 90 100>
VStem: 0 20<100 110> 0 10<90 100> 10 20<10 20> 20 20<20 40> 30 20<40 50> 40 20<50 70> 50 20<70 80> 60 20<80 100> 70 20<100 110> 80 20<10 20> 90 10<20 30>
LayerCount: 2
Fore
SplineSet
90 30 m 1x8001
 100 30 l 1
 100 0 l 1
 0 0 l 1
 0 10 l 1x4201
 10 10 l 1x41
 10 20 l 1x81
 20 20 l 1
 20 40 l 1x8080
 30 40 l 1
 30 50 l 1x8040
 40 50 l 1
 40 70 l 1x8020
 50 70 l 1
 50 80 l 1x8010
 60 80 l 1
 60 100 l 1x9008
 70 100 l 1x9004
 70 110 l 1
 20 110 l 1x0c04
 20 100 l 1x1404
 10 100 l 1x12
 10 90 l 1
 0 90 l 1x22
 0 120 l 1
 100 120 l 1
 100 110 l 1x0a01
 90 110 l 1x0804
 90 100 l 1x1004
 80 100 l 1
 80 80 l 1x1008
 70 80 l 1
 70 70 l 1x1010
 60 70 l 1
 60 50 l 1x1020
 50 50 l 1
 50 40 l 1x1040
 40 40 l 1
 40 20 l 1x9080
 30 20 l 1x91
 30 10 l 1
 80 10 l 1x4102
 80 20 l 1x8102
 90 20 l 1
 90 30 l 1x8001
EndSplineSet
Validated: 1
AlternateSubs2: "'ssty' Math Script Style lookup 4 subtable" Z.ssty Z.ssty2
AlternateSubs2: "'aalt' Access All Alternates lookup 1 subtable" Z.ssty Z.ssty2
EndChar

StartChar: bracketleft
Encoding: 61 91 62
Width: 110
GlyphClass: 2
Flags: W
HStem: 0 10<50 80> 110 10<50 80>
VStem: 30 20<10 110>
LayerCount: 2
Fore
SplineSet
30 0 m 1
 30 120 l 1
 80 120 l 1
 80 110 l 1
 50 110 l 1
 50 10 l 1
 80 10 l 1
 80 0 l 1
 30 0 l 1
EndSplineSet
Validated: 1
AlternateSubs2: "'ssty' Math Script Style lookup 4 subtable" bracketleft.ssty bracketleft.ssty2
AlternateSubs2: "'aalt' Access All Alternates lookup 1 subtable" bracketleft.ssty bracketleft.ssty2
EndChar

StartChar: backslash
Encoding: 62 92 63
Width: 110
GlyphClass: 2
Flags: W
HStem: 0 20<70 80> 100 20<20 30>
VStem: 20 20<100 120> 30 20<70 100> 40 20<50 70> 50 20<20 50> 60 20<0 20>
LayerCount: 2
Fore
SplineSet
80 0 m 1xc2
 60 0 l 1
 60 20 l 1xc2
 50 20 l 1
 50 50 l 1xc4
 40 50 l 1
 40 70 l 1xc8
 30 70 l 1
 30 100 l 1xd0
 20 100 l 1
 20 120 l 1
 40 120 l 1
 40 100 l 1xe0
 50 100 l 1
 50 70 l 1xd0
 60 70 l 1
 60 50 l 1xc8
 70 50 l 1
 70 20 l 1xc4
 80 20 l 1
 80 0 l 1xc2
EndSplineSet
Validated: 1
AlternateSubs2: "'ssty' Math Script Style lookup 4 subtable" backslash.ssty backslash.ssty2
AlternateSubs2: "'aalt' Access All Alternates lookup 1 subtable" backslash.ssty backslash.ssty2
EndChar

StartChar: bracketright
Encoding: 63 93 64
Width: 110
GlyphClass: 2
Flags: W
HStem: 0 10<30 60> 110 10<30 60>
VStem: 60 20<10 110>
LayerCount: 2
Fore
SplineSet
30 120 m 1
 80 120 l 1
 80 0 l 1
 30 0 l 1
 30 10 l 1
 60 10 l 1
 60 110 l 1
 30 110 l 1
 30 120 l 1
EndSplineSet
Validated: 1
AlternateSubs2: "'ssty' Math Script Style lookup 4 subtable" bracketright.ssty bracketright.ssty2
AlternateSubs2: "'aalt' Access All Alternates lookup 1 subtable" bracketright.ssty bracketright.ssty2
EndChar

StartChar: asciicircum
Encoding: 64 94 65
Width: 110
GlyphClass: 2
Flags: W
HStem: 80 20<20 30 70 80> 80 10<10 20 80 90> 90 20<30 40 60 70> 100 20<40 60>
VStem: 10 20<80 90> 20 20<90 100> 40 20<110 120> 60 20<90 100> 70 20<80 90>
LayerCount: 2
Fore
SplineSet
10 80 m 1x48
 10 90 l 1x48
 20 90 l 1x44
 20 100 l 1x84
 30 100 l 1x88
 30 110 l 1
 40 110 l 1x2a
 40 120 l 1
 60 120 l 1x1a
 60 110 l 1
 70 110 l 1x2a80
 70 100 l 1x8a80
 80 100 l 1x81
 80 90 l 1x41
 90 90 l 1
 90 80 l 1x4080
 70 80 l 1x8080
 70 90 l 1x2080
 60 90 l 1x21
 60 100 l 1
 40 100 l 1x15
 40 90 l 1x25
 30 90 l 1x28
 30 80 l 1x88
 10 80 l 1x48
EndSplineSet
Validated: 1
AlternateSubs2: "'ssty' Math Script Style lookup 4 subtable" asciicircum.ssty asciicircum.ssty2
AlternateSubs2: "'aalt' Access All Alternates lookup 1 subtable" asciicircum.ssty asciicircum.ssty2
EndChar

StartChar: underscore
Encoding: 65 95 66
Width: 110
GlyphClass: 2
Flags: W
HStem: 0 10<0 100>
LayerCount: 2
Fore
SplineSet
0 0 m 1
 0 10 l 1
 100 10 l 1
 100 0 l 1
 0 0 l 1
EndSplineSet
Validated: 1
AlternateSubs2: "'ssty' Math Script Style lookup 4 subtable" underscore.ssty underscore.ssty2
AlternateSubs2: "'aalt' Access All Alternates lookup 1 subtable" underscore.ssty underscore.ssty2
EndChar

StartChar: a
Encoding: 66 97 67
Width: 110
GlyphClass: 2
Flags: W
HStem: 0 20<60 70> 0 10<30 60 90 100> 40 20<30 40> 50 10<40 70> 60 20<10 20> 70 20<20 30> 80 10<30 70>
VStem: 10 20<10 40 70 80> 10 10<60 70> 20 20<40 50> 70 20<20 50 60 80> 80 20<0 10>
LayerCount: 2
Fore
SplineSet
40 40 m 1x2060
 30 40 l 1
 30 10 l 1
 60 10 l 1x61
 60 20 l 1
 70 20 l 1
 70 50 l 1
 40 50 l 1x9060
 40 40 l 1x2060
20 10 m 1x4060
 10 10 l 1
 10 40 l 1x61
 20 40 l 1x6040
 20 50 l 1x1040
 30 50 l 1x11
 30 60 l 1x21
 70 60 l 1
 70 80 l 1
 30 80 l 1x1320
 30 70 l 1x0520
 20 70 l 1x0480
 20 60 l 1
 10 60 l 1x0880
 10 80 l 1x09
 20 80 l 1x0840
 20 90 l 1x0440
 80 90 l 1
 80 80 l 1x0250
 90 80 l 1
 90 10 l 1x4220
 100 10 l 1
 100 0 l 1
 80 0 l 1
 80 10 l 1x4210
 70 10 l 1x4220
 70 0 l 1x8020
 20 0 l 1
 20 10 l 1x4060
EndSplineSet
Validated: 1
AlternateSubs2: "'ssty' Math Script Style lookup 4 subtable" a.ssty a.ssty2
AlternateSubs2: "'aalt' Access All Alternates lookup 1 subtable" a.ssty a.ssty2
EndChar

StartChar: b
Encoding: 67 98 68
Width: 110
GlyphClass: 2
Flags: W
HStem: 0 10<40 60> 10 10<30 40> 70 10<30 40> 80 10<40 60> 110 10<0 10>
VStem: 10 30<10 20 70 80> 10 20<0 10 20 70 80 110> 40 30<0 10 80 90> 60 20<10 20 70 80> 70 20<20 70>
LayerCount: 2
Fore
SplineSet
10 110 m 1x8a
 0 110 l 1
 0 120 l 1
 30 120 l 1
 30 80 l 1xaa
 40 80 l 1xac
 40 90 l 1
 70 90 l 1
 70 80 l 1x19
 80 80 l 1x1880
 80 70 l 1x2880
 90 70 l 1
 90 20 l 1x6840
 80 20 l 1
 80 10 l 1x6880
 70 10 l 1x69
 70 0 l 1
 40 0 l 1x89
 40 10 l 1x8c
 30 10 l 1x4a
 30 0 l 1
 10 0 l 1
 10 110 l 1x8a
40 80 m 1x2c80
 40 70 l 1x2c80
 30 70 l 1
 30 20 l 1x6a
 40 20 l 1x6c
 40 10 l 1
 60 10 l 1x8c80
 60 20 l 1x4c80
 70 20 l 1
 70 70 l 1x6840
 60 70 l 1x6880
 60 80 l 1x1880
 40 80 l 1x2c80
EndSplineSet
Validated: 5
AlternateSubs2: "'ssty' Math Script Style lookup 4 subtable" b.ssty b.ssty2
AlternateSubs2: "'aalt' Access All Alternates lookup 1 subtable" b.ssty b.ssty2
EndChar

StartChar: c
Encoding: 68 99 69
Width: 110
GlyphClass: 2
Flags: W
HStem: 0 10<40 70> 10 10<70 80> 20 10<80 90> 60 20<80 90> 70 20<30 40 60 70> 80 10<40 60>
VStem: 10 20<20 70> 20 20<10 20 70 80> 70 10<10 20> 80 10<20 30>
LayerCount: 2
Fore
SplineSet
20 20 m 1x21
 10 20 l 1
 10 70 l 1x2a
 20 70 l 1x29
 20 80 l 1x05
 30 80 l 1x06
 30 90 l 1x0a
 80 90 l 1x0640
 80 80 l 1
 90 80 l 1
 90 60 l 1x1240
 70 60 l 1x1080
 70 70 l 1
 60 70 l 1x0880
 60 80 l 1
 40 80 l 1x0580
 40 70 l 1x0980
 30 70 l 1
 30 20 l 1x2a
 40 20 l 1
 40 10 l 1
 70 10 l 1xa980
 70 20 l 1
 80 20 l 1x4180
 80 30 l 1
 90 30 l 1
 90 20 l 1x2040
 80 20 l 1
 80 10 l 1x4080
 70 10 l 1
 70 0 l 1
 30 0 l 1x8280
 30 10 l 1x4280
 20 10 l 1x41
 20 20 l 1x21
EndSplineSet
Validated: 5
AlternateSubs2: "'ssty' Math Script Style lookup 4 subtable" c.ssty c.ssty2
AlternateSubs2: "'aalt' Access All Alternates lookup 1 subtable" c.ssty c.ssty2
EndChar

StartChar: d
Encoding: 69 100 70
Width: 110
GlyphClass: 2
Flags: W
HStem: 0 10<40 60 90 100> 10 10<60 70> 70 10<60 70> 80 10<40 60> 110 10<60 70>
VStem: 10 20<20 70> 20 20<10 20 70 80> 30 30<0 10 80 90> 60 30<10 20 70 80 110 120> 70 20<20 70 80 110>
LayerCount: 2
Fore
SplineSet
20 10 m 1x4a
 20 20 l 1x4a
 10 20 l 1
 10 70 l 1x6c
 20 70 l 1x6a
 20 80 l 1x1a
 30 80 l 1
 30 90 l 1
 60 90 l 1x19
 60 80 l 1
 70 80 l 1
 70 110 l 1x2940
 60 110 l 1
 60 120 l 1
 90 120 l 1
 90 10 l 1xa880
 100 10 l 1
 100 0 l 1
 70 0 l 1xa840
 70 10 l 1x4840
 60 10 l 1
 60 0 l 1
 30 0 l 1x8940
 30 10 l 1x4940
 20 10 l 1x4a
40 80 m 1x1a
 40 70 l 1x2a
 30 70 l 1
 30 20 l 1x6c
 40 20 l 1x6a
 40 10 l 1x8a
 60 10 l 1x89
 60 20 l 1x4880
 70 20 l 1
 70 70 l 1x6840
 60 70 l 1x6880
 60 80 l 1x69
 40 80 l 1x1a
EndSplineSet
Validated: 5
AlternateSubs2: "'ssty' Math Script Style lookup 4 subtable" d.ssty d.ssty2
AlternateSubs2: "'aalt' Access All Alternates lookup 1 subtable" d.ssty d.ssty2
EndChar

StartChar: e
Encoding: 70 101 71
Width: 110
GlyphClass: 2
Flags: W
HStem: 0 10<40 70> 10 10<70 80> 20 10<80 90> 40 10<30 70> 70 20<30 40 60 70> 80 10<40 60>
VStem: 10 20<20 40 50 70> 20 20<10 20 70 80> 60 20<70 80> 70 10<10 20> 80 10<20 30>
LayerCount: 2
Fore
SplineSet
40 70 m 1x1980
 30 70 l 1
 30 50 l 1
 70 50 l 1
 70 70 l 1x1a40
 60 70 l 1x1880
 60 80 l 1
 40 80 l 1x1580
 40 70 l 1x1980
20 10 m 1x51
 20 20 l 1x31
 10 20 l 1
 10 70 l 1x3a
 20 70 l 1x39
 20 80 l 1x15
 30 80 l 1x16
 30 90 l 1
 70 90 l 1x1a40
 70 80 l 1x1640
 80 80 l 1x1480
 80 70 l 1x1880
 90 70 l 1
 90 40 l 1
 30 40 l 1
 30 20 l 1x3a20
 40 20 l 1
 40 10 l 1
 70 10 l 1xb940
 70 20 l 1
 80 20 l 1x5140
 80 30 l 1
 90 30 l 1
 90 20 l 1x3020
 80 20 l 1
 80 10 l 1x5040
 70 10 l 1
 70 0 l 1
 30 0 l 1x9240
 30 10 l 1x5240
 20 10 l 1x51
EndSplineSet
Validated: 5
AlternateSubs2: "'ssty' Math Script Style lookup 4 subtable" e.ssty e.ssty2
AlternateSubs2: "'aalt' Access All Alternates lookup 1 subtable" e.ssty e.ssty2
EndChar

StartChar: f
Encoding: 71 102 72
Width: 110
GlyphClass: 2
Flags: W
HStem: 0 10<20 40 60 80> 80 10<20 40 60 80> 100 10<80 90> 110 10<60 70>
VStem: 40 20<10 80 90 110> 70 20<100 110>
LayerCount: 2
Fore
SplineSet
20 10 m 1xdc
 40 10 l 1
 40 80 l 1
 20 80 l 1
 20 90 l 1
 40 90 l 1
 40 110 l 1
 50 110 l 1
 50 120 l 1
 80 120 l 1xdc
 80 110 l 1
 90 110 l 1
 90 100 l 1
 70 100 l 1xec
 70 110 l 1
 60 110 l 1
 60 90 l 1
 80 90 l 1
 80 80 l 1
 60 80 l 1
 60 10 l 1
 80 10 l 1
 80 0 l 1
 20 0 l 1
 20 10 l 1xdc
EndSplineSet
Validated: 1
AlternateSubs2: "'ssty' Math Script Style lookup 4 subtable" f.ssty f.ssty2
AlternateSubs2: "'aalt' Access All Alternates lookup 1 subtable" f.ssty f.ssty2
EndChar

StartChar: g
Encoding: 72 103 73
Width: 110
GlyphClass: 2
Flags: W
HStem: -10 10<20 70> 0 20<0 10 80 90> 20 10<30 70> 40 10<30 60> 50 30<10 20 70 80> 70 20<80 100> 80 10<30 60>
VStem: 0 20<0 20> 10 20<30 40 50 80> 60 20<50 70> 70 20<0 20> 80 20<80 90>
LayerCount: 2
Fore
SplineSet
20 20 m 1xa120
 20 0 l 1
 70 0 l 1
 70 20 l 1
 20 20 l 1xa120
60 80 m 1x12c0
 30 80 l 1
 30 50 l 1
 60 50 l 1
 60 80 l 1x12c0
10 -10 m 1x8090
 10 0 l 1x4090
 0 0 l 1
 0 20 l 1x41
 10 20 l 1
 10 40 l 1x5080
 20 40 l 1x51
 20 50 l 1x09
 10 50 l 1
 10 80 l 1x0880
 20 80 l 1x09
 20 90 l 1
 70 90 l 1x0320
 70 80 l 1x0920
 80 80 l 1x0810
 80 90 l 1
 100 90 l 1
 100 70 l 1x0410
 80 70 l 1x0440
 80 50 l 1x0840
 70 50 l 1x0820
 70 40 l 1x1020
 30 40 l 1
 30 30 l 1
 80 30 l 1x3090
 80 20 l 1x4090
 90 20 l 1
 90 0 l 1x4020
 80 0 l 1x4010
 80 -10 l 1
 10 -10 l 1x8090
EndSplineSet
Validated: 1
AlternateSubs2: "'ssty' Math Script Style lookup 4 subtable" g.ssty g.ssty2
AlternateSubs2: "'aalt' Access All Alternates lookup 1 subtable" g.ssty g.ssty2
EndChar

StartChar: h
Encoding: 73 104 74
Width: 110
GlyphClass: 2
Flags: W
HStem: 0 10<0 10 30 40 60 70 90 100> 70 10<30 40> 80 10<40 60> 110 10<0 10>
VStem: 10 20<10 70 80 110> 60 20<70 80> 70 20<10 70>
LayerCount: 2
Fore
SplineSet
0 0 m 1xdc
 0 10 l 1
 10 10 l 1
 10 110 l 1
 0 110 l 1
 0 120 l 1
 30 120 l 1
 30 80 l 1
 40 80 l 1xdc
 40 90 l 1
 70 90 l 1
 70 80 l 1xba
 80 80 l 1xbc
 80 70 l 1xdc
 90 70 l 1
 90 10 l 1xda
 100 10 l 1
 100 0 l 1
 60 0 l 1
 60 10 l 1xdc
 70 10 l 1
 70 70 l 1xda
 60 70 l 1xdc
 60 80 l 1xbc
 40 80 l 1
 40 70 l 1
 30 70 l 1
 30 10 l 1
 40 10 l 1
 40 0 l 1
 0 0 l 1xdc
EndSplineSet
Validated: 5
AlternateSubs2: "'ssty' Math Script Style lookup 4 subtable" h.ssty h.ssty2
AlternateSubs2: "'aalt' Access All Alternates lookup 1 subtable" h.ssty h.ssty2
EndChar

StartChar: i
Encoding: 74 105 75
Width: 110
GlyphClass: 2
Flags: W
HStem: 0 10<20 40 60 80> 80 10<20 40> 100 20<40 60>
VStem: 40 20<10 80 100 120>
LayerCount: 2
Fore
SplineSet
20 0 m 1
 20 10 l 1
 40 10 l 1
 40 80 l 1
 20 80 l 1
 20 90 l 1
 60 90 l 1
 60 10 l 1
 80 10 l 1
 80 0 l 1
 20 0 l 1
60 120 m 1
 60 100 l 1
 40 100 l 1
 40 120 l 1
 60 120 l 1
EndSplineSet
Validated: 1
AlternateSubs2: "'ssty' Math Script Style lookup 4 subtable" i.ssty i.ssty2
AlternateSubs2: "'aalt' Access All Alternates lookup 1 subtable" i.ssty i.ssty2
EndChar

StartChar: j
Encoding: 75 106 76
Width: 110
GlyphClass: 2
Flags: W
HStem: -10 10<40 60> 0 20<20 30> 80 10<40 60> 100 20<60 80>
VStem: 20 20<0 20> 60 20<0 80 100 120>
LayerCount: 2
Fore
SplineSet
80 120 m 1x3c
 80 100 l 1
 60 100 l 1
 60 120 l 1
 80 120 l 1x3c
80 90 m 1
 80 0 l 1
 70 0 l 1x7c
 70 -10 l 1
 30 -10 l 1xbc
 30 0 l 1
 20 0 l 1
 20 20 l 1
 40 20 l 1x7c
 40 0 l 1
 60 0 l 1xbc
 60 80 l 1
 40 80 l 1
 40 90 l 1
 80 90 l 1
EndSplineSet
Validated: 1
AlternateSubs2: "'ssty' Math Script Style lookup 4 subtable" j.ssty j.ssty2
AlternateSubs2: "'aalt' Access All Alternates lookup 1 subtable" j.ssty j.ssty2
EndChar

StartChar: k
Encoding: 76 107 77
Width: 110
GlyphClass: 2
Flags: W
HStem: 0 20<70 80> 0 10<0 10 30 40 50 60 80 90> 40 20<40 50> 40 10<30 40> 60 10<50 60> 70 20<60 70> 80 10<50 60 70 90> 110 10<0 10>
VStem: 10 20<10 40 50 110> 40 10<50 60> 50 10<60 70> 60 20<10 20> 60 10<70 80>
LayerCount: 2
Fore
SplineSet
0 0 m 1x51c0
 0 10 l 1
 10 10 l 1
 10 110 l 1
 0 110 l 1
 0 120 l 1
 30 120 l 1
 30 50 l 1
 40 50 l 1x51c0
 40 60 l 1
 50 60 l 1x21c0
 50 70 l 1
 60 70 l 1x09a0
 60 80 l 1x0b88
 50 80 l 1
 50 90 l 1x0ba0
 90 90 l 1
 90 80 l 1
 70 80 l 1x0b88
 70 70 l 1x0588
 60 70 l 1
 60 60 l 1x09a0
 50 60 l 1x21c0
 50 50 l 1
 60 50 l 1
 60 40 l 1
 70 40 l 1
 70 20 l 1x91c8
 80 20 l 1x9190
 80 10 l 1x4190
 90 10 l 1
 90 0 l 1
 50 0 l 1
 50 10 l 1x41a0
 60 10 l 1x4190
 60 20 l 1x8190
 50 20 l 1
 50 40 l 1xa1a0
 30 40 l 1
 30 10 l 1
 40 10 l 1
 40 0 l 1
 0 0 l 1x51c0
EndSplineSet
Validated: 5
AlternateSubs2: "'ssty' Math Script Style lookup 4 subtable" k.ssty k.ssty2
AlternateSubs2: "'aalt' Access All Alternates lookup 1 subtable" k.ssty k.ssty2
EndChar

StartChar: l
Encoding: 77 108 78
Width: 110
GlyphClass: 2
Flags: W
HStem: 0 10<20 40 60 80> 110 10<30 40>
VStem: 40 20<10 110>
LayerCount: 2
Fore
SplineSet
30 120 m 1
 60 120 l 1
 60 10 l 1
 80 10 l 1
 80 0 l 1
 20 0 l 1
 20 10 l 1
 40 10 l 1
 40 110 l 1
 30 110 l 1
 30 120 l 1
EndSplineSet
Validated: 1
AlternateSubs2: "'ssty' Math Script Style lookup 4 subtable" l.ssty l.ssty2
AlternateSubs2: "'aalt' Access All Alternates lookup 1 subtable" l.ssty l.ssty2
EndChar

StartChar: m
Encoding: 78 109 79
Width: 110
GlyphClass: 2
Flags: W
HStem: 0 10<0 10 90 100> 80 10<0 10 30 40 60 70>
VStem: 0 20<80 90> 10 20<10 80> 40 20<0 80> 70 20<10 80>
LayerCount: 2
Fore
SplineSet
0 10 m 1xec
 10 10 l 1
 10 80 l 1xdc
 0 80 l 1
 0 90 l 1
 20 90 l 1
 20 80 l 1xec
 30 80 l 1
 30 90 l 1
 50 90 l 1
 50 80 l 1
 60 80 l 1
 60 90 l 1
 80 90 l 1
 80 80 l 1
 90 80 l 1
 90 10 l 1
 100 10 l 1
 100 0 l 1
 70 0 l 1
 70 80 l 1
 60 80 l 1
 60 0 l 1
 40 0 l 1
 40 80 l 1
 30 80 l 1
 30 0 l 1xdc
 0 0 l 1
 0 10 l 1xec
EndSplineSet
Validated: 5
AlternateSubs2: "'ssty' Math Script Style lookup 4 subtable" m.ssty m.ssty2
AlternateSubs2: "'aalt' Access All Alternates lookup 1 subtable" m.ssty m.ssty2
EndChar

StartChar: n
Encoding: 79 110 80
Width: 110
GlyphClass: 2
Flags: W
HStem: 0 10<0 10 30 40 60 70 90 100> 70 10<30 40> 80 10<0 10 40 60>
VStem: 10 20<10 70> 60 20<70 80> 70 20<10 70>
LayerCount: 2
Fore
SplineSet
10 80 m 1xb8
 0 80 l 1
 0 90 l 1
 30 90 l 1xb8
 30 80 l 1
 40 80 l 1xd8
 40 90 l 1
 70 90 l 1
 70 80 l 1xb4
 80 80 l 1xb8
 80 70 l 1xd8
 90 70 l 1
 90 10 l 1xd4
 100 10 l 1
 100 0 l 1
 60 0 l 1
 60 10 l 1xd8
 70 10 l 1
 70 70 l 1xd4
 60 70 l 1xd8
 60 80 l 1xb8
 40 80 l 1
 40 70 l 1
 30 70 l 1xd8
 30 10 l 1
 40 10 l 1
 40 0 l 1
 0 0 l 1
 0 10 l 1
 10 10 l 1
 10 80 l 1xb8
EndSplineSet
Validated: 5
AlternateSubs2: "'ssty' Math Script Style lookup 4 subtable" n.ssty n.ssty2
AlternateSubs2: "'aalt' Access All Alternates lookup 1 subtable" n.ssty n.ssty2
EndChar

StartChar: o
Encoding: 80 111 81
Width: 110
GlyphClass: 2
Flags: W
HStem: 0 20<30 40 60 70> 0 10<40 60> 70 20<30 40 60 70> 80 10<40 60>
VStem: 10 20<20 70> 20 20<10 20 70 80> 60 20<10 20 70 80> 70 20<20 70>
LayerCount: 2
Fore
SplineSet
40 70 m 1x26
 30 70 l 1
 30 20 l 1xa8
 40 20 l 1xa4
 40 10 l 1
 60 10 l 1x46
 60 20 l 1x86
 70 20 l 1
 70 70 l 1xa1
 60 70 l 1xa2
 60 80 l 1
 40 80 l 1x16
 40 70 l 1x26
10 20 m 1
 10 70 l 1xa8
 20 70 l 1xa4
 20 80 l 1x14
 30 80 l 1x18
 30 90 l 1
 70 90 l 1x29
 70 80 l 1x19
 80 80 l 1x12
 80 70 l 1x22
 90 70 l 1
 90 20 l 1xa1
 80 20 l 1xa2
 80 10 l 1x42
 70 10 l 1x41
 70 0 l 1
 30 0 l 1x89
 30 10 l 1x49
 20 10 l 1x44
 20 20 l 1x84
 10 20 l 1
EndSplineSet
Validated: 1
AlternateSubs2: "'ssty' Math Script Style lookup 4 subtable" o.ssty o.ssty2
AlternateSubs2: "'aalt' Access All Alternates lookup 1 subtable" o.ssty o.ssty2
EndChar

StartChar: p
Encoding: 81 112 82
Width: 110
GlyphClass: 2
Flags: W
HStem: -10 10<10 20 40 50> 10 10<50 70> 20 10<40 50> 70 10<40 50> 80 10<10 20 50 70>
VStem: 20 30<20 30 70 80> 20 20<0 20 30 70> 50 30<10 20 80 90> 70 20<20 30 70 80> 80 20<30 70>
LayerCount: 2
Fore
SplineSet
70 80 m 1x8880
 50 80 l 1
 50 70 l 1x9480
 40 70 l 1
 40 30 l 1xb2
 50 30 l 1xb4
 50 20 l 1
 70 20 l 1xc480
 70 30 l 1xa480
 80 30 l 1
 80 70 l 1xb040
 70 70 l 1xb080
 70 80 l 1x8880
20 80 m 1xac
 10 80 l 1
 10 90 l 1
 40 90 l 1xaa
 40 80 l 1x92
 50 80 l 1x94
 50 90 l 1
 80 90 l 1
 80 80 l 1x89
 90 80 l 1x8880
 90 70 l 1x9080
 100 70 l 1
 100 30 l 1xb040
 90 30 l 1
 90 20 l 1xb080
 80 20 l 1xb1
 80 10 l 1
 50 10 l 1xc1
 50 20 l 1xc4
 40 20 l 1
 40 0 l 1
 50 0 l 1
 50 -10 l 1
 10 -10 l 1
 10 0 l 1
 20 0 l 1xa3
 20 80 l 1xac
EndSplineSet
Validated: 5
AlternateSubs2: "'ssty' Math Script Style lookup 4 subtable" p.ssty p.ssty2
AlternateSubs2: "'aalt' Access All Alternates lookup 1 subtable" p.ssty p.ssty2
EndChar

StartChar: q
Encoding: 82 113 83
Width: 110
GlyphClass: 2
Flags: W
HStem: -10 10<60 70 90 100> 10 10<40 60> 20 10<60 70> 70 20<30 40 60 70> 80 10<40 60>
VStem: 10 20<30 70> 20 20<20 30 70 80> 60 30<20 30 70 80> 70 20<0 20 30 70> 80 10<80 90>
LayerCount: 2
Fore
SplineSet
30 70 m 1x94
 30 30 l 1xb4
 40 30 l 1xb2
 40 20 l 1
 60 20 l 1xc3
 60 30 l 1xa3
 70 30 l 1
 70 70 l 1xb080
 60 70 l 1xb1
 60 80 l 1
 40 80 l 1x8b
 40 70 l 1x93
 30 70 l 1x94
30 20 m 1
 20 20 l 1
 20 30 l 1xa2
 10 30 l 1
 10 70 l 1xb4
 20 70 l 1xb2
 20 80 l 1x8a
 30 80 l 1x8c
 30 90 l 1
 70 90 l 1x9480
 70 80 l 1x8c80
 80 80 l 1
 80 90 l 1
 90 90 l 1x8840
 90 0 l 1x8880
 100 0 l 1
 100 -10 l 1
 60 -10 l 1
 60 0 l 1x89
 70 0 l 1
 70 20 l 1xa880
 60 20 l 1
 60 10 l 1
 30 10 l 1xc5
 30 20 l 1
EndSplineSet
Validated: 5
AlternateSubs2: "'ssty' Math Script Style lookup 4 subtable" q.ssty q.ssty2
AlternateSubs2: "'aalt' Access All Alternates lookup 1 subtable" q.ssty q.ssty2
EndChar

StartChar: r
Encoding: 83 114 84
Width: 110
GlyphClass: 2
Flags: W
HStem: 0 10<20 30 50 60> 60 20<80 90> 70 10<50 60> 80 10<20 30 60 70>
VStem: 30 20<10 70> 70 20<60 80>
LayerCount: 2
Fore
SplineSet
60 0 m 1xac
 20 0 l 1
 20 10 l 1
 30 10 l 1
 30 80 l 1
 20 80 l 1
 20 90 l 1
 50 90 l 1x9c
 50 80 l 1
 60 80 l 1xac
 60 90 l 1
 80 90 l 1x9c
 80 80 l 1
 90 80 l 1
 90 60 l 1
 70 60 l 1xcc
 70 80 l 1x9c
 60 80 l 1
 60 70 l 1
 50 70 l 1
 50 10 l 1
 60 10 l 1
 60 0 l 1xac
EndSplineSet
Validated: 5
AlternateSubs2: "'ssty' Math Script Style lookup 4 subtable" r.ssty r.ssty2
AlternateSubs2: "'aalt' Access All Alternates lookup 1 subtable" r.ssty r.ssty2
EndChar

StartChar: s
Encoding: 84 115 85
Width: 110
GlyphClass: 2
Flags: W
HStem: 0 10<30 70> 10 10<20 30> 30 20<50 70> 40 20<30 50> 70 10<70 80> 80 10<30 70>
VStem: 10 20<10 20 60 80> 10 10<0 10 20 30> 70 20<10 30 70 80> 80 10<60 70 80 90>
LayerCount: 2
Fore
SplineSet
10 50 m 1x2180
 10 80 l 1x26
 20 80 l 1
 20 90 l 1
 70 90 l 1x2580
 70 80 l 1x0980
 80 80 l 1x0840
 80 90 l 1
 90 90 l 1x0440
 90 60 l 1
 80 60 l 1
 80 70 l 1x1840
 70 70 l 1
 70 80 l 1x1880
 30 80 l 1
 30 60 l 1
 50 60 l 1x1680
 50 50 l 1
 80 50 l 1x2240
 80 40 l 1
 90 40 l 1x1240
 90 10 l 1x5080
 80 10 l 1x5040
 80 0 l 1
 30 0 l 1
 30 10 l 1x8240
 20 10 l 1x41
 20 0 l 1
 10 0 l 1x81
 10 30 l 1
 20 30 l 1
 20 20 l 1x61
 30 20 l 1x62
 30 10 l 1
 70 10 l 1
 70 30 l 1
 50 30 l 1xa280
 50 40 l 1
 20 40 l 1x1180
 20 50 l 1
 10 50 l 1x2180
EndSplineSet
Validated: 5
AlternateSubs2: "'ssty' Math Script Style lookup 4 subtable" s.ssty s.ssty2
AlternateSubs2: "'aalt' Access All Alternates lookup 1 subtable" s.ssty s.ssty2
EndChar

StartChar: t
Encoding: 85 116 86
Width: 110
GlyphClass: 2
Flags: W
HStem: 0 20<60 70> 0 10<50 60> 10 20<70 80> 80 10<10 30 50 80>
VStem: 30 20<10 80 90 110> 60 20<10 20> 70 10<20 30>
LayerCount: 2
Fore
SplineSet
10 80 m 1x3a
 10 90 l 1
 30 90 l 1
 30 110 l 1
 50 110 l 1
 50 90 l 1
 80 90 l 1
 80 80 l 1x3a
 50 80 l 1
 50 10 l 1
 60 10 l 1x5c
 60 20 l 1x9c
 70 20 l 1x9a
 70 30 l 1
 80 30 l 1x3a
 80 10 l 1x3c
 70 10 l 1x3a
 70 0 l 1x9a
 40 0 l 1x5a
 40 10 l 1
 30 10 l 1
 30 80 l 1
 10 80 l 1x3a
EndSplineSet
Validated: 1
AlternateSubs2: "'ssty' Math Script Style lookup 4 subtable" t.ssty t.ssty2
AlternateSubs2: "'aalt' Access All Alternates lookup 1 subtable" t.ssty t.ssty2
EndChar

StartChar: u
Encoding: 86 117 87
Width: 110
GlyphClass: 2
Flags: W
HStem: 0 10<40 60 90 100> 10 10<60 70> 80 10<0 10 60 70>
VStem: 10 20<20 80> 20 20<10 20> 60 30<10 20 80 90> 70 20<20 80>
LayerCount: 2
Fore
SplineSet
10 20 m 1x70
 10 80 l 1
 0 80 l 1
 0 90 l 1
 30 90 l 1
 30 20 l 1x70
 40 20 l 1x68
 40 10 l 1
 60 10 l 1xac
 60 20 l 1x6c
 70 20 l 1
 70 80 l 1x62
 60 80 l 1
 60 90 l 1
 90 90 l 1
 90 10 l 1xa4
 100 10 l 1
 100 0 l 1
 70 0 l 1xa2
 70 10 l 1x62
 60 10 l 1
 60 0 l 1
 30 0 l 1xb4
 30 10 l 1x74
 20 10 l 1
 20 20 l 1x68
 10 20 l 1x70
EndSplineSet
Validated: 5
AlternateSubs2: "'ssty' Math Script Style lookup 4 subtable" u.ssty u.ssty2
AlternateSubs2: "'aalt' Access All Alternates lookup 1 subtable" u.ssty u.ssty2
EndChar

StartChar: v
Encoding: 87 118 88
Width: 110
GlyphClass: 2
Flags: W
HStem: 0 21G<50 60> 20 20<60 70> 40 20<70 80> 60 30<20 30 80 90> 80 10<10 20 40 50 70 80 90 100>
VStem: 20 20<60 80> 30 20<40 60> 40 30<20 40> 70 10<40 60> 80 10<60 80>
LayerCount: 2
Fore
SplineSet
20 80 m 1x0c
 10 80 l 1
 10 90 l 1
 50 90 l 1
 50 80 l 1x0a
 40 80 l 1x0c
 40 60 l 1x14
 50 60 l 1x12
 50 40 l 1x22
 70 40 l 1x41
 70 60 l 1
 80 60 l 1x2080
 80 80 l 1x2840
 70 80 l 1
 70 90 l 1x2880
 100 90 l 1
 100 80 l 1
 90 80 l 1x2840
 90 60 l 1x1040
 80 60 l 1
 80 40 l 1x2080
 70 40 l 1
 70 20 l 1
 60 20 l 1x41
 60 0 l 1
 50 0 l 1x82
 50 20 l 1x42
 40 20 l 1x41
 40 40 l 1x21
 30 40 l 1x22
 30 60 l 1x12
 20 60 l 1x14
 20 80 l 1x0c
EndSplineSet
Validated: 5
AlternateSubs2: "'ssty' Math Script Style lookup 4 subtable" v.ssty v.ssty2
AlternateSubs2: "'aalt' Access All Alternates lookup 1 subtable" v.ssty v.ssty2
EndChar

StartChar: w
Encoding: 88 119 89
Width: 110
GlyphClass: 2
Flags: W
HStem: 0 21G<30 40 70 80> 80 10<0 10 30 40 80 90>
VStem: 10 20<60 80> 20 10<40 60> 30 10<0 20> 40 10<40 50> 50 20<60 90> 60 10<40 50> 80 10<40 50> 90 10<60 80>
LayerCount: 2
Fore
SplineSet
10 80 m 1xe0
 0 80 l 1
 0 90 l 1
 40 90 l 1
 40 80 l 1
 30 80 l 1xe4
 30 40 l 1
 40 40 l 1
 40 60 l 1xd4
 50 60 l 1
 50 90 l 1
 70 90 l 1xc2
 70 40 l 1
 80 40 l 1
 80 60 l 1xc180
 90 60 l 1
 90 80 l 1xc040
 80 80 l 1
 80 90 l 1xc080
 100 90 l 1
 100 50 l 1xc040
 90 50 l 1xc080
 90 20 l 1xc040
 80 20 l 1
 80 0 l 1
 70 0 l 1
 70 20 l 1
 60 20 l 1
 60 50 l 1
 50 50 l 1xc580
 50 20 l 1
 40 20 l 1
 40 0 l 1
 30 0 l 1
 30 20 l 1xca
 20 20 l 1
 20 60 l 1xd0
 10 60 l 1
 10 80 l 1xe0
EndSplineSet
Validated: 1
AlternateSubs2: "'ssty' Math Script Style lookup 4 subtable" w.ssty w.ssty2
AlternateSubs2: "'aalt' Access All Alternates lookup 1 subtable" w.ssty w.ssty2
EndChar

StartChar: x
Encoding: 89 120 90
Width: 110
GlyphClass: 2
Flags: W
HStem: 0 20<20 30 80 90> 0 10<10 20 30 40 60 70 90 100> 20 10<30 40> 60 10<70 80> 70 20<20 30 80 90> 80 10<10 20 40 50 70 80 90 100>
VStem: 20 10<10 20> 30 20<60 70> 30 10<20 30> 60 20<20 30> 70 10<60 70> 80 10<70 80>
LayerCount: 2
Fore
SplineSet
10 10 m 1x4080
 20 10 l 1x42
 20 20 l 1
 30 20 l 1x82
 30 30 l 1
 40 30 l 1
 40 50 l 1
 30 50 l 1x2080
 30 70 l 1x29
 20 70 l 1x2a
 20 80 l 1x06
 10 80 l 1
 10 90 l 1
 50 90 l 1
 50 80 l 1x05
 40 80 l 1x0480
 40 70 l 1x0880
 50 70 l 1x09
 50 60 l 1
 70 60 l 1
 70 70 l 1
 80 70 l 1x1120
 80 80 l 1x1410
 70 80 l 1
 70 90 l 1x1420
 100 90 l 1
 100 80 l 1
 90 80 l 1x1410
 90 70 l 1x0810
 80 70 l 1
 80 60 l 1
 70 60 l 1
 70 40 l 1x1020
 80 40 l 1x1010
 80 20 l 1x9040
 90 20 l 1x9010
 90 10 l 1x4010
 100 10 l 1
 100 0 l 1
 60 0 l 1
 60 10 l 1x4040
 70 10 l 1
 70 20 l 1x6020
 60 20 l 1
 60 30 l 1
 40 30 l 1
 40 20 l 1x60c0
 30 20 l 1x82
 30 10 l 1x42
 40 10 l 1
 40 0 l 1
 10 0 l 1
 10 10 l 1x4080
EndSplineSet
Validated: 5
AlternateSubs2: "'ssty' Math Script Style lookup 4 subtable" x.ssty x.ssty2
AlternateSubs2: "'aalt' Access All Alternates lookup 1 subtable" x.ssty x.ssty2
EndChar

StartChar: y
Encoding: 90 121 91
Width: 110
GlyphClass: 2
Flags: W
HStem: -10 10<30 40> 0 10<10 20> 20 20<60 70> 40 20<70 80> 60 30<20 30 80 90> 80 10<10 20 40 50 70 80 90 100>
VStem: 10 20<0 10> 20 20<70 80> 30 20<50 60> 40 30<20 40> 40 20<0 10> 50 10<10 20> 70 10<40 60> 80 10<60 80>
LayerCount: 2
Fore
SplineSet
20 -10 m 1x8110
 20 0 l 1x4110
 10 0 l 1
 10 10 l 1
 30 10 l 1x42
 30 0 l 1
 40 0 l 1x8220
 40 10 l 1x4220
 50 10 l 1
 50 20 l 1x6010
 40 20 l 1x6040
 40 40 l 1x1040
 30 40 l 1x1080
 30 60 l 1x0880
 20 60 l 1x09
 20 80 l 1x05
 10 80 l 1
 10 90 l 1x06
 50 90 l 1
 50 80 l 1
 40 80 l 1
 40 70 l 1
 50 70 l 1x0510
 50 50 l 1x0480
 60 50 l 1
 60 40 l 1x2410
 70 40 l 1x2440
 70 60 l 1
 80 60 l 1x1008
 80 80 l 1x1404
 70 80 l 1
 70 90 l 1x1408
 100 90 l 1
 100 80 l 1
 90 80 l 1x1404
 90 60 l 1x0804
 80 60 l 1
 80 40 l 1x1008
 70 40 l 1
 70 20 l 1x2040
 60 20 l 1x2010
 60 0 l 1x6020
 50 0 l 1x6010
 50 -10 l 1
 20 -10 l 1x8110
EndSplineSet
Validated: 5
AlternateSubs2: "'ssty' Math Script Style lookup 4 subtable" y.ssty y.ssty2
AlternateSubs2: "'aalt' Access All Alternates lookup 1 subtable" y.ssty y.ssty2
EndChar

StartChar: z
Encoding: 91 122 92
Width: 110
GlyphClass: 2
Flags: W
HStem: 0 30<20 30 80 90> 0 20<70 80> 0 10<10 20 40 70> 60 30<10 20 70 80> 70 20<20 30> 80 10<30 60 80 90>
VStem: 10 20<70 80> 10 10<60 70> 20 20<10 20> 40 20<40 50> 60 20<70 80> 70 20<10 20> 80 10<20 30>
LayerCount: 2
Fore
SplineSet
10 0 m 1x2108
 10 10 l 1x2108
 20 10 l 1x2080
 20 30 l 1x8080
 30 30 l 1
 30 40 l 1
 40 40 l 1
 40 60 l 1
 50 60 l 1x9240
 50 70 l 1
 60 70 l 1x0820
 60 80 l 1
 30 80 l 1x0620
 30 70 l 1x0a20
 20 70 l 1x09
 20 60 l 1
 10 60 l 1
 10 90 l 1x11
 90 90 l 1
 90 80 l 1x0508
 80 80 l 1x0420
 80 60 l 1x1008
 70 60 l 1
 70 50 l 1
 60 50 l 1x1050
 60 30 l 1
 50 30 l 1x9020
 50 20 l 1
 40 20 l 1x40a0
 40 10 l 1
 70 10 l 1x2090
 70 20 l 1x4090
 80 20 l 1x4008
 80 30 l 1
 90 30 l 1
 90 0 l 1x8008
 10 0 l 1x2108
EndSplineSet
Validated: 1
AlternateSubs2: "'ssty' Math Script Style lookup 4 subtable" z.ssty z.ssty2
AlternateSubs2: "'aalt' Access All Alternates lookup 1 subtable" z.ssty z.ssty2
EndChar

StartChar: braceleft
Encoding: 92 123 93
Width: 110
GlyphClass: 2
Flags: W
HStem: -10 10<60 80> 50 10<20 30> 110 10<60 80>
VStem: 20 20<50 60> 30 20<40 50 60 70> 40 20<0 40 70 110> 50 30<-10 0 110 120>
CounterMasks: 1 e0
LayerCount: 2
Fore
SplineSet
50 120 m 1xe2
 80 120 l 1
 80 110 l 1xe2
 60 110 l 1
 60 70 l 1xe4
 50 70 l 1
 50 60 l 1xe8
 40 60 l 1
 40 50 l 1xf0
 50 50 l 1
 50 40 l 1xe8
 60 40 l 1
 60 0 l 1xe4
 80 0 l 1
 80 -10 l 1
 50 -10 l 1
 50 0 l 1xe2
 40 0 l 1
 40 40 l 1xe4
 30 40 l 1
 30 50 l 1xe8
 20 50 l 1
 20 60 l 1xf0
 30 60 l 1
 30 70 l 1xe8
 40 70 l 1
 40 110 l 1xe4
 50 110 l 1
 50 120 l 1xe2
EndSplineSet
Validated: 1
EndChar

StartChar: bar
Encoding: 93 124 94
Width: 110
GlyphClass: 2
Flags: W
HStem: 0 21G<0 30> 100 20G<0 30>
VStem: 0 30<0 120>
LayerCount: 2
Fore
SplineSet
0 0 m 1
 0 120 l 1
 30 120 l 1
 30 0 l 1
 0 0 l 1
EndSplineSet
Validated: 1
EndChar

StartChar: braceright
Encoding: 94 125 95
Width: 110
GlyphClass: 2
Flags: W
HStem: -10 10<30 50> 50 10<80 90> 110 10<30 50>
VStem: 30 30<-10 0 110 120> 50 20<0 40 70 110> 60 20<40 50 60 70> 70 20<50 60>
CounterMasks: 1 e0
LayerCount: 2
Fore
SplineSet
30 110 m 1xf0
 30 120 l 1
 60 120 l 1
 60 110 l 1xf0
 70 110 l 1
 70 70 l 1xe8
 80 70 l 1
 80 60 l 1xe4
 90 60 l 1
 90 50 l 1xe2
 80 50 l 1
 80 40 l 1xe4
 70 40 l 1
 70 0 l 1xe8
 60 0 l 1
 60 -10 l 1
 30 -10 l 1
 30 0 l 1xf0
 50 0 l 1
 50 40 l 1xe8
 60 40 l 1
 60 50 l 1xe4
 70 50 l 1
 70 60 l 1xe2
 60 60 l 1
 60 70 l 1xe4
 50 70 l 1
 50 110 l 1xe8
 30 110 l 1xf0
EndSplineSet
Validated: 1
EndChar

StartChar: asciitilde
Encoding: 95 126 96
Width: 110
GlyphClass: 2
Flags: W
HStem: 50 20<0 10 50 60 80 90> 50 10<60 80> 60 20<10 20 40 50 90 100> 70 10<20 40>
VStem: 0 20<60 70> 0 10<50 60> 40 20<60 70> 80 20<60 70> 90 10<70 80>
LayerCount: 2
Fore
SplineSet
0 50 m 1x86
 0 70 l 1x8a
 10 70 l 1x86
 10 80 l 1
 50 80 l 1x26
 50 70 l 1
 60 70 l 1x86
 60 60 l 1
 80 60 l 1x47
 80 70 l 1x87
 90 70 l 1x8280
 90 80 l 1
 90 80 90 80 100 80 c 1x2280
 100 60 l 1x23
 90 60 l 1x2280
 90 50 l 1
 50 50 l 1x8280
 50 60 l 1
 40 60 l 1x2280
 40 70 l 1
 20 70 l 1x1a80
 20 60 l 1x2a80
 10 60 l 1x26
 10 50 l 1
 0 50 l 1x86
EndSplineSet
Validated: 1
EndChar

StartChar: exclamdown
Encoding: 97 161 98
Width: 110
GlyphClass: 2
Flags: W
HStem: 0 21G<40 60>
VStem: 40 20<0 80>
LayerCount: 2
Fore
SplineSet
40 0 m 1
 40 80 l 1
 60 80 l 1
 60 0 l 1
 40 0 l 1
40 100 m 1
 60 100 l 1
 60 120 l 1
 40 120 l 1
 40 100 l 1
EndSplineSet
Validated: 9
EndChar

StartChar: brokenbar
Encoding: 98 166 99
Width: 110
GlyphClass: 2
Flags: W
HStem: 0 21G<40 60> 100 20G<40 60>
VStem: 40 20<0 50 70 120>
LayerCount: 2
Fore
SplineSet
40 50 m 1
 60 50 l 1
 60 0 l 1
 40 0 l 1
 40 50 l 1
40 70 m 1
 40 120 l 1
 60 120 l 1
 60 70 l 1
 40 70 l 1
EndSplineSet
Validated: 1
EndChar

StartChar: degree
Encoding: 99 176 100
Width: 110
GlyphClass: 2
Flags: W
HStem: 60 20<20 30 50 60> 60 10<30 50> 100 20<20 30 50 60> 110 10<30 50>
VStem: 10 20<70 80 100 110> 10 10<80 100> 50 20<70 80 100 110> 60 10<80 100>
LayerCount: 2
Fore
SplineSet
20 120 m 1x24
 60 120 l 1x25
 60 110 l 1x15
 70 110 l 1
 70 70 l 1x52
 60 70 l 1x51
 60 60 l 1
 20 60 l 1x85
 20 70 l 1x45
 10 70 l 1
 10 110 l 1x58
 20 110 l 1x54
 20 120 l 1x24
30 110 m 1x1a
 30 100 l 1x2a
 20 100 l 1
 20 80 l 1xa4
 30 80 l 1xa8
 30 70 l 1
 50 70 l 1x4a
 50 80 l 1x8a
 60 80 l 1
 60 100 l 1xa1
 50 100 l 1xa2
 50 110 l 1
 30 110 l 1x1a
EndSplineSet
Validated: 1
AlternateSubs2: "'ssty' Math Script Style lookup 4 subtable" degree.ssty degree.ssty2
AlternateSubs2: "'aalt' Access All Alternates lookup 1 subtable" degree.ssty degree.ssty2
EndChar

StartChar: twosuperior
Encoding: 100 178 101
Width: 110
GlyphClass: 2
Flags: W
HStem: 50 20<10 20 70 80> 50 10<30 70> 70 20<30 40> 80 10<40 60> 90 20<70 80> 100 10<10 20> 110 10<30 60>
VStem: 10 20<60 70 100 110> 20 20<70 80> 60 20<90 110> 70 10<60 70>
LayerCount: 2
Fore
SplineSet
30 100 m 1x0540
 10 100 l 1
 10 110 l 1x0540
 20 110 l 1x0480
 20 120 l 1
 70 120 l 1x02a0
 70 110 l 1x08a0
 80 110 l 1
 80 90 l 1x0840
 70 90 l 1x0820
 70 80 l 1
 40 80 l 1x10a0
 40 70 l 1x20a0
 30 70 l 1
 30 60 l 1
 70 60 l 1x6120
 70 70 l 1
 80 70 l 1
 80 50 l 1
 10 50 l 1
 10 70 l 1x8120
 20 70 l 1
 20 80 l 1x9080
 30 80 l 1x91
 30 90 l 1x21
 60 90 l 1
 60 110 l 1
 30 110 l 1x1340
 30 100 l 1x0540
EndSplineSet
Validated: 1
AlternateSubs2: "'ssty' Math Script Style lookup 4 subtable" twosuperior.ssty twosuperior.ssty2
AlternateSubs2: "'aalt' Access All Alternates lookup 1 subtable" twosuperior.ssty twosuperior.ssty2
EndChar

StartChar: threesuperior
Encoding: 101 179 102
Width: 110
GlyphClass: 2
Flags: W
HStem: 50 10<30 60> 60 20<70 80> 60 10<10 20> 80 10<30 60> 90 20<70 80> 100 10<10 20> 110 10<30 60>
VStem: 10 20<60 70 100 110> 60 20<60 80 90 110>
LayerCount: 2
Fore
SplineSet
10 100 m 1x0580
 10 110 l 1
 20 110 l 1x0580
 20 120 l 1
 70 120 l 1x0380
 70 110 l 1
 80 110 l 1
 80 90 l 1
 70 90 l 1
 70 80 l 1
 80 80 l 1
 80 60 l 1
 70 60 l 1x4980
 70 50 l 1
 20 50 l 1x8180
 20 60 l 1
 10 60 l 1
 10 70 l 1
 30 70 l 1x2180
 30 60 l 1
 60 60 l 1
 60 80 l 1
 30 80 l 1
 30 90 l 1
 60 90 l 1
 60 110 l 1
 30 110 l 1x9380
 30 100 l 1
 10 100 l 1x0580
EndSplineSet
Validated: 1
AlternateSubs2: "'ssty' Math Script Style lookup 4 subtable" threesuperior.ssty threesuperior.ssty2
AlternateSubs2: "'aalt' Access All Alternates lookup 1 subtable" threesuperior.ssty threesuperior.ssty2
EndChar

StartChar: onesuperior
Encoding: 102 185 103
Width: 110
GlyphClass: 2
Flags: W
HStem: 50 10<30 40 60 70> 100 20G<40 60> 100 10<30 40>
VStem: 40 20<60 100 110 120>
LayerCount: 2
Fore
SplineSet
30 50 m 1xd0
 30 60 l 1
 40 60 l 1
 40 100 l 1xd0
 30 100 l 1
 30 110 l 1
 40 110 l 1xb0
 40 120 l 1
 60 120 l 1
 60 60 l 1
 70 60 l 1
 70 50 l 1
 30 50 l 1xd0
EndSplineSet
Validated: 1
AlternateSubs2: "'ssty' Math Script Style lookup 4 subtable" onesuperior.ssty onesuperior.ssty2
AlternateSubs2: "'aalt' Access All Alternates lookup 1 subtable" onesuperior.ssty onesuperior.ssty2
EndChar

StartChar: questiondown
Encoding: 103 191 104
Width: 110
GlyphClass: 2
Flags: W
HStem: 0 20<30 40 60 70> 0 10<40 60> 20 20<10 20 80 90> 40 20<30 40> 60 20<50 60> 100 20<40 60>
VStem: 10 20<20 40> 20 20<10 20 40 50> 30 20<50 60> 40 20<60 80 100 120> 60 20<10 20> 70 20<20 40>
LayerCount: 2
Fore
SplineSet
90 40 m 1x2410
 90 20 l 1x2410
 80 20 l 1
 80 10 l 1x6420
 70 10 l 1x6410
 70 0 l 1
 30 0 l 1x8490
 30 10 l 1x4490
 20 10 l 1
 20 20 l 1x65
 10 20 l 1
 10 40 l 1x66
 20 40 l 1
 20 50 l 1x65
 30 50 l 1
 30 60 l 1x1480
 40 60 l 1x1440
 40 80 l 1
 60 80 l 1
 60 60 l 1x0c40
 50 60 l 1
 50 50 l 1x0c80
 40 50 l 1
 40 40 l 1x15
 30 40 l 1
 30 20 l 1x96
 40 20 l 1x95
 40 10 l 1
 60 10 l 1x4520
 60 20 l 1x8520
 70 20 l 1
 70 40 l 1x9410
 90 40 l 1x2410
60 120 m 1x0440
 60 100 l 1
 40 100 l 1
 40 120 l 1
 60 120 l 1x0440
EndSplineSet
Validated: 1
EndChar

StartChar: Aacute
Encoding: 105 193 105
Width: 110
GlyphClass: 2
Flags: W
HStem: 0 10<0 10 20 30 60 70 90 100> 30 10<30 60> 100 10<30 40> 110 10<50 60>
VStem: 10 10<10 30> 20 10<40 60> 30 20<100 110> 30 10<60 80> 40 20<90 100 110 120> 50 20<60 80> 60 20<40 60> 70 20<10 30>
LayerCount: 2
Fore
SplineSet
30 60 m 1xc4
 30 40 l 1
 60 40 l 1
 60 60 l 1xc420
 50 60 l 1
 50 80 l 1
 40 80 l 1
 40 60 l 1xc140
 30 60 l 1xc4
30 0 m 1xe910
 0 0 l 1
 0 10 l 1
 10 10 l 1
 10 40 l 1xe910
 20 40 l 1
 20 60 l 1
 30 60 l 1xe4
 30 90 l 1xe1
 40 90 l 1
 40 100 l 1xe080
 30 100 l 1
 30 110 l 1xe2
 40 110 l 1xe080
 40 120 l 1
 60 120 l 1
 60 110 l 1xd080
 50 110 l 1xd2
 50 100 l 1xe2
 60 100 l 1
 60 90 l 1
 70 90 l 1xe090
 70 60 l 1xe040
 80 60 l 1
 80 40 l 1xe020
 90 40 l 1
 90 10 l 1xe010
 100 10 l 1
 100 0 l 1
 60 0 l 1
 60 10 l 1xe020
 70 10 l 1
 70 30 l 1
 20 30 l 1
 20 10 l 1
 30 10 l 1
 30 0 l 1xe910
EndSplineSet
Validated: 5
EndChar

StartChar: Acircumflex
Encoding: 106 194 106
Width: 110
GlyphClass: 2
Flags: W
HStem: 0 10<0 10 20 30 60 70 90 100> 30 10<30 60> 100 10<20 30 60 70> 110 10<40 50>
VStem: 10 10<10 30> 20 10<40 60> 30 10<60 80> 40 20<90 100> 50 20<60 80 100 110> 60 20<40 60> 70 20<10 30>
LayerCount: 2
Fore
SplineSet
40 110 m 1xd1
 40 100 l 1xe1
 50 100 l 1xe080
 50 110 l 1xd080
 40 110 l 1xd1
40 60 m 1xc280
 30 60 l 1
 30 40 l 1
 60 40 l 1
 60 60 l 1xc440
 50 60 l 1
 50 80 l 1
 40 80 l 1
 40 60 l 1xc280
30 60 m 1
 30 90 l 1xe2
 40 90 l 1
 40 100 l 1
 20 100 l 1
 20 110 l 1xe5
 30 110 l 1xe2
 30 120 l 1
 60 120 l 1xd240
 60 110 l 1xe240
 70 110 l 1
 70 100 l 1xe080
 60 100 l 1
 60 90 l 1
 70 90 l 1xe120
 70 60 l 1xe080
 80 60 l 1
 80 40 l 1xe040
 90 40 l 1
 90 10 l 1xe020
 100 10 l 1
 100 0 l 1
 60 0 l 1
 60 10 l 1xe040
 70 10 l 1
 70 30 l 1
 20 30 l 1
 20 10 l 1
 30 10 l 1
 30 0 l 1
 0 0 l 1
 0 10 l 1
 10 10 l 1
 10 40 l 1xea20
 20 40 l 1
 20 60 l 1
 30 60 l 1
EndSplineSet
Validated: 5
EndChar

StartChar: Aring
Encoding: 109 197 107
Width: 110
GlyphClass: 2
Flags: W
HStem: 0 10<0 10 20 30 60 70 90 100> 30 10<30 60> 80 20<40 50> 110 10<40 50>
VStem: 10 10<10 30> 20 10<40 60> 30 10<60 80 100 110> 50 20<60 80> 50 10<100 110> 60 20<40 60> 70 20<10 30>
LayerCount: 2
Fore
SplineSet
40 110 m 1xf280
 40 100 l 1
 50 100 l 1
 50 110 l 1
 40 110 l 1xf280
30 60 m 1xf4
 30 40 l 1
 60 40 l 1
 60 60 l 1xf440
 50 60 l 1
 50 80 l 1
 40 80 l 1
 40 60 l 1xf3
 30 60 l 1xf4
30 0 m 1xfa20
 0 0 l 1
 0 10 l 1
 10 10 l 1
 10 40 l 1xfa20
 20 40 l 1
 20 60 l 1
 30 60 l 1xf4
 30 120 l 1
 60 120 l 1
 60 90 l 1xf240
 70 90 l 1xf020
 70 60 l 1xf1
 80 60 l 1
 80 40 l 1xf040
 90 40 l 1
 90 10 l 1xf020
 100 10 l 1
 100 0 l 1
 60 0 l 1
 60 10 l 1xf040
 70 10 l 1
 70 30 l 1
 20 30 l 1
 20 10 l 1
 30 10 l 1
 30 0 l 1xfa20
EndSplineSet
Validated: 5
EndChar

StartChar: Eacute
Encoding: 113 201 108
Width: 110
GlyphClass: 2
Flags: W
HStem: 0 20<80 90> 0 10<0 10 30 80> 50 10<30 60> 80 20<80 90> 90 20<30 40> 90 10<0 10 50 80> 110 10<50 60>
VStem: 10 20<10 50 60 90> 30 20<100 110> 40 20<110 120> 60 10<30 50 60 80> 80 20<10 20 80 90> 90 10<20 30 70 80>
LayerCount: 2
Fore
SplineSet
10 90 m 1x6508
 0 90 l 1
 0 100 l 1
 30 100 l 1x6480
 30 110 l 1x2880
 40 110 l 1x2840
 40 120 l 1
 60 120 l 1
 60 110 l 1x2240
 50 110 l 1
 50 100 l 1
 100 100 l 1x2688
 100 70 l 1
 90 70 l 1
 90 80 l 1x3088
 80 80 l 1x3010
 80 90 l 1x2410
 30 90 l 1x2910
 30 60 l 1
 60 60 l 1
 60 80 l 1
 70 80 l 1
 70 30 l 1
 60 30 l 1
 60 50 l 1
 30 50 l 1
 30 10 l 1
 80 10 l 1x7130
 80 20 l 1xa130
 90 20 l 1xa008
 90 30 l 1
 100 30 l 1
 100 0 l 1
 0 0 l 1
 0 10 l 1
 10 10 l 1
 10 90 l 1x6508
EndSplineSet
Validated: 1
EndChar

StartChar: Eth
Encoding: 120 208 109
Width: 110
GlyphClass: 2
Flags: W
HStem: 0 20<60 70> 0 10<0 10 30 60> 50 10<0 10 30 50> 100 20<60 70> 110 10<0 10 30 60>
VStem: 10 20<10 50 60 110> 60 20<10 20 100 110> 70 20<20 40 80 100> 80 20<40 80>
LayerCount: 2
Fore
SplineSet
50 60 m 1x2e
 50 50 l 1
 30 50 l 1
 30 10 l 1
 60 10 l 1x6e
 60 20 l 1xa6
 70 20 l 1
 70 40 l 1xa5
 80 40 l 1
 80 80 l 1xa480
 70 80 l 1
 70 100 l 1xb5
 60 100 l 1xb6
 60 110 l 1
 30 110 l 1
 30 60 l 1
 50 60 l 1x2e
10 50 m 1
 0 50 l 1
 0 60 l 1
 10 60 l 1
 10 110 l 1
 0 110 l 1
 0 120 l 1x6d
 70 120 l 1x35
 70 110 l 1x2d
 80 110 l 1x2e
 80 100 l 1x36
 90 100 l 1
 90 80 l 1x35
 100 80 l 1
 100 40 l 1x3480
 90 40 l 1
 90 20 l 1xb5
 80 20 l 1xb6
 80 10 l 1x66
 70 10 l 1x65
 70 0 l 1xa5
 0 0 l 1
 0 10 l 1
 10 10 l 1
 10 50 l 1
EndSplineSet
Validated: 1
EndChar

StartChar: Odieresis
Encoding: 126 214 110
Width: 110
GlyphClass: 2
Flags: W
HStem: 0 30<20 30 70 80> 0 10<30 70> 30 30<0 10 90 100> 60 30<20 30 70 80> 80 10<30 70> 100 20<20 40 50 70>
VStem: 0 20<30 60> 10 20<10 30 60 80> 20 20<100 120> 50 20<100 120> 70 20<10 30 60 80> 80 20<30 60>
LayerCount: 2
Fore
SplineSet
30 60 m 1x1520
 20 60 l 1
 20 30 l 1x96
 30 30 l 1x95
 30 10 l 1
 70 10 l 1x4520
 70 30 l 1x8520
 80 30 l 1
 80 60 l 1x9410
 70 60 l 1x9420
 70 80 l 1
 30 80 l 1x0d20
 30 60 l 1x1520
40 100 m 1x0480
 20 100 l 1
 20 120 l 1
 40 120 l 1
 40 100 l 1x0480
0 30 m 1x66
 0 60 l 1x66
 10 60 l 1
 10 80 l 1x6d
 20 80 l 1x6c80
 20 90 l 1
 80 90 l 1x1490
 80 80 l 1x0c90
 90 80 l 1
 90 60 l 1x2c20
 100 60 l 1
 100 30 l 1x2c10
 90 30 l 1
 90 10 l 1x6c20
 80 10 l 1x6c10
 80 0 l 1
 20 0 l 1x8490
 20 10 l 1x4490
 10 10 l 1
 10 30 l 1x65
 0 30 l 1x66
70 100 m 1x0440
 50 100 l 1
 50 120 l 1
 70 120 l 1
 70 100 l 1x0440
EndSplineSet
Validated: 1
EndChar

StartChar: multiply
Encoding: 127 215 111
Width: 110
GlyphClass: 2
Flags: W
HStem: 10 30<10 20 80 90> 20 30<20 30 70 80> 20 10<0 10 90 100> 70 30<20 30 70 80> 80 30<10 20 80 90> 90 10<0 10 90 100>
VStem: 0 30<20 30 90 100> 10 30<30 40 80 90> 10 10<10 20 100 110> 60 30<30 40 80 90> 70 30<20 30 90 100> 80 10<10 20 100 110>
LayerCount: 2
Fore
SplineSet
10 90 m 1x05
 0 90 l 1
 0 100 l 1x06
 10 100 l 1x0480
 10 110 l 1
 20 110 l 1x0880
 20 100 l 1x1080
 30 100 l 1x12
 30 90 l 1x06
 40 90 l 1x05
 40 80 l 1
 60 80 l 1x0940
 60 90 l 1x0540
 70 90 l 1x0420
 70 100 l 1x1020
 80 100 l 1x1010
 80 110 l 1
 90 110 l 1x0810
 90 100 l 1x0410
 100 100 l 1
 100 90 l 1x0420
 90 90 l 1x0440
 90 80 l 1x0840
 80 80 l 1x0810
 80 70 l 1x1010
 70 70 l 1
 70 50 l 1x5020
 80 50 l 1x5010
 80 40 l 1x8010
 90 40 l 1x8040
 90 30 l 1x2040
 100 30 l 1
 100 20 l 1x2020
 90 20 l 1x2010
 90 10 l 1
 80 10 l 1x8010
 80 20 l 1x4010
 70 20 l 1x4020
 70 30 l 1x2020
 60 30 l 1x2040
 60 40 l 1
 40 40 l 1x8140
 40 30 l 1x2140
 30 30 l 1x22
 30 20 l 1x42
 20 20 l 1x4080
 20 10 l 1
 10 10 l 1x8080
 10 20 l 1x2080
 0 20 l 1
 0 30 l 1x22
 10 30 l 1x21
 10 40 l 1x81
 20 40 l 1x8080
 20 50 l 1x4080
 30 50 l 1
 30 70 l 1x52
 20 70 l 1x5080
 20 80 l 1x0880
 10 80 l 1x09
 10 90 l 1x05
EndSplineSet
Validated: 1
AlternateSubs2: "'ssty' Math Script Style lookup 4 subtable" multiply.ssty multiply.ssty2
AlternateSubs2: "'aalt' Access All Alternates lookup 1 subtable" multiply.ssty multiply.ssty2
EndChar

StartChar: Uacute
Encoding: 130 218 112
Width: 110
GlyphClass: 2
Flags: W
HStem: 0 10<40 70> 10 10<70 80> 90 10<0 10 30 40 70 80 90 100> 100 10<50 60> 110 10<70 80>
VStem: 10 20<20 90> 20 20<10 20> 50 20<100 110> 60 20<110 120> 70 10<10 20> 80 10<20 90>
LayerCount: 2
Fore
SplineSet
90 20 m 1x6920
 80 20 l 1
 80 10 l 1x6840
 70 10 l 1
 70 0 l 1
 30 0 l 1x8440
 30 10 l 1x4440
 20 10 l 1
 20 20 l 1x42
 10 20 l 1
 10 90 l 1x64
 0 90 l 1
 0 100 l 1
 40 100 l 1
 40 90 l 1x62
 30 90 l 1
 30 20 l 1x64
 40 20 l 1x62
 40 10 l 1
 70 10 l 1x8240
 70 20 l 1
 80 20 l 1x4240
 80 90 l 1x6020
 70 90 l 1x6040
 70 100 l 1x61
 50 100 l 1
 50 110 l 1x11
 60 110 l 1x1080
 60 120 l 1
 80 120 l 1
 80 110 l 1x0880
 70 110 l 1
 70 100 l 1
 100 100 l 1
 100 90 l 1
 90 90 l 1
 90 20 l 1x6920
EndSplineSet
Validated: 5
EndChar

StartChar: Udieresis
Encoding: 132 220 113
Width: 110
GlyphClass: 2
Flags: W
HStem: 0 10<40 70> 10 10<70 80> 80 10<0 10 30 40 70 80 90 100> 100 20<30 50 60 80>
VStem: 10 20<20 80> 20 20<10 20> 30 20<100 120> 60 20<100 120> 70 10<10 20> 80 10<20 80>
LayerCount: 2
Fore
SplineSet
10 20 m 1x78
 10 80 l 1x78
 0 80 l 1
 0 90 l 1
 40 90 l 1
 40 80 l 1x74
 30 80 l 1
 30 20 l 1x78
 40 20 l 1x74
 40 10 l 1
 70 10 l 1xb480
 70 20 l 1
 80 20 l 1x7480
 80 80 l 1x7040
 70 80 l 1
 70 90 l 1x7080
 100 90 l 1
 100 80 l 1
 90 80 l 1
 90 20 l 1x7040
 80 20 l 1
 80 10 l 1x7080
 70 10 l 1
 70 0 l 1
 30 0 l 1xb280
 30 10 l 1x7280
 20 10 l 1
 20 20 l 1x74
 10 20 l 1x78
60 100 m 1x31
 60 120 l 1
 80 120 l 1
 80 100 l 1
 60 100 l 1x31
30 100 m 1x32
 30 120 l 1
 50 120 l 1
 50 100 l 1
 30 100 l 1x32
EndSplineSet
Validated: 5
EndChar

StartChar: germandbls
Encoding: 135 223 114
Width: 110
GlyphClass: 3
Flags: W
HStem: 0 10<0 10 30 40 60 70> 10 10<40 50> 60 10<50 70> 80 20<90 100> 100 20<70 80> 110 10<40 70>
VStem: 10 20<10 90> 20 20<90 110> 50 30<0 10 60 70> 70 20<10 20 50 60 70 80 100 110> 80 20<20 50 80 100>
LayerCount: 2
Fore
SplineSet
30 10 m 1xa6
 40 10 l 1xa5
 40 20 l 1
 60 20 l 1x61
 60 10 l 1
 70 10 l 1xa140
 70 20 l 1x6140
 80 20 l 1
 80 50 l 1x6020
 70 50 l 1
 70 60 l 1x6040
 50 60 l 1
 50 70 l 1x6080
 70 70 l 1
 70 80 l 1x7040
 80 80 l 1x7020
 80 100 l 1x2820
 70 100 l 1x2840
 70 110 l 1
 40 110 l 1
 40 90 l 1x2540
 30 90 l 1
 30 10 l 1xa6
80 10 m 1x7480
 80 0 l 1
 50 0 l 1xa080
 50 10 l 1x6080
 40 10 l 1
 40 0 l 1xa180
 0 0 l 1
 0 10 l 1
 10 10 l 1
 10 90 l 1xa2
 20 90 l 1
 20 110 l 1xa5
 30 110 l 1
 30 120 l 1xa6
 80 120 l 1x2a20
 80 110 l 1x2620
 90 110 l 1
 90 100 l 1x3440
 100 100 l 1
 100 80 l 1x3420
 90 80 l 1
 90 70 l 1x3440
 80 70 l 1
 80 60 l 1x3480
 90 60 l 1
 90 50 l 1x3440
 100 50 l 1
 100 20 l 1x7420
 90 20 l 1
 90 10 l 1x7440
 80 10 l 1x7480
EndSplineSet
Validated: 5
EndChar

StartChar: agrave
Encoding: 136 224 115
Width: 110
GlyphClass: 2
Flags: W
HStem: 0 20<60 70> 0 10<30 60 90 100> 40 20<30 40> 50 10<40 70> 60 20<10 20> 70 20<20 30> 80 10<30 70> 100 10<50 60> 110 10<30 40>
VStem: 10 20<10 40 70 80> 10 10<60 70> 20 20<40 50> 30 20<110 120> 40 20<100 110> 70 20<20 50 60 80> 80 20<0 10>
LayerCount: 2
Fore
SplineSet
40 40 m 1x2012
 30 40 l 1
 30 10 l 1
 60 10 l 1x6044
 60 20 l 1x8044
 70 20 l 1
 70 50 l 1
 40 50 l 1x9012
 40 40 l 1x2012
50 110 m 1x0108
 60 110 l 1
 60 100 l 1
 40 100 l 1x0104
 40 110 l 1x0084
 30 110 l 1
 30 120 l 1
 50 120 l 1x0088
 50 110 l 1x0108
20 10 m 1x4012
 10 10 l 1
 10 40 l 1x6040
 20 40 l 1x6010
 20 50 l 1x1010
 30 50 l 1x1008
 30 60 l 1x2008
 70 60 l 1
 70 80 l 1
 30 80 l 1x1242
 30 70 l 1x0442
 20 70 l 1x0420
 20 60 l 1
 10 60 l 1x0820
 10 80 l 1x0840
 20 80 l 1x0810
 20 90 l 1x0410
 80 90 l 1
 80 80 l 1x0211
 90 80 l 1
 90 10 l 1x4202
 100 10 l 1
 100 0 l 1
 80 0 l 1
 80 10 l 1x4201
 70 10 l 1x4202
 70 0 l 1x8002
 20 0 l 1
 20 10 l 1x4012
EndSplineSet
Validated: 1
EndChar

StartChar: aacute
Encoding: 137 225 116
Width: 110
GlyphClass: 2
Flags: W
HStem: 0 20<60 70> 0 10<30 60 90 100> 40 20<30 40> 50 10<40 70> 60 20<10 20> 70 20<20 30> 80 10<30 70> 100 10<30 40> 110 10<50 60>
VStem: 10 20<10 40 70 80> 10 10<60 70> 20 20<40 50> 30 20<100 110> 40 20<110 120> 70 20<20 50 60 80> 80 20<0 10>
LayerCount: 2
Fore
SplineSet
40 40 m 1x2012
 30 40 l 1
 30 10 l 1
 60 10 l 1x6044
 60 20 l 1x8044
 70 20 l 1
 70 50 l 1
 40 50 l 1x9012
 40 40 l 1x2012
50 110 m 1x0088
 50 100 l 1
 30 100 l 1
 30 110 l 1x0108
 40 110 l 1x0104
 40 120 l 1
 60 120 l 1
 60 110 l 1x0084
 50 110 l 1x0088
20 10 m 1x4012
 10 10 l 1
 10 40 l 1x6040
 20 40 l 1x6010
 20 50 l 1x1010
 30 50 l 1x1008
 30 60 l 1x2008
 70 60 l 1
 70 80 l 1
 30 80 l 1x1242
 30 70 l 1x0442
 20 70 l 1x0420
 20 60 l 1
 10 60 l 1x0820
 10 80 l 1x0840
 20 80 l 1x0810
 20 90 l 1x0410
 80 90 l 1
 80 80 l 1x0211
 90 80 l 1
 90 10 l 1x4202
 100 10 l 1
 100 0 l 1
 80 0 l 1
 80 10 l 1x4201
 70 10 l 1x4202
 70 0 l 1x8002
 20 0 l 1
 20 10 l 1x4012
EndSplineSet
Validated: 1
EndChar

StartChar: acircumflex
Encoding: 138 226 117
Width: 110
GlyphClass: 2
Flags: W
HStem: 0 20<60 70> 0 10<30 60 90 100> 40 20<30 40> 50 10<40 70> 60 20<10 20> 70 20<20 30> 80 10<30 70> 100 10<20 30 60 70> 110 10<40 50>
VStem: 10 20<10 40 70 80> 10 10<60 70> 20 20<40 50 100 110> 50 20<100 110> 70 20<20 50 60 80> 80 20<0 10>
LayerCount: 2
Fore
SplineSet
40 50 m 1x9014
 40 40 l 1x2014
 30 40 l 1
 30 10 l 1
 60 10 l 1x6040
 60 20 l 1
 70 20 l 1
 70 50 l 1
 40 50 l 1x9014
40 100 m 1x0118
 20 100 l 1
 20 110 l 1x0118
 30 110 l 1x0140
 30 120 l 1
 60 120 l 1x00c0
 60 110 l 1
 70 110 l 1
 70 100 l 1
 50 100 l 1x0148
 50 110 l 1
 40 110 l 1x0098
 40 100 l 1x0118
30 70 m 1x0444
 20 70 l 1x0420
 20 60 l 1
 10 60 l 1x0820
 10 80 l 1x0840
 20 80 l 1x0810
 20 90 l 1x0410
 80 90 l 1
 80 80 l 1x0212
 90 80 l 1
 90 10 l 1x4204
 100 10 l 1
 100 0 l 1
 80 0 l 1
 80 10 l 1x4202
 70 10 l 1x4204
 70 0 l 1x8004
 20 0 l 1
 20 10 l 1x4014
 10 10 l 1
 10 40 l 1x6040
 20 40 l 1x6010
 20 50 l 1x1010
 30 50 l 1x1040
 30 60 l 1x2040
 70 60 l 1
 70 80 l 1
 30 80 l 1x1244
 30 70 l 1x0444
EndSplineSet
Validated: 1
EndChar

StartChar: atilde
Encoding: 139 227 118
Width: 110
GlyphClass: 2
Flags: W
HStem: 0 20<60 70> 0 10<30 60 90 100> 40 20<30 40> 50 10<40 70> 60 20<10 20> 70 20<20 30> 80 10<30 70> 100 10<20 30 50 70> 110 10<30 50 70 80>
VStem: 10 10<60 70> 20 20<40 50> 20 10<100 110> 30 20<110 120> 50 20<100 110> 70 20<20 50 60 80> 70 10<110 120> 80 20<0 10>
LayerCount: 2
Fore
SplineSet
40 40 m 1x2022
 30 40 l 1
 30 10 l 1
 60 10 l 1x6008
 60 20 l 1
 70 20 l 1
 70 50 l 1
 40 50 l 1x9022
 40 40 l 1x2022
50 110 m 1x0108
 30 110 l 1
 30 100 l 1
 20 100 l 1
 20 110 l 1
 30 110 l 1x0110
 30 120 l 1
 50 120 l 1x0088
 50 110 l 1x0108
 70 110 l 1x0104
 70 120 l 1
 80 120 l 1
 80 110 l 1x0081
 70 110 l 1
 70 100 l 1
 50 100 l 1x0104
 50 110 l 1x0108
20 10 m 1x4011
 10 10 l 1
 10 40 l 1x6040
 20 40 l 1x6020
 20 50 l 1x1020
 30 50 l 1x1008
 30 60 l 1x2008
 70 60 l 1
 70 80 l 1
 30 80 l 1x120a
 30 70 l 1
 20 70 l 1x044a
 20 60 l 1
 10 60 l 1
 10 80 l 1x084a
 20 80 l 1x0810
 20 90 l 1x0410
 80 90 l 1
 80 80 l 1x021080
 90 80 l 1
 90 10 l 1x4202
 100 10 l 1
 100 0 l 1
 80 0 l 1
 80 10 l 1x420080
 70 10 l 1x4201
 70 0 l 1x8001
 20 0 l 1
 20 10 l 1x4011
EndSplineSet
Validated: 5
EndChar

StartChar: adieresis
Encoding: 140 228 119
Width: 110
GlyphClass: 2
Flags: W
HStem: 0 20<60 70> 0 10<30 60 90 100> 40 20<30 40> 50 10<40 70> 60 20<10 20> 70 20<20 30> 80 10<30 70> 100 20<20 40 50 70>
VStem: 10 20<10 40 70 80> 10 10<60 70> 20 20<40 50 100 120> 50 20<100 120> 70 20<20 50 60 80> 80 20<0 10>
LayerCount: 2
Fore
SplineSet
40 40 m 1x2128
 30 40 l 1
 30 10 l 1
 60 10 l 1x6180
 60 20 l 1
 70 20 l 1
 70 50 l 1
 40 50 l 1x9128
 40 40 l 1x2128
40 100 m 1x0120
 20 100 l 1
 20 120 l 1
 40 120 l 1
 40 100 l 1x0120
20 10 m 1x4128
 10 10 l 1
 10 40 l 1x6180
 20 40 l 1x6120
 20 50 l 1x1120
 30 50 l 1x1180
 30 60 l 1x2180
 70 60 l 1
 70 80 l 1
 30 80 l 1x1388
 30 70 l 1x0588
 20 70 l 1x0540
 20 60 l 1
 10 60 l 1x0940
 10 80 l 1x0980
 20 80 l 1x0920
 20 90 l 1x0520
 80 90 l 1
 80 80 l 1x0324
 90 80 l 1
 90 10 l 1x4308
 100 10 l 1
 100 0 l 1
 80 0 l 1
 80 10 l 1x4304
 70 10 l 1x4308
 70 0 l 1x8108
 20 0 l 1
 20 10 l 1x4128
70 100 m 1x0110
 50 100 l 1
 50 120 l 1
 70 120 l 1
 70 100 l 1x0110
EndSplineSet
Validated: 1
EndChar

StartChar: ccedilla
Encoding: 143 231 120
Width: 110
GlyphClass: 2
Flags: W
HStem: -10 10<30 50> 0 20<50 60> 10 10<40 50 60 70> 20 10<70 80> 30 10<80 90> 60 20<70 80> 60 10<80 90> 70 20<30 40 60 70> 80 10<40 60>
VStem: 10 20<30 70> 20 20<20 30 70 80> 30 20<-10 0> 50 10<0 10> 60 20<70 80> 70 10<20 30> 80 10<30 40>
LayerCount: 2
Fore
SplineSet
30 -10 m 1x8010
 30 0 l 1
 50 0 l 1x8010
 50 10 l 1xa008
 30 10 l 1xa010
 30 20 l 1x1010
 20 20 l 1x1020
 20 30 l 1x0820
 10 30 l 1
 10 70 l 1x0940
 20 70 l 1x0920
 20 80 l 1x00a0
 30 80 l 1x0090
 30 90 l 1
 70 90 l 1x0112
 70 80 l 1x0412
 80 80 l 1x0404
 80 70 l 1x0204
 90 70 l 1
 90 60 l 1x0201
 70 60 l 1x0402
 70 70 l 1x0102
 60 70 l 1x0104
 60 80 l 1
 40 80 l 1x00a4
 40 70 l 1x0124
 30 70 l 1
 30 30 l 1x0940
 40 30 l 1
 40 20 l 1
 70 20 l 1x2922
 70 30 l 1
 80 30 l 1x1022
 80 40 l 1
 90 40 l 1
 90 30 l 1x0801
 80 30 l 1
 80 20 l 1x1002
 70 20 l 1
 70 10 l 1
 60 10 l 1x200a
 60 0 l 1x400a
 50 0 l 1
 50 -10 l 1
 30 -10 l 1x8010
EndSplineSet
Validated: 5
EndChar

StartChar: egrave
Encoding: 144 232 121
Width: 110
GlyphClass: 2
Flags: W
HStem: 0 10<40 70> 10 10<70 80> 20 10<80 90> 40 10<30 70> 70 20<30 40 60 70> 80 10<40 60> 100 10<50 60> 110 10<30 40>
VStem: 10 20<20 40 50 70> 20 20<10 20 70 80> 30 20<110 120> 40 20<100 110> 60 20<70 80> 70 10<10 20> 80 10<20 30>
LayerCount: 2
Fore
SplineSet
40 70 m 1x1848
 30 70 l 1
 30 50 l 1
 70 50 l 1
 70 70 l 1x1884
 60 70 l 1x1808
 60 80 l 1
 40 80 l 1x1448
 40 70 l 1x1848
60 110 m 1x1210
 60 100 l 1
 40 100 l 1x1210
 40 110 l 1x1110
 30 110 l 1
 30 120 l 1
 50 120 l 1x1120
 50 110 l 1x1220
 60 110 l 1x1210
20 10 m 1x5040
 20 20 l 1x3040
 10 20 l 1
 10 70 l 1x3880
 20 70 l 1x3840
 20 80 l 1x1440
 30 80 l 1x1420
 30 90 l 1
 70 90 l 1x1824
 70 80 l 1x1424
 80 80 l 1x1408
 80 70 l 1x1808
 90 70 l 1
 90 40 l 1
 30 40 l 1
 30 20 l 1x3882
 40 20 l 1
 40 10 l 1
 70 10 l 1xb844
 70 20 l 1
 80 20 l 1x5044
 80 30 l 1
 90 30 l 1
 90 20 l 1x3002
 80 20 l 1
 80 10 l 1x5004
 70 10 l 1
 70 0 l 1
 30 0 l 1x9024
 30 10 l 1x5024
 20 10 l 1x5040
EndSplineSet
Validated: 5
EndChar

StartChar: eacute
Encoding: 145 233 122
Width: 110
GlyphClass: 2
Flags: W
HStem: 0 10<40 70> 10 10<70 80> 20 10<80 90> 40 10<30 70> 70 20<30 40 60 70> 80 10<40 60> 100 10<30 40> 110 10<50 60>
VStem: 10 20<20 40 50 70> 20 20<10 20 70 80> 30 20<100 110> 40 20<110 120> 60 20<70 80> 70 10<10 20> 80 10<20 30>
LayerCount: 2
Fore
SplineSet
40 70 m 1x1848
 30 70 l 1
 30 50 l 1
 70 50 l 1
 70 70 l 1x1884
 60 70 l 1x1808
 60 80 l 1
 40 80 l 1x1448
 40 70 l 1x1848
50 100 m 1x1220
 30 100 l 1
 30 110 l 1x1220
 40 110 l 1x1210
 40 120 l 1
 60 120 l 1
 60 110 l 1x1110
 50 110 l 1x1120
 50 100 l 1x1220
20 10 m 1x5040
 20 20 l 1x3040
 10 20 l 1
 10 70 l 1x3880
 20 70 l 1x3840
 20 80 l 1x1440
 30 80 l 1x1420
 30 90 l 1
 70 90 l 1x1824
 70 80 l 1x1424
 80 80 l 1x1408
 80 70 l 1x1808
 90 70 l 1
 90 40 l 1
 30 40 l 1
 30 20 l 1x3882
 40 20 l 1
 40 10 l 1
 70 10 l 1xb844
 70 20 l 1
 80 20 l 1x5044
 80 30 l 1
 90 30 l 1
 90 20 l 1x3002
 80 20 l 1
 80 10 l 1x5004
 70 10 l 1
 70 0 l 1
 30 0 l 1x9024
 30 10 l 1x5024
 20 10 l 1x5040
EndSplineSet
Validated: 5
EndChar

StartChar: ecircumflex
Encoding: 146 234 123
Width: 110
GlyphClass: 2
Flags: W
HStem: 0 10<40 70> 10 10<70 80> 20 10<80 90> 40 10<30 70> 70 20<30 40 60 70> 80 10<40 60> 100 10<20 30 60 70> 110 10<40 50>
VStem: 10 20<20 40 50 70> 20 20<10 20 70 80 100 110> 50 20<100 110> 60 20<70 80> 70 10<10 20> 80 10<20 30>
LayerCount: 2
Fore
SplineSet
40 70 m 1x1850
 30 70 l 1
 30 50 l 1
 70 50 l 1
 70 70 l 1x1888
 60 70 l 1x1810
 60 80 l 1
 40 80 l 1x1450
 40 70 l 1x1850
60 110 m 1x1290
 70 110 l 1
 70 100 l 1
 50 100 l 1x1220
 50 110 l 1
 40 110 l 1x1160
 40 100 l 1
 20 100 l 1
 20 110 l 1x1260
 30 110 l 1x1280
 30 120 l 1
 60 120 l 1x1190
 60 110 l 1x1290
20 10 m 1x5040
 20 20 l 1x3040
 10 20 l 1
 10 70 l 1x3880
 20 70 l 1x3840
 20 80 l 1x1440
 30 80 l 1x1480
 30 90 l 1
 70 90 l 1x1888
 70 80 l 1x1488
 80 80 l 1x1410
 80 70 l 1x1810
 90 70 l 1
 90 40 l 1
 30 40 l 1
 30 20 l 1x3884
 40 20 l 1
 40 10 l 1
 70 10 l 1xb848
 70 20 l 1
 80 20 l 1x5048
 80 30 l 1
 90 30 l 1
 90 20 l 1x3004
 80 20 l 1
 80 10 l 1x5008
 70 10 l 1
 70 0 l 1
 30 0 l 1x9088
 30 10 l 1x5088
 20 10 l 1x5040
EndSplineSet
Validated: 5
EndChar

StartChar: igrave
Encoding: 148 236 124
Width: 110
GlyphClass: 2
Flags: W
HStem: 0 10<20 40 60 80> 80 10<20 40> 100 10<50 60> 110 10<30 40>
VStem: 30 20<110 120> 40 20<10 80 100 110>
LayerCount: 2
Fore
SplineSet
30 110 m 1xd8
 30 120 l 1
 50 120 l 1xd8
 50 110 l 1xe8
 60 110 l 1
 60 100 l 1
 40 100 l 1xe4
 40 110 l 1xd4
 30 110 l 1xd8
80 0 m 1
 20 0 l 1
 20 10 l 1
 40 10 l 1
 40 80 l 1
 20 80 l 1
 20 90 l 1
 60 90 l 1
 60 10 l 1xc4
 80 10 l 1
 80 0 l 1
EndSplineSet
Validated: 1
EndChar

StartChar: iacute
Encoding: 149 237 125
Width: 110
GlyphClass: 2
Flags: W
HStem: 0 10<20 40 60 80> 80 10<20 40> 100 10<40 50> 110 10<60 70>
VStem: 40 20<10 80 100 110> 50 20<110 120>
LayerCount: 2
Fore
SplineSet
40 80 m 1xc8
 20 80 l 1
 20 90 l 1
 60 90 l 1
 60 10 l 1
 80 10 l 1
 80 0 l 1
 20 0 l 1
 20 10 l 1
 40 10 l 1
 40 80 l 1xc8
40 100 m 1xe8
 40 110 l 1xe8
 50 110 l 1xe4
 50 120 l 1
 70 120 l 1
 70 110 l 1xd4
 60 110 l 1xd8
 60 100 l 1
 40 100 l 1xe8
EndSplineSet
Validated: 1
EndChar

StartChar: ntilde
Encoding: 153 241 126
Width: 110
GlyphClass: 2
Flags: W
HStem: 0 10<0 10 30 40 60 70 90 100> 70 10<30 40> 80 10<0 10 40 60>
VStem: 10 20<10 70> 60 20<70 80> 70 20<10 70>
LayerCount: 2
Fore
SplineSet
10 80 m 1xb8
 0 80 l 1
 0 90 l 1
 30 90 l 1xb8
 30 80 l 1
 40 80 l 1xd8
 40 90 l 1
 70 90 l 1
 70 80 l 1xb4
 80 80 l 1xb8
 80 70 l 1xd8
 90 70 l 1
 90 10 l 1xd4
 100 10 l 1
 100 0 l 1
 60 0 l 1
 60 10 l 1xd8
 70 10 l 1
 70 70 l 1xd4
 60 70 l 1xd8
 60 80 l 1xb8
 40 80 l 1
 40 70 l 1
 30 70 l 1xd8
 30 10 l 1
 40 10 l 1
 40 0 l 1
 0 0 l 1
 0 10 l 1
 10 10 l 1
 10 80 l 1xb8
30 100 m 1
 30 110 l 1
 50 110 l 1
 50 100 l 1
 70 100 l 1
 70 110 l 1x94
 80 110 l 1
 80 120 l 1x98
 70 120 l 1
 70 110 l 1x94
 50 110 l 1
 50 120 l 1
 30 120 l 1
 30 110 l 1
 20 110 l 1
 20 100 l 1
 30 100 l 1
EndSplineSet
Validated: 5
EndChar

StartChar: ograve
Encoding: 154 242 127
Width: 110
GlyphClass: 2
Flags: W
HStem: 0 20<30 40 60 70> 0 10<40 60> 70 20<30 40 60 70> 80 10<40 60> 100 10<50 60> 110 10<30 40>
VStem: 10 20<20 70> 20 20<10 20 70 80> 30 20<110 120> 40 20<100 110> 60 20<10 20 70 80> 70 20<20 70>
LayerCount: 2
Fore
SplineSet
40 70 m 1x2120
 30 70 l 1
 30 20 l 1xa2
 40 20 l 1xa1
 40 10 l 1
 60 10 l 1x4120
 60 20 l 1x8120
 70 20 l 1
 70 70 l 1xa010
 60 70 l 1xa020
 60 80 l 1
 40 80 l 1x1120
 40 70 l 1x2120
40 110 m 1x0440
 30 110 l 1
 30 120 l 1
 50 120 l 1x0480
 50 110 l 1x0880
 60 110 l 1
 60 100 l 1
 40 100 l 1x0840
 40 110 l 1x0440
80 70 m 1x2020
 90 70 l 1
 90 20 l 1xa010
 80 20 l 1xa020
 80 10 l 1x4020
 70 10 l 1x4010
 70 0 l 1
 30 0 l 1x8090
 30 10 l 1x4090
 20 10 l 1x41
 20 20 l 1x81
 10 20 l 1
 10 70 l 1xa2
 20 70 l 1xa1
 20 80 l 1x11
 30 80 l 1x1080
 30 90 l 1
 70 90 l 1x2090
 70 80 l 1x1090
 80 80 l 1x1020
 80 70 l 1x2020
EndSplineSet
Validated: 1
EndChar

StartChar: oacute
Encoding: 155 243 128
Width: 110
GlyphClass: 2
Flags: W
HStem: 0 20<30 40 60 70> 0 10<40 60> 70 20<30 40 60 70> 80 10<40 60> 100 10<40 50> 110 10<60 70>
VStem: 10 20<20 70> 20 20<10 20 70 80> 40 20<100 110> 50 20<110 120> 60 20<10 20 70 80> 70 20<20 70>
LayerCount: 2
Fore
SplineSet
70 20 m 1x8010
 70 70 l 1xa010
 60 70 l 1xa020
 60 80 l 1
 40 80 l 1x1120
 40 70 l 1x2120
 30 70 l 1
 30 20 l 1xa2
 40 20 l 1xa1
 40 10 l 1
 60 10 l 1x4120
 60 20 l 1x8120
 70 20 l 1x8010
10 20 m 1x82
 10 70 l 1xa2
 20 70 l 1xa1
 20 80 l 1x11
 30 80 l 1x12
 30 90 l 1
 70 90 l 1x2210
 70 80 l 1x1210
 80 80 l 1x1020
 80 70 l 1x2020
 90 70 l 1
 90 20 l 1xa010
 80 20 l 1xa020
 80 10 l 1x4020
 70 10 l 1x4010
 70 0 l 1
 30 0 l 1x8210
 30 10 l 1x4210
 20 10 l 1x41
 20 20 l 1x81
 10 20 l 1x82
70 120 m 1x0440
 70 110 l 1x0440
 60 110 l 1x0480
 60 100 l 1
 40 100 l 1
 40 110 l 1x0880
 50 110 l 1x0840
 50 120 l 1
 70 120 l 1x0440
EndSplineSet
Validated: 1
EndChar

StartChar: ocircumflex
Encoding: 156 244 129
Width: 110
GlyphClass: 2
Flags: W
HStem: 0 20<30 40 60 70> 0 10<40 60> 70 20<30 40 60 70> 80 10<40 60> 100 10<20 30 60 70> 110 10<40 50>
VStem: 10 20<20 70> 20 20<10 20 70 80 100 110> 50 20<100 110> 60 20<10 20 70 80> 70 20<20 70>
LayerCount: 2
Fore
SplineSet
40 70 m 1x2140
 30 70 l 1
 30 20 l 1xa2
 40 20 l 1xa1
 40 10 l 1
 60 10 l 1x4140
 60 20 l 1x8140
 70 20 l 1
 70 70 l 1xa020
 60 70 l 1xa040
 60 80 l 1
 40 80 l 1x1140
 40 70 l 1x2140
60 110 m 1x0a40
 70 110 l 1
 70 100 l 1
 50 100 l 1x0880
 50 110 l 1
 40 110 l 1x0580
 40 100 l 1
 20 100 l 1
 20 110 l 1x0980
 30 110 l 1x0a
 30 120 l 1
 60 120 l 1x0640
 60 110 l 1x0a40
10 20 m 1x82
 10 70 l 1xa2
 20 70 l 1xa1
 20 80 l 1x11
 30 80 l 1x12
 30 90 l 1
 70 90 l 1x2220
 70 80 l 1x1220
 80 80 l 1x1040
 80 70 l 1x2040
 90 70 l 1
 90 20 l 1xa020
 80 20 l 1xa040
 80 10 l 1x4040
 70 10 l 1x4020
 70 0 l 1
 30 0 l 1x8220
 30 10 l 1x4220
 20 10 l 1x41
 20 20 l 1x81
 10 20 l 1x82
EndSplineSet
Validated: 1
EndChar

StartChar: odieresis
Encoding: 158 246 130
Width: 110
GlyphClass: 2
Flags: W
HStem: 0 20<30 40 60 70> 0 10<40 60> 70 20<30 40 60 70> 80 10<40 60> 100 20<20 40 60 80>
VStem: 10 20<20 70> 20 20<10 20 70 80 100 120> 60 20<10 20 70 80 100 120> 70 20<20 70>
LayerCount: 2
Fore
SplineSet
40 70 m 1x2b
 30 70 l 1
 30 20 l 1xac
 40 20 l 1xaa
 40 10 l 1
 60 10 l 1x4b
 60 20 l 1x8b
 70 20 l 1
 70 70 l 1xa880
 60 70 l 1xa9
 60 80 l 1
 40 80 l 1x1b
 40 70 l 1x2b
20 100 m 1x0a
 20 120 l 1
 40 120 l 1
 40 100 l 1
 20 100 l 1x0a
10 20 m 1x8c
 10 70 l 1xac
 20 70 l 1xaa
 20 80 l 1x1a
 30 80 l 1x1c
 30 90 l 1
 70 90 l 1x2c80
 70 80 l 1x1c80
 80 80 l 1x19
 80 70 l 1x29
 90 70 l 1
 90 20 l 1xa880
 80 20 l 1xa9
 80 10 l 1x49
 70 10 l 1x4880
 70 0 l 1
 30 0 l 1x8c80
 30 10 l 1x4c80
 20 10 l 1x4a
 20 20 l 1x8a
 10 20 l 1x8c
60 100 m 1x09
 60 120 l 1
 80 120 l 1
 80 100 l 1
 60 100 l 1x09
EndSplineSet
Validated: 1
EndChar

StartChar: divide
Encoding: 159 247 131
Width: 110
GlyphClass: 2
Flags: W
HStem: 0 30<40 60> 50 20<0 100> 90 30<40 60>
VStem: 40 20<0 30 90 120>
CounterMasks: 1 e0
LayerCount: 2
Fore
SplineSet
0 50 m 1
 0 70 l 1
 100 70 l 1
 100 50 l 1
 0 50 l 1
40 0 m 1
 40 30 l 1
 60 30 l 1
 60 0 l 1
 40 0 l 1
40 90 m 1
 40 120 l 1
 60 120 l 1
 60 90 l 1
 40 90 l 1
EndSplineSet
Validated: 1
AlternateSubs2: "'ssty' Math Script Style lookup 4 subtable" divide.ssty divide.ssty2
AlternateSubs2: "'aalt' Access All Alternates lookup 1 subtable" divide.ssty divide.ssty2
EndChar

StartChar: uacute
Encoding: 162 250 132
Width: 110
GlyphClass: 2
Flags: W
HStem: 0 10<40 60 90 100> 10 10<60 70> 80 10<0 10 60 70> 100 10<40 50> 110 10<60 70>
VStem: 10 20<20 80> 20 20<10 20> 40 20<100 110> 50 20<110 120> 60 30<10 20 80 90> 70 20<20 80>
LayerCount: 2
Fore
SplineSet
10 20 m 1x64
 10 80 l 1
 0 80 l 1
 0 90 l 1
 30 90 l 1
 30 20 l 1x64
 40 20 l 1x62
 40 10 l 1
 60 10 l 1xa240
 60 20 l 1x6240
 70 20 l 1
 70 80 l 1x6020
 60 80 l 1
 60 90 l 1
 90 90 l 1
 90 10 l 1xa040
 100 10 l 1
 100 0 l 1
 70 0 l 1xa020
 70 10 l 1x6020
 60 10 l 1
 60 0 l 1
 30 0 l 1xa440
 30 10 l 1x6440
 20 10 l 1
 20 20 l 1x62
 10 20 l 1x64
60 100 m 1x31
 40 100 l 1
 40 110 l 1x31
 50 110 l 1x3080
 50 120 l 1
 70 120 l 1
 70 110 l 1x2880
 60 110 l 1x29
 60 100 l 1x31
EndSplineSet
Validated: 5
EndChar

StartChar: udieresis
Encoding: 164 252 133
Width: 110
GlyphClass: 2
Flags: W
HStem: 0 10<40 60 90 100> 10 10<60 70> 80 10<0 10 60 70> 100 20<20 40 60 80>
VStem: 10 20<20 80> 20 20<10 20 100 120> 60 20<100 120> 70 20<20 80>
LayerCount: 2
Fore
SplineSet
10 20 m 1x78
 10 80 l 1
 0 80 l 1
 0 90 l 1
 30 90 l 1
 30 20 l 1x78
 40 20 l 1x74
 40 10 l 1
 60 10 l 1xb6
 60 20 l 1x76
 70 20 l 1
 70 80 l 1x71
 60 80 l 1
 60 90 l 1x72
 90 90 l 1
 90 10 l 1
 100 10 l 1
 100 0 l 1
 70 0 l 1xb1
 70 10 l 1x71
 60 10 l 1
 60 0 l 1
 30 0 l 1xba
 30 10 l 1x7a
 20 10 l 1
 20 20 l 1x74
 10 20 l 1x78
60 100 m 1x32
 60 120 l 1
 80 120 l 1
 80 100 l 1
 60 100 l 1x32
20 100 m 1x34
 20 120 l 1
 40 120 l 1
 40 100 l 1
 20 100 l 1x34
EndSplineSet
Validated: 5
EndChar

StartChar: yacute
Encoding: 165 253 134
Width: 110
GlyphClass: 2
Flags: W
HStem: -10 10<30 40> 0 10<10 20> 20 20<60 70> 40 20<70 80> 60 30<20 30 80 90> 80 10<10 20 40 50 70 80 90 100> 100 10<50 60> 110 10<70 80>
VStem: 10 20<0 10> 20 20<70 80> 30 20<50 60> 40 20<0 10> 50 20<100 110> 50 10<10 20> 60 20<110 120> 70 10<40 60> 80 10<60 80>
LayerCount: 2
Fore
SplineSet
20 -10 m 1x8044
 20 0 l 1x4044
 10 0 l 1
 10 10 l 1
 30 10 l 1x4080
 30 0 l 1
 40 0 l 1x8090
 40 10 l 1x4090
 50 10 l 1
 50 20 l 1x6004
 40 20 l 1x6010
 40 40 l 1x1010
 30 40 l 1x1020
 30 60 l 1x0820
 20 60 l 1x0840
 20 80 l 1x0440
 10 80 l 1
 10 90 l 1x0480
 50 90 l 1
 50 80 l 1
 40 80 l 1
 40 70 l 1
 50 70 l 1x0444
 50 50 l 1
 60 50 l 1
 60 40 l 1x2422
 70 40 l 1x2401
 70 60 l 1
 80 60 l 1x1001
 80 80 l 1x140080
 70 80 l 1
 70 90 l 1x1401
 100 90 l 1
 100 80 l 1
 90 80 l 1x140080
 90 60 l 1x080080
 80 60 l 1
 80 40 l 1x1001
 70 40 l 1
 70 20 l 1
 60 20 l 1x2005
 60 0 l 1x6010
 50 0 l 1x6004
 50 -10 l 1
 20 -10 l 1x8044
70 100 m 1x0208
 50 100 l 1
 50 110 l 1x0208
 60 110 l 1x0202
 60 120 l 1
 80 120 l 1
 80 110 l 1x0102
 70 110 l 1x0108
 70 100 l 1x0208
EndSplineSet
Validated: 5
EndChar

StartChar: abreve
Encoding: 169 259 135
Width: 110
GlyphClass: 2
Flags: W
HStem: 0 20<60 70> 0 10<30 60 90 100> 40 20<30 40> 50 10<40 70> 60 20<10 20> 70 20<20 30> 80 10<30 70> 100 10<40 70> 110 10<30 40 70 80>
VStem: 10 20<10 40 70 80> 10 10<60 70> 20 20<40 50> 30 10<110 120> 70 20<20 50 60 80> 70 10<110 120> 80 20<0 10>
LayerCount: 2
Fore
SplineSet
40 50 m 1x9014
 40 40 l 1x2014
 30 40 l 1
 30 10 l 1
 60 10 l 1x6040
 60 20 l 1
 70 20 l 1
 70 50 l 1
 40 50 l 1x9014
30 70 m 1x0444
 20 70 l 1x0420
 20 60 l 1
 10 60 l 1x0820
 10 80 l 1x0840
 20 80 l 1x0810
 20 90 l 1x0410
 80 90 l 1
 80 80 l 1x0211
 90 80 l 1
 90 10 l 1x4204
 100 10 l 1
 100 0 l 1
 80 0 l 1
 80 10 l 1x4201
 70 10 l 1x4202
 70 0 l 1x8002
 20 0 l 1
 20 10 l 1x4012
 10 10 l 1
 10 40 l 1x6040
 20 40 l 1x6010
 20 50 l 1x1010
 30 50 l 1x1008
 30 60 l 1x2008
 70 60 l 1
 70 80 l 1
 30 80 l 1x1244
 30 70 l 1x0444
40 110 m 1x010a
 30 110 l 1
 30 120 l 1
 40 120 l 1x008a
 40 110 l 1
 70 110 l 1x010a
 70 120 l 1
 80 120 l 1
 80 110 l 1x008a
 70 110 l 1
 70 100 l 1
 40 100 l 1
 40 110 l 1x010a
EndSplineSet
Validated: 5
EndChar

StartChar: Aogonek
Encoding: 170 260 136
Width: 110
GlyphClass: 2
Flags: W
HStem: -10 10<80 100> 10 10<0 10 20 30 60 70 90 100> 40 10<30 60> 100 20<40 50>
VStem: 10 10<20 40> 20 10<50 70> 30 10<70 100> 50 20<70 100> 60 20<50 70> 70 20<20 40> 70 10<0 10> 80 20<-10 0>
LayerCount: 2
Fore
SplineSet
40 70 m 1xf3
 30 70 l 1
 30 50 l 1
 60 50 l 1
 60 70 l 1xf480
 50 70 l 1
 50 100 l 1
 40 100 l 1
 40 70 l 1xf3
80 -10 m 1xf010
 80 0 l 1
 70 0 l 1
 70 10 l 1xf020
 60 10 l 1
 60 20 l 1xf080
 70 20 l 1
 70 40 l 1
 20 40 l 1
 20 20 l 1
 30 20 l 1
 30 10 l 1
 0 10 l 1
 0 20 l 1
 10 20 l 1
 10 50 l 1xfa40
 20 50 l 1
 20 70 l 1
 30 70 l 1xf4
 30 100 l 1
 40 100 l 1
 40 120 l 1
 60 120 l 1
 60 100 l 1xf280
 70 100 l 1
 70 70 l 1xf1
 80 70 l 1
 80 50 l 1xf080
 90 50 l 1
 90 20 l 1xf040
 100 20 l 1
 100 10 l 1xf010
 80 10 l 1
 80 0 l 1xf020
 100 0 l 1
 100 -10 l 1
 80 -10 l 1xf010
EndSplineSet
Validated: 5
EndChar

StartChar: aogonek
Encoding: 171 261 137
Width: 110
GlyphClass: 2
Flags: W
HStem: -10 10<80 100> 10 10<30 60 90 100> 20 10<60 70> 50 20<30 40> 60 10<40 70> 70 20<10 20> 80 20<20 30> 90 10<30 70>
VStem: 10 20<20 50 80 90> 10 10<70 80> 20 20<50 60> 70 20<30 60 70 90> 70 10<0 10> 80 20<-10 0>
LayerCount: 2
Fore
SplineSet
40 50 m 1x9030
 30 50 l 1
 30 20 l 1
 60 20 l 1xd080
 60 30 l 1
 70 30 l 1
 70 60 l 1
 40 60 l 1xa830
 40 50 l 1x9030
80 -10 m 1xc104
 80 0 l 1
 70 0 l 1
 70 20 l 1xa008
 60 20 l 1
 60 10 l 1
 20 10 l 1xc028
 20 20 l 1xa028
 10 20 l 1
 10 50 l 1xb080
 20 50 l 1xb020
 20 60 l 1x8820
 30 60 l 1x8880
 30 70 l 1x9080
 70 70 l 1
 70 90 l 1
 30 90 l 1x8990
 30 80 l 1x8290
 20 80 l 1x8240
 20 70 l 1
 10 70 l 1x8440
 10 90 l 1x8480
 20 90 l 1x8420
 20 100 l 1x8220
 80 100 l 1
 80 90 l 1x8124
 90 90 l 1
 90 20 l 1xc110
 100 20 l 1
 100 10 l 1xc104
 80 10 l 1
 80 0 l 1xc108
 100 0 l 1
 100 -10 l 1
 80 -10 l 1xc104
EndSplineSet
Validated: 5
EndChar

StartChar: cacute
Encoding: 173 263 138
Width: 110
GlyphClass: 2
Flags: W
HStem: 0 10<40 70> 10 10<70 80> 20 10<80 90> 60 20<80 90> 70 20<30 40 60 70> 80 10<40 60>
VStem: 10 20<20 70> 20 20<10 20 70 80> 70 10<10 20> 80 10<20 30>
LayerCount: 2
Fore
SplineSet
20 20 m 1x21
 10 20 l 1
 10 70 l 1x2a
 20 70 l 1x29
 20 80 l 1x05
 30 80 l 1x06
 30 90 l 1x0a
 80 90 l 1x0640
 80 80 l 1
 90 80 l 1
 90 60 l 1x1240
 70 60 l 1x1080
 70 70 l 1
 60 70 l 1x0880
 60 80 l 1
 40 80 l 1x0580
 40 70 l 1x0980
 30 70 l 1
 30 20 l 1x2a
 40 20 l 1
 40 10 l 1
 70 10 l 1xa980
 70 20 l 1
 80 20 l 1x4180
 80 30 l 1
 90 30 l 1
 90 20 l 1x2040
 80 20 l 1
 80 10 l 1x4080
 70 10 l 1
 70 0 l 1
 30 0 l 1x8280
 30 10 l 1x4280
 20 10 l 1x41
 20 20 l 1x21
40 100 m 1x0180
 60 100 l 1
 60 110 l 1
 70 110 l 1
 70 120 l 1
 50 120 l 1
 50 110 l 1
 40 110 l 1
 40 100 l 1x0180
EndSplineSet
Validated: 5
EndChar

StartChar: Ccaron
Encoding: 174 268 139
Width: 110
GlyphClass: 2
Flags: W
HStem: 0 10<40 80> 10 10<80 90> 20 10<90 100> 60 20<20 30 80 90> 70 20<30 40 70 80> 80 10<40 70> 100 10<50 60> 110 10<30 40 70 80>
VStem: 0 20<30 60> 10 20<20 30 60 70> 20 20<10 20 70 80> 30 20<110 120> 60 20<110 120> 80 10<10 20> 90 10<20 30 50 60 80 90>
LayerCount: 2
Fore
SplineSet
90 20 m 1x4004
 90 10 l 1x4004
 80 10 l 1
 80 0 l 1
 30 0 l 1x8014
 30 10 l 1x4014
 20 10 l 1x4020
 20 20 l 1x2020
 10 20 l 1
 10 30 l 1x2040
 0 30 l 1
 0 60 l 1x3080
 10 60 l 1x3040
 10 70 l 1x0840
 20 70 l 1x0820
 20 80 l 1x1020
 30 80 l 1x1010
 30 90 l 1
 80 90 l 1x0814
 80 80 l 1x1014
 90 80 l 1x1002
 90 90 l 1
 100 90 l 1x0402
 100 50 l 1
 90 50 l 1
 90 60 l 1x1002
 80 60 l 1x1004
 80 70 l 1
 70 70 l 1x0804
 70 80 l 1
 40 80 l 1x0424
 40 70 l 1x0824
 30 70 l 1x0840
 30 60 l 1x1040
 20 60 l 1
 20 30 l 1x3080
 30 30 l 1
 30 20 l 1x3040
 40 20 l 1
 40 10 l 1
 80 10 l 1xb024
 80 20 l 1
 90 20 l 1x4024
 90 30 l 1
 100 30 l 1
 100 20 l 1x2002
 90 20 l 1x4004
60 120 m 1x0118
 80 120 l 1
 80 110 l 1
 70 110 l 1x0118
 70 100 l 1
 40 100 l 1x0228
 40 110 l 1x0128
 30 110 l 1
 30 120 l 1
 50 120 l 1x0110
 50 110 l 1
 60 110 l 1x0218
 60 120 l 1x0118
EndSplineSet
Validated: 5
EndChar

StartChar: ccaron
Encoding: 175 269 140
Width: 110
GlyphClass: 2
Flags: W
HStem: 0 10<40 70> 10 10<70 80> 20 10<80 90> 60 20<80 90> 70 20<30 40 60 70> 80 10<40 60> 100 10<40 50> 110 10<20 30 60 70>
VStem: 10 20<20 70> 20 20<10 20 70 80 110 120> 50 20<110 120> 70 10<10 20> 80 10<20 30>
LayerCount: 2
Fore
SplineSet
70 120 m 1x0160
 70 110 l 1
 60 110 l 1x0160
 60 100 l 1
 30 100 l 1x02a0
 30 110 l 1x01a0
 20 110 l 1
 20 120 l 1
 40 120 l 1x0140
 40 110 l 1
 50 110 l 1x0260
 50 120 l 1
 70 120 l 1x0160
80 10 m 1x4010
 70 10 l 1
 70 0 l 1
 30 0 l 1x8090
 30 10 l 1x4090
 20 10 l 1x4040
 20 20 l 1x2040
 10 20 l 1
 10 70 l 1x2880
 20 70 l 1x2840
 20 80 l 1x0440
 30 80 l 1x0480
 30 90 l 1x0880
 80 90 l 1x0488
 80 80 l 1
 90 80 l 1
 90 60 l 1x1088
 70 60 l 1x1010
 70 70 l 1
 60 70 l 1x0810
 60 80 l 1
 40 80 l 1x0450
 40 70 l 1x0850
 30 70 l 1
 30 20 l 1x2880
 40 20 l 1
 40 10 l 1
 70 10 l 1xa850
 70 20 l 1
 80 20 l 1x4050
 80 30 l 1
 90 30 l 1
 90 20 l 1x2008
 80 20 l 1
 80 10 l 1x4010
EndSplineSet
Validated: 5
EndChar

StartChar: dcroat
Encoding: 179 273 141
Width: 110
GlyphClass: 2
Flags: W
HStem: 0 10<40 60 90 100> 10 10<60 70> 70 10<60 70> 80 10<40 60> 100 20G<70 90> 100 10<50 70 90 100>
VStem: 10 20<20 70> 20 20<10 20 70 80> 30 30<0 10 80 90> 60 30<10 20 70 80> 70 20<20 70 80 100 110 120>
LayerCount: 2
Fore
SplineSet
60 80 m 1x6080
 40 80 l 1x11
 40 70 l 1x21
 30 70 l 1
 30 20 l 1x62
 40 20 l 1x61
 40 10 l 1x81
 60 10 l 1x8080
 60 20 l 1x4040
 70 20 l 1
 70 70 l 1x6020
 60 70 l 1x6040
 60 80 l 1x6080
30 10 m 1x40a0
 20 10 l 1
 20 20 l 1x41
 10 20 l 1
 10 70 l 1x62
 20 70 l 1x61
 20 80 l 1x11
 30 80 l 1
 30 90 l 1
 60 90 l 1x1080
 60 80 l 1
 70 80 l 1
 70 100 l 1x28a0
 50 100 l 1
 50 110 l 1
 70 110 l 1x04a0
 70 120 l 1
 90 120 l 1x08a0
 90 110 l 1
 100 110 l 1
 100 100 l 1x04a0
 90 100 l 1x08a0
 90 10 l 1x8840
 100 10 l 1
 100 0 l 1
 70 0 l 1x8820
 70 10 l 1x4020
 60 10 l 1
 60 0 l 1
 30 0 l 1x80a0
 30 10 l 1x40a0
EndSplineSet
Validated: 5
EndChar

StartChar: eogonek
Encoding: 182 281 142
Width: 110
GlyphClass: 2
Flags: W
HStem: -10 10<50 70> 0 20<40 50> 10 10<50 70> 20 10<70 80> 30 10<80 90> 50 20<80 90> 50 10<30 70> 70 20<30 40 60 70> 80 10<40 60>
VStem: 10 20<30 50 60 70> 20 20<20 30 70 80> 40 10<0 10> 50 20<-10 0> 60 20<70 80> 70 10<20 30> 80 10<30 40>
LayerCount: 2
Fore
SplineSet
40 70 m 1x0124
 30 70 l 1
 30 60 l 1
 70 60 l 1
 70 70 l 1x0342
 60 70 l 1x0304
 60 80 l 1
 40 80 l 1x00a4
 40 70 l 1x0124
50 -10 m 1xa008
 50 0 l 1xa010
 40 0 l 1x4010
 40 10 l 1
 30 10 l 1x2050
 30 20 l 1x1050
 20 20 l 1x1020
 20 30 l 1x0820
 10 30 l 1
 10 70 l 1x0940
 20 70 l 1x0920
 20 80 l 1x00a0
 30 80 l 1x00c0
 30 90 l 1
 70 90 l 1x0142
 70 80 l 1x00c2
 80 80 l 1
 80 70 l 1x0484
 90 70 l 1
 90 50 l 1x0481
 30 50 l 1
 30 30 l 1x0a41
 40 30 l 1
 40 20 l 1x4a20
 70 20 l 1x2022
 70 30 l 1
 80 30 l 1x1022
 80 40 l 1
 90 40 l 1
 90 30 l 1x0801
 80 30 l 1
 80 20 l 1x1002
 70 20 l 1
 70 10 l 1
 50 10 l 1
 50 0 l 1xa012
 70 0 l 1
 70 -10 l 1
 50 -10 l 1xa008
EndSplineSet
Validated: 5
EndChar

StartChar: ecaron
Encoding: 183 283 143
Width: 110
GlyphClass: 2
Flags: W
HStem: 0 10<40 70> 10 10<70 80> 20 10<80 90> 40 10<30 70> 70 20<30 40 60 70> 80 10<40 60> 100 10<40 50> 110 10<20 30 60 70>
VStem: 10 20<20 40 50 70> 20 20<10 20 70 80 110 120> 50 20<110 120> 60 20<70 80> 70 10<10 20> 80 10<20 30>
LayerCount: 2
Fore
SplineSet
40 70 m 1x1850
 30 70 l 1
 30 50 l 1
 70 50 l 1
 70 70 l 1x1888
 60 70 l 1x1810
 60 80 l 1
 40 80 l 1x1450
 40 70 l 1x1850
70 120 m 1x1160
 70 110 l 1x1160
 60 110 l 1x1110
 60 100 l 1
 30 100 l 1x1290
 30 110 l 1x1190
 20 110 l 1
 20 120 l 1
 40 120 l 1x1140
 40 110 l 1
 50 110 l 1x1260
 50 120 l 1
 70 120 l 1x1160
20 10 m 1x5040
 20 20 l 1x3040
 10 20 l 1
 10 70 l 1x3880
 20 70 l 1x3840
 20 80 l 1x1440
 30 80 l 1x1480
 30 90 l 1
 70 90 l 1x1888
 70 80 l 1x1488
 80 80 l 1x1410
 80 70 l 1x1810
 90 70 l 1
 90 40 l 1
 30 40 l 1
 30 20 l 1x3884
 40 20 l 1
 40 10 l 1
 70 10 l 1xb848
 70 20 l 1
 80 20 l 1x5048
 80 30 l 1
 90 30 l 1
 90 20 l 1x3004
 80 20 l 1
 80 10 l 1x5008
 70 10 l 1
 70 0 l 1
 30 0 l 1x9088
 30 10 l 1x5088
 20 10 l 1x5040
EndSplineSet
Validated: 5
EndChar

StartChar: dotlessi
Encoding: 186 305 144
Width: 110
GlyphClass: 2
Flags: W
HStem: 0 10<20 40 60 80> 80 10<20 40>
VStem: 40 20<10 80>
LayerCount: 2
Fore
SplineSet
20 0 m 1
 20 10 l 1
 40 10 l 1
 40 80 l 1
 20 80 l 1
 20 90 l 1
 60 90 l 1
 60 10 l 1
 80 10 l 1
 80 0 l 1
 20 0 l 1
EndSplineSet
Validated: 1
AlternateSubs2: "'ssty' Math Script Style lookup 4 subtable" dotlessi.ssty dotlessi.ssty2
AlternateSubs2: "'aalt' Access All Alternates lookup 1 subtable" dotlessi.ssty dotlessi.ssty2
EndChar

StartChar: lacute
Encoding: 188 314 145
Width: 110
GlyphClass: 2
Flags: W
HStem: 0 10<20 40 60 80> 90 10<30 40> 100 10<60 70> 110 10<80 90>
VStem: 40 20<10 90> 60 20<100 110> 70 20<110 120>
LayerCount: 2
Fore
SplineSet
60 100 m 1xa4
 60 10 l 1xa8
 80 10 l 1
 80 0 l 1xa4
 20 0 l 1
 20 10 l 1
 40 10 l 1
 40 90 l 1
 30 90 l 1
 30 100 l 1xc8
 60 100 l 1
 60 110 l 1xa4
 70 110 l 1xa2
 70 120 l 1
 90 120 l 1
 90 110 l 1x92
 80 110 l 1x94
 80 100 l 1
 60 100 l 1xa4
EndSplineSet
Validated: 5
EndChar

StartChar: lcaron
Encoding: 190 318 146
Width: 110
GlyphClass: 2
Flags: W
HStem: 0 10<20 40 60 80> 80 10<70 80> 100 20<70 80> 110 10<30 40>
VStem: 40 20<10 110> 70 10<80 90> 80 10<90 100>
LayerCount: 2
Fore
SplineSet
30 110 m 1xda
 30 120 l 1
 60 120 l 1
 60 10 l 1
 80 10 l 1
 80 0 l 1
 20 0 l 1
 20 10 l 1
 40 10 l 1
 40 110 l 1
 30 110 l 1xda
90 90 m 1
 80 90 l 1
 80 80 l 1
 70 80 l 1
 70 90 l 1
 80 90 l 1xdc
 80 100 l 1xea
 70 100 l 1
 70 120 l 1xec
 90 120 l 1
 90 90 l 1
EndSplineSet
Validated: 5
EndChar

StartChar: Lslash
Encoding: 191 321 147
Width: 110
GlyphClass: 2
Flags: W
HStem: 0 20<80 90> 0 10<0 10 30 80> 40 10<0 10> 60 10<30 40> 70 10<40 50> 80 10<50 60> 110 10<0 10 30 40>
VStem: 10 20<10 40 50 60 70 110> 40 10<70 80> 50 10<80 90> 80 20<10 20> 90 10<20 40>
LayerCount: 2
Fore
SplineSet
40 70 m 1x7390
 40 80 l 1
 50 80 l 1x2b90
 50 90 l 1
 60 90 l 1
 60 80 l 1x2740
 50 80 l 1
 50 70 l 1x2b80
 40 70 l 1
 40 60 l 1
 30 60 l 1
 30 10 l 1
 80 10 l 1x73a0
 80 20 l 1xa3a0
 90 20 l 1xa310
 90 40 l 1
 100 40 l 1
 100 0 l 1
 0 0 l 1
 0 10 l 1
 10 10 l 1
 10 40 l 1
 0 40 l 1
 0 50 l 1
 10 50 l 1
 10 110 l 1
 0 110 l 1
 0 120 l 1
 40 120 l 1
 40 110 l 1
 30 110 l 1
 30 70 l 1
 40 70 l 1x7390
EndSplineSet
Validated: 5
EndChar

StartChar: lslash
Encoding: 192 322 148
Width: 110
GlyphClass: 2
Flags: W
HStem: 0 10<20 40 60 80> 40 10<20 30> 50 10<30 40> 70 10<60 70> 80 10<70 80> 110 10<30 40>
VStem: 20 10<40 50> 30 30<50 60 110 120> 40 20<10 50 60 70 80 110> 70 10<80 90>
LayerCount: 2
Fore
SplineSet
20 40 m 1xc6c0
 20 50 l 1
 30 50 l 1xc6c0
 30 60 l 1xa540
 40 60 l 1
 40 110 l 1xa4c0
 30 110 l 1
 30 120 l 1
 60 120 l 1xa540
 60 80 l 1
 70 80 l 1xb4c0
 70 90 l 1
 80 90 l 1
 80 80 l 1x8cc0
 70 80 l 1
 70 70 l 1
 60 70 l 1
 60 10 l 1
 80 10 l 1
 80 0 l 1
 20 0 l 1
 20 10 l 1
 40 10 l 1
 40 50 l 1xb6c0
 30 50 l 1
 30 40 l 1
 20 40 l 1xc6c0
EndSplineSet
Validated: 5
EndChar

StartChar: nacute
Encoding: 194 324 149
Width: 110
GlyphClass: 2
Flags: W
HStem: 0 10<0 10 30 40 60 70 90 100> 70 10<30 40> 80 10<0 10 40 60> 100 10<30 40> 110 10<50 60>
VStem: 10 20<10 70> 30 20<100 110> 40 20<110 120> 60 20<70 80> 70 20<10 70>
LayerCount: 2
Fore
SplineSet
50 100 m 1x92
 30 100 l 1
 30 110 l 1x92
 40 110 l 1x91
 40 120 l 1
 60 120 l 1
 60 110 l 1x89
 50 110 l 1x8a
 50 100 l 1x92
10 10 m 1xc5
 10 80 l 1xa5
 0 80 l 1
 0 90 l 1
 30 90 l 1xa2
 30 80 l 1xc2
 40 80 l 1xc1
 40 90 l 1
 70 90 l 1
 70 80 l 1xa140
 80 80 l 1xa080
 80 70 l 1xc080
 90 70 l 1
 90 10 l 1xc040
 100 10 l 1
 100 0 l 1
 60 0 l 1
 60 10 l 1xc080
 70 10 l 1
 70 70 l 1xc040
 60 70 l 1xc080
 60 80 l 1xa080
 40 80 l 1
 40 70 l 1
 30 70 l 1
 30 10 l 1
 40 10 l 1
 40 0 l 1
 0 0 l 1
 0 10 l 1
 10 10 l 1xc5
EndSplineSet
Validated: 5
EndChar

StartChar: ncaron
Encoding: 196 328 150
Width: 110
GlyphClass: 2
Flags: W
HStem: 0 10<0 10 30 40 60 70 90 100> 70 10<30 40> 80 10<0 10 40 60> 100 10<40 50> 110 10<20 30 60 70>
VStem: 10 20<10 70> 20 20<110 120> 50 20<110 120> 60 20<70 80> 70 20<10 70>
LayerCount: 2
Fore
SplineSet
10 80 m 1xa4
 0 80 l 1
 0 90 l 1
 30 90 l 1xa4
 30 80 l 1xc4
 40 80 l 1xc2
 40 90 l 1
 70 90 l 1
 70 80 l 1xa240
 80 80 l 1xa080
 80 70 l 1xc080
 90 70 l 1
 90 10 l 1xc040
 100 10 l 1
 100 0 l 1
 60 0 l 1
 60 10 l 1xc080
 70 10 l 1
 70 70 l 1xc040
 60 70 l 1xc080
 60 80 l 1xa080
 40 80 l 1
 40 70 l 1xc280
 30 70 l 1
 30 10 l 1xc4
 40 10 l 1
 40 0 l 1xc2
 0 0 l 1
 0 10 l 1
 10 10 l 1
 10 80 l 1xa4
70 110 m 1x8b
 60 110 l 1x8880
 60 100 l 1
 30 100 l 1x9480
 30 110 l 1x8c80
 20 110 l 1
 20 120 l 1
 40 120 l 1x8a
 40 110 l 1
 50 110 l 1x93
 50 120 l 1
 70 120 l 1
 70 110 l 1x8b
EndSplineSet
Validated: 5
EndChar

StartChar: ohungarumlaut
Encoding: 198 337 151
Width: 110
GlyphClass: 2
Flags: W
HStem: 0 20<30 40 60 70> 0 10<40 60> 70 20<30 40 60 70> 80 10<40 60> 100 10<20 30 50 60> 110 10<40 50 70 80>
VStem: 10 20<20 70> 20 20<10 20 70 80 100 110> 30 20<110 120> 50 20<100 110> 60 20<10 20 70 80 110 120> 70 20<20 70>
LayerCount: 2
Fore
SplineSet
30 20 m 1xa2
 40 20 l 1xa1
 40 10 l 1
 60 10 l 1x4120
 60 20 l 1x8120
 70 20 l 1
 70 70 l 1xa010
 60 70 l 1xa020
 60 80 l 1
 40 80 l 1x1120
 40 70 l 1x2120
 30 70 l 1
 30 20 l 1xa2
80 120 m 1x04a0
 80 110 l 1x04a0
 70 110 l 1x0440
 70 100 l 1
 50 100 l 1x0840
 50 110 l 1x0880
 40 110 l 1x05
 40 100 l 1
 20 100 l 1
 20 110 l 1x09
 30 110 l 1x0880
 30 120 l 1
 50 120 l 1x0480
 50 110 l 1
 60 110 l 1x08a0
 60 120 l 1
 80 120 l 1x04a0
80 20 m 1xa020
 80 10 l 1x4020
 70 10 l 1x4010
 70 0 l 1
 30 0 l 1x8090
 30 10 l 1x4090
 20 10 l 1x41
 20 20 l 1x81
 10 20 l 1
 10 70 l 1xa2
 20 70 l 1xa1
 20 80 l 1x11
 30 80 l 1x1080
 30 90 l 1
 70 90 l 1x2090
 70 80 l 1x1090
 80 80 l 1x1020
 80 70 l 1x2020
 90 70 l 1
 90 20 l 1xa010
 80 20 l 1xa020
EndSplineSet
Validated: 5
EndChar

StartChar: Rcaron
Encoding: 203 344 152
Width: 110
GlyphClass: 2
Flags: W
HStem: 0 10<0 10 30 40 80 90> 10 10<90 100> 30 20<50 60> 60 20<80 90> 80 20<60 70> 90 20<40 50> 90 10<0 10> 110 10<20 30 60 70>
VStem: 10 20<10 40 50 90> 20 20<110 120> 50 20<30 40 110 120> 60 20<10 30 50 60 80 90> 70 20<0 10 60 80> 90 10<10 20>
LayerCount: 2
Fore
SplineSet
60 90 m 1x2210
 30 90 l 1
 30 50 l 1
 60 50 l 1
 60 60 l 1x3290
 70 60 l 1x3208
 70 80 l 1x2808
 60 80 l 1x2810
 60 90 l 1x2210
90 20 m 1x6004
 100 20 l 1
 100 10 l 1x6004
 90 10 l 1
 90 0 l 1
 70 0 l 1xa008
 70 10 l 1x6008
 60 10 l 1
 60 30 l 1x6010
 50 30 l 1
 50 40 l 1
 30 40 l 1
 30 10 l 1xa0a0
 40 10 l 1
 40 0 l 1xa040
 0 0 l 1
 0 10 l 1
 10 10 l 1
 10 90 l 1
 0 90 l 1
 0 100 l 1
 30 100 l 1
 30 110 l 1xa380
 20 110 l 1
 20 120 l 1
 40 120 l 1xa340
 40 110 l 1
 50 110 l 1x2460
 50 120 l 1
 70 120 l 1
 70 110 l 1x2160
 60 110 l 1
 60 100 l 1x2910
 70 100 l 1x2908
 70 90 l 1x2208
 80 90 l 1
 80 80 l 1x3210
 90 80 l 1
 90 60 l 1x3208
 80 60 l 1
 80 50 l 1x3210
 70 50 l 1x3208
 70 30 l 1x3220
 80 30 l 1
 80 10 l 1xb210
 90 10 l 1xb208
 90 20 l 1x6004
EndSplineSet
Validated: 5
EndChar

StartChar: rcaron
Encoding: 204 345 153
Width: 110
GlyphClass: 2
Flags: W
HStem: 0 10<20 30 50 60> 60 20<80 90> 70 10<50 60> 80 10<20 30 60 70> 100 10<40 50> 110 10<20 30 60 70>
VStem: 20 20<110 120> 30 30<70 80 100 110> 30 20<10 70> 50 20<110 120> 70 20<60 80>
LayerCount: 2
Fore
SplineSet
70 110 m 1x8640
 60 110 l 1x85
 60 100 l 1
 30 100 l 1x89
 30 110 l 1x85
 20 110 l 1
 20 120 l 1
 40 120 l 1x86
 40 110 l 1
 50 110 l 1x8a40
 50 120 l 1
 70 120 l 1
 70 110 l 1x8640
60 0 m 1
 20 0 l 1
 20 10 l 1xa2
 30 10 l 1xa080
 30 80 l 1x91
 20 80 l 1
 20 90 l 1
 50 90 l 1x9240
 50 80 l 1xa240
 60 80 l 1xa1
 60 90 l 1
 80 90 l 1x91
 80 80 l 1
 90 80 l 1
 90 60 l 1
 70 60 l 1xc120
 70 80 l 1x9120
 60 80 l 1
 60 70 l 1xa120
 50 70 l 1
 50 10 l 1xa080
 60 10 l 1
 60 0 l 1
EndSplineSet
Validated: 5
EndChar

StartChar: Sacute
Encoding: 205 346 154
Width: 110
GlyphClass: 2
Flags: W
HStem: 0 20<30 40 70 80> 0 10<40 70> 10 20<20 30> 20 20<90 100> 30 20<70 80> 40 20<40 70> 50 20<30 40> 60 20<10 20> 70 20<80 90> 80 20<30 40 70 80> 90 20<50 60> 90 10<40 50> 110 10<70 80>
VStem: 10 20<20 30 70 80> 10 10<0 10 30 40> 20 20<80 90> 50 20<100 110> 60 20<110 120> 70 20<10 20> 80 20<20 30 70 80> 90 10<60 70 90 100>
LayerCount: 2
Fore
SplineSet
20 90 m 1x0111
 30 90 l 1x0114
 30 100 l 1x0044
 50 100 l 1x001480
 50 110 l 1x002480
 60 110 l 1x002040
 60 120 l 1
 80 120 l 1
 80 110 l 1x000840
 70 110 l 1
 70 100 l 1
 80 100 l 1x004890
 80 90 l 1x008090
 90 90 l 1x008008
 90 100 l 1
 100 100 l 1
 100 60 l 1
 90 60 l 1x011008
 90 70 l 1x008008
 80 70 l 1x008010
 80 80 l 1x004010
 70 80 l 1x004020
 70 90 l 1
 40 90 l 1x001120
 40 80 l 1x004120
 30 80 l 1
 30 70 l 1x0244
 40 70 l 1x0241
 40 60 l 1
 70 60 l 1x040120
 70 50 l 1x080120
 90 50 l 1
 90 40 l 1
 100 40 l 1x120008
 100 20 l 1x120010
 90 20 l 1x120020
 90 10 l 1x200020
 80 10 l 1x200010
 80 0 l 1
 30 0 l 1x800410
 30 10 l 1x200410
 20 10 l 1x2002
 20 0 l 1
 10 0 l 1x4002
 10 40 l 1
 20 40 l 1
 20 30 l 1x2402
 30 30 l 1x2404
 30 20 l 1x8004
 40 20 l 1x8001
 40 10 l 1
 70 10 l 1x400120
 70 20 l 1x800120
 80 20 l 1
 80 30 l 1x880010
 70 30 l 1x880020
 70 40 l 1
 40 40 l 1x040120
 40 50 l 1
 20 50 l 1x020120
 20 60 l 1x010120
 10 60 l 1x0102
 10 80 l 1x0104
 20 80 l 1
 20 90 l 1x0111
EndSplineSet
Validated: 1
EndChar

StartChar: sacute
Encoding: 206 347 155
Width: 110
GlyphClass: 2
Flags: W
HStem: 0 10<30 70> 10 10<20 30> 30 20<50 70> 40 20<30 50> 70 10<70 80> 80 10<30 70>
VStem: 10 20<10 20 60 80> 10 10<0 10 20 30> 70 20<10 30 70 80> 80 10<60 70 80 90>
LayerCount: 2
Fore
SplineSet
10 50 m 1x2180
 10 80 l 1x26
 20 80 l 1
 20 90 l 1
 70 90 l 1x2580
 70 80 l 1x0980
 80 80 l 1x0840
 80 90 l 1
 90 90 l 1x0440
 90 60 l 1
 80 60 l 1
 80 70 l 1x1840
 70 70 l 1
 70 80 l 1x1880
 30 80 l 1
 30 60 l 1
 50 60 l 1x1680
 50 50 l 1
 80 50 l 1x2240
 80 40 l 1
 90 40 l 1x1240
 90 10 l 1x5080
 80 10 l 1x5040
 80 0 l 1
 30 0 l 1
 30 10 l 1x8240
 20 10 l 1x41
 20 0 l 1
 10 0 l 1x81
 10 30 l 1
 20 30 l 1
 20 20 l 1x61
 30 20 l 1x62
 30 10 l 1
 70 10 l 1
 70 30 l 1
 50 30 l 1xa280
 50 40 l 1
 20 40 l 1x1180
 20 50 l 1
 10 50 l 1x2180
60 110 m 1
 70 110 l 1
 70 120 l 1x0080
 50 120 l 1
 50 110 l 1
 40 110 l 1
 40 100 l 1
 60 100 l 1
 60 110 l 1
EndSplineSet
Validated: 5
EndChar

StartChar: Scaron
Encoding: 207 352 156
Width: 110
GlyphClass: 2
Flags: W
HStem: 0 20<30 40 70 80> 0 10<40 70> 10 20<20 30> 20 20<90 100> 30 20<70 80> 40 20<40 70> 50 20<30 40> 60 20<10 20> 70 20<80 90> 80 20<30 40 70 80> 90 30<40 50 60 70> 110 10<30 40 70 80>
VStem: 10 20<20 30 70 80> 10 10<0 10 30 40> 20 20<80 90> 30 20<110 120> 60 20<110 120> 70 20<10 20> 80 20<20 30 70 80> 90 10<60 70 90 100>
LayerCount: 2
Fore
SplineSet
20 90 m 1x0122
 30 90 l 1x0121
 30 100 l 1x0041
 40 100 l 1
 40 110 l 1x0052
 30 110 l 1
 30 120 l 1x0051
 50 120 l 1x0021
 50 110 l 1
 60 110 l 1x001180
 60 120 l 1x002180
 80 120 l 1
 80 110 l 1x001180
 70 110 l 1
 70 100 l 1x005040
 80 100 l 1x005020
 80 90 l 1x008020
 90 90 l 1x008010
 90 100 l 1
 100 100 l 1x004010
 100 60 l 1
 90 60 l 1x010010
 90 70 l 1x008010
 80 70 l 1x008020
 80 80 l 1x004020
 70 80 l 1x004040
 70 90 l 1
 40 90 l 1x002240
 40 80 l 1x004240
 30 80 l 1
 30 70 l 1x0248
 40 70 l 1x0242
 40 60 l 1
 70 60 l 1x040240
 70 50 l 1x080240
 90 50 l 1
 90 40 l 1
 100 40 l 1x120010
 100 20 l 1x120020
 90 20 l 1x120040
 90 10 l 1x200040
 80 10 l 1x200020
 80 0 l 1
 30 0 l 1x800120
 30 10 l 1
 20 10 l 1x200520
 20 0 l 1
 10 0 l 1x400520
 10 40 l 1
 20 40 l 1
 20 30 l 1x240520
 30 30 l 1x2408
 30 20 l 1x8008
 40 20 l 1x8002
 40 10 l 1
 70 10 l 1x400240
 70 20 l 1x800240
 80 20 l 1
 80 30 l 1x880020
 70 30 l 1x880040
 70 40 l 1
 40 40 l 1x040240
 40 50 l 1
 20 50 l 1x020240
 20 60 l 1x010240
 10 60 l 1x0104
 10 80 l 1x0108
 20 80 l 1
 20 90 l 1x0122
EndSplineSet
Validated: 1
EndChar

StartChar: scaron
Encoding: 208 353 157
Width: 110
GlyphClass: 2
Flags: W
HStem: 0 10<30 70> 10 10<20 30> 30 20<50 70> 40 20<30 50> 70 10<70 80> 80 10<30 70> 100 10<40 50> 110 10<20 30 60 70>
VStem: 10 20<10 20 60 80> 10 10<0 10 20 30> 20 20<110 120> 50 20<110 120> 70 20<10 30 70 80> 80 10<60 70 80 90>
LayerCount: 2
Fore
SplineSet
70 110 m 1x0130
 60 110 l 1x0130
 60 100 l 1
 30 100 l 1x0290
 30 110 l 1x0190
 20 110 l 1
 20 120 l 1
 40 120 l 1x0120
 40 110 l 1
 50 110 l 1x0230
 50 120 l 1
 70 120 l 1
 70 110 l 1x0130
20 50 m 1x2030
 10 50 l 1x2040
 10 80 l 1x2480
 20 80 l 1
 20 90 l 1
 70 90 l 1x2428
 70 80 l 1x0828
 80 80 l 1x0804
 80 90 l 1
 90 90 l 1x0404
 90 60 l 1
 80 60 l 1
 80 70 l 1x1804
 70 70 l 1
 70 80 l 1x1808
 30 80 l 1
 30 60 l 1
 50 60 l 1x1490
 50 50 l 1
 80 50 l 1x2094
 80 40 l 1
 90 40 l 1x1094
 90 10 l 1x5008
 80 10 l 1x5004
 80 0 l 1
 30 0 l 1
 30 10 l 1x8084
 20 10 l 1x4040
 20 0 l 1
 10 0 l 1x8040
 10 30 l 1
 20 30 l 1
 20 20 l 1x6040
 30 20 l 1x6080
 30 10 l 1
 70 10 l 1
 70 30 l 1xa088
 50 30 l 1xa010
 50 40 l 1
 20 40 l 1x1030
 20 50 l 1x2030
EndSplineSet
Validated: 5
EndChar

StartChar: tcaron
Encoding: 210 357 158
Width: 110
GlyphClass: 2
Flags: W
HStem: 0 20<60 70> 0 10<50 60> 10 20<70 80> 80 10<10 30 50 70 80 90> 100 20<80 90>
VStem: 30 20<10 80 90 110> 60 20<10 20> 70 10<20 30> 80 10<80 90> 90 10<90 100>
LayerCount: 2
Fore
SplineSet
80 30 m 1x3d
 80 10 l 1x3e
 70 10 l 1x3d
 70 0 l 1x9d
 40 0 l 1x5d
 40 10 l 1
 30 10 l 1
 30 80 l 1
 10 80 l 1
 10 90 l 1
 30 90 l 1
 30 110 l 1
 50 110 l 1
 50 90 l 1
 70 90 l 1
 70 80 l 1x3d
 50 80 l 1
 50 10 l 1
 60 10 l 1x5e
 60 20 l 1x9e
 70 20 l 1x9d
 70 30 l 1
 80 30 l 1x3d
80 80 m 1x1c80
 80 90 l 1
 90 90 l 1x1c80
 90 100 l 1x1c40
 80 100 l 1
 80 120 l 1x1c80
 100 120 l 1
 100 90 l 1x1c40
 90 90 l 1
 90 80 l 1
 80 80 l 1x1c80
EndSplineSet
Validated: 5
EndChar

StartChar: utilde
Encoding: 212 361 159
Width: 110
GlyphClass: 2
Flags: W
HStem: 0 10<40 60 90 100> 10 10<60 70> 80 10<0 10 60 70> 100 10<20 30 50 70> 110 10<30 50 70 80>
VStem: 10 20<20 80> 20 20<10 20> 20 10<100 110> 30 20<110 120> 60 30<10 20 80 90> 70 20<20 80> 70 10<110 120>
LayerCount: 2
Fore
SplineSet
20 20 m 1x62
 10 20 l 1
 10 80 l 1x64
 0 80 l 1
 0 90 l 1
 30 90 l 1x6080
 30 20 l 1x64
 40 20 l 1x62
 40 10 l 1
 60 10 l 1xa240
 60 20 l 1x6240
 70 20 l 1
 70 80 l 1x6020
 60 80 l 1
 60 90 l 1
 90 90 l 1
 90 10 l 1xa040
 100 10 l 1
 100 0 l 1
 70 0 l 1xa010
 70 10 l 1x6010
 60 10 l 1
 60 0 l 1
 30 0 l 1xa0c0
 30 10 l 1x60c0
 20 10 l 1
 20 20 l 1x62
50 110 m 1x3090
 30 110 l 1
 30 100 l 1
 20 100 l 1
 20 110 l 1
 30 110 l 1x31
 30 120 l 1
 50 120 l 1x2880
 50 110 l 1
 70 110 l 1x3090
 70 120 l 1
 80 120 l 1
 80 110 l 1x2890
 70 110 l 1
 70 100 l 1
 50 100 l 1
 50 110 l 1x3090
EndSplineSet
Validated: 5
EndChar

StartChar: uring
Encoding: 214 367 160
Width: 110
GlyphClass: 2
Flags: W
HStem: 0 10<40 60 90 100> 10 10<60 70> 80 10<0 10 60 70> 90 30<30 40 50 60> 110 10<40 50>
VStem: 10 20<20 80> 20 20<10 20> 30 10<100 110> 50 10<100 110> 60 30<10 20 80 90> 70 20<20 80>
LayerCount: 2
Fore
SplineSet
50 110 m 1x0980
 40 110 l 1
 40 100 l 1
 50 100 l 1
 50 110 l 1x0980
30 20 m 1x54
 40 20 l 1x52
 40 10 l 1
 60 10 l 1x8240
 60 20 l 1x4240
 70 20 l 1
 70 80 l 1x6020
 60 80 l 1
 60 90 l 1x6040
 30 90 l 1x1140
 30 20 l 1x54
70 0 m 1x9020
 70 10 l 1x4020
 60 10 l 1
 60 0 l 1
 30 0 l 1x8140
 30 10 l 1x4140
 20 10 l 1
 20 20 l 1x42
 10 20 l 1
 10 80 l 1
 0 80 l 1
 0 90 l 1x64
 30 90 l 1
 30 120 l 1
 60 120 l 1x1140
 60 90 l 1x2140
 90 90 l 1
 90 10 l 1x9140
 100 10 l 1
 100 0 l 1
 70 0 l 1x9020
EndSplineSet
Validated: 5
EndChar

StartChar: uhungarumlaut
Encoding: 216 369 161
Width: 110
GlyphClass: 2
Flags: W
HStem: 0 10<40 60 90 100> 10 10<60 70> 80 10<0 10 60 70> 100 10<20 30 50 60> 110 10<40 50 70 80>
VStem: 10 20<20 80> 20 20<10 20 100 110> 30 20<110 120> 60 20<110 120> 70 20<20 80>
LayerCount: 2
Fore
SplineSet
20 20 m 1x62
 10 20 l 1
 10 80 l 1x64
 0 80 l 1
 0 90 l 1
 30 90 l 1x61
 30 20 l 1x64
 40 20 l 1x62
 40 10 l 1
 60 10 l 1xa280
 60 20 l 1x6280
 70 20 l 1
 70 80 l 1x6040
 60 80 l 1
 60 90 l 1x6080
 90 90 l 1
 90 10 l 1
 100 10 l 1
 100 0 l 1
 70 0 l 1xa040
 70 10 l 1x6040
 60 10 l 1
 60 0 l 1
 30 0 l 1xa180
 30 10 l 1x6180
 20 10 l 1
 20 20 l 1x62
80 110 m 1x2980
 70 110 l 1x2840
 70 100 l 1
 50 100 l 1
 50 110 l 1x3140
 40 110 l 1x2a
 40 100 l 1
 20 100 l 1
 20 110 l 1x32
 30 110 l 1x31
 30 120 l 1
 50 120 l 1x29
 50 110 l 1
 60 110 l 1x3180
 60 120 l 1
 80 120 l 1
 80 110 l 1x2980
EndSplineSet
Validated: 5
EndChar

StartChar: zacute
Encoding: 219 378 162
Width: 110
GlyphClass: 2
Flags: W
HStem: 0 30<20 30 80 90> 0 20<70 80> 0 10<10 20 40 70> 60 30<10 20 70 80> 70 20<20 30> 80 10<30 60 80 90>
VStem: 10 20<70 80> 10 10<60 70> 20 20<10 20> 40 20<40 50> 60 20<70 80> 70 20<10 20> 80 10<20 30>
LayerCount: 2
Fore
SplineSet
10 0 m 1x2108
 10 10 l 1x2108
 20 10 l 1x2080
 20 30 l 1x8080
 30 30 l 1
 30 40 l 1
 40 40 l 1
 40 60 l 1
 50 60 l 1x9240
 50 70 l 1
 60 70 l 1x0820
 60 80 l 1
 30 80 l 1x0620
 30 70 l 1x0a20
 20 70 l 1x09
 20 60 l 1
 10 60 l 1
 10 90 l 1x11
 90 90 l 1
 90 80 l 1x0508
 80 80 l 1x0420
 80 60 l 1x1008
 70 60 l 1
 70 50 l 1
 60 50 l 1x1050
 60 30 l 1
 50 30 l 1x9020
 50 20 l 1
 40 20 l 1x40a0
 40 10 l 1
 70 10 l 1x2090
 70 20 l 1x4090
 80 20 l 1x4008
 80 30 l 1
 90 30 l 1
 90 0 l 1x8008
 10 0 l 1x2108
40 100 m 1x0050
 60 100 l 1
 60 110 l 1x0020
 70 110 l 1
 70 120 l 1
 50 120 l 1
 50 110 l 1
 40 110 l 1
 40 100 l 1x0050
EndSplineSet
Validated: 9
EndChar

StartChar: zdotaccent
Encoding: 221 380 163
Width: 110
GlyphClass: 2
Flags: W
HStem: 0 30<20 30 80 90> 0 20<70 80> 0 10<10 20 40 70> 60 30<10 20 70 80> 70 20<20 30> 80 10<30 60 80 90>
VStem: 10 20<70 80> 10 10<60 70> 20 20<10 20> 40 20<40 50> 60 20<70 80> 70 20<10 20> 80 10<20 30>
LayerCount: 2
Fore
SplineSet
10 0 m 1x2108
 10 10 l 1x2108
 20 10 l 1x2080
 20 30 l 1x8080
 30 30 l 1
 30 40 l 1
 40 40 l 1
 40 60 l 1
 50 60 l 1x9240
 50 70 l 1
 60 70 l 1x0820
 60 80 l 1
 30 80 l 1x0620
 30 70 l 1x0a20
 20 70 l 1x09
 20 60 l 1
 10 60 l 1
 10 90 l 1x11
 90 90 l 1
 90 80 l 1x0508
 80 80 l 1x0420
 80 60 l 1x1008
 70 60 l 1
 70 50 l 1
 60 50 l 1x1050
 60 30 l 1
 50 30 l 1x9020
 50 20 l 1
 40 20 l 1x40a0
 40 10 l 1
 70 10 l 1x2090
 70 20 l 1x4090
 80 20 l 1x4008
 80 30 l 1
 90 30 l 1
 90 0 l 1x8008
 10 0 l 1x2108
40 120 m 1x0040
 40 100 l 1x0040
 60 100 l 1
 60 120 l 1x0020
 40 120 l 1x0040
EndSplineSet
Validated: 9
EndChar

StartChar: Zcaron
Encoding: 222 381 164
Width: 110
GlyphClass: 2
Flags: W
HStem: 0 30<20 30 90 100> 0 20<10 20 80 90> 0 10<0 10 30 80> 20 20<30 40> 60 20<60 70> 70 30<0 10 70 80> 80 20<10 20 80 90> 90 20<40 50> 90 10<20 30 60 70 90 100> 110 10<20 30 60 70>
VStem: 0 20<80 90> 0 10<70 80> 10 20<10 20> 20 20<20 30 110 120> 30 20<30 40> 40 20<40 60> 50 20<60 70 110 120> 60 20<70 80> 70 20<80 90> 80 20<10 20> 90 10<20 30>
LayerCount: 2
Fore
SplineSet
10 70 m 1x0410
 0 70 l 1
 0 100 l 1x0410
 30 100 l 1
 30 110 l 1x00d2
 20 110 l 1
 20 120 l 1
 40 120 l 1x00c4
 40 110 l 1
 50 110 l 1x010480
 50 120 l 1
 70 120 l 1
 70 110 l 1x004480
 60 110 l 1
 60 100 l 1
 100 100 l 1
 100 90 l 1x00c048
 90 90 l 1x00c020
 90 80 l 1x020020
 80 80 l 1x020040
 80 70 l 1x040040
 70 70 l 1x040080
 70 60 l 1x080080
 60 60 l 1
 60 40 l 1x1801
 50 40 l 1x1802
 50 30 l 1x8002
 40 30 l 1x8004
 40 20 l 1x1004
 30 20 l 1
 30 10 l 1
 80 10 l 1x300810
 80 20 l 1x400810
 90 20 l 1x400008
 90 30 l 1
 100 30 l 1
 100 0 l 1x800008
 0 0 l 1
 0 10 l 1x201008
 10 10 l 1x2008
 10 20 l 1x4008
 20 20 l 1x4004
 20 30 l 1x8004
 30 30 l 1x8002
 30 40 l 1x1002
 40 40 l 1
 40 60 l 1x1801
 50 60 l 1x180080
 50 70 l 1x040080
 60 70 l 1x040040
 60 80 l 1x080040
 70 80 l 1
 70 90 l 1
 20 90 l 1x08a020
 20 80 l 1x022020
 10 80 l 1x0210
 10 70 l 1x0410
EndSplineSet
Validated: 1
EndChar

StartChar: zcaron
Encoding: 223 382 165
Width: 110
GlyphClass: 2
Flags: W
HStem: 0 30<20 30 80 90> 0 20<70 80> 0 10<10 20 40 70> 60 30<10 20 70 80> 70 20<20 30> 80 10<30 60 80 90> 100 10<50 60> 110 10<30 40 70 80>
VStem: 10 20<70 80> 10 10<60 70> 20 20<10 20> 30 20<110 120> 40 30<50 60 100 110> 40 20<40 50> 60 20<70 80 110 120> 70 20<10 20> 80 10<20 30>
LayerCount: 2
Fore
SplineSet
10 0 m 1x204080
 10 10 l 1x204080
 20 10 l 1x2020
 20 30 l 1x8020
 30 30 l 1
 30 40 l 1x8010
 40 40 l 1x8004
 40 60 l 1x9008
 50 60 l 1x9010
 50 70 l 1
 60 70 l 1x0812
 60 80 l 1
 30 80 l 1x0482
 30 70 l 1x0882
 20 70 l 1x0840
 20 60 l 1
 10 60 l 1
 10 90 l 1x1040
 90 90 l 1
 90 80 l 1x044080
 80 80 l 1x0402
 80 60 l 1
 70 60 l 1
 70 50 l 1x100880
 60 50 l 1x1004
 60 30 l 1
 50 30 l 1x9012
 50 20 l 1x4012
 40 20 l 1x4020
 40 10 l 1
 70 10 l 1x2021
 70 20 l 1x4021
 80 20 l 1x400080
 80 30 l 1
 90 30 l 1
 90 0 l 1x800080
 10 0 l 1x204080
80 110 m 1x0112
 70 110 l 1x0108
 70 100 l 1
 40 100 l 1x0208
 40 110 l 1x0108
 30 110 l 1
 30 120 l 1
 50 120 l 1x0110
 50 110 l 1
 60 110 l 1x0212
 60 120 l 1
 80 120 l 1
 80 110 l 1x0112
EndSplineSet
Validated: 1
EndChar

StartChar: ohorn
Encoding: 226 417 166
Width: 110
GlyphClass: 2
Flags: W
HStem: 0 20<30 40 60 70> 0 10<40 60> 70 20<30 40 60 70 90 100> 80 10<40 60>
VStem: 10 20<20 70> 20 20<10 20 70 80> 60 20<10 20 70 80> 70 20<20 70> 90 10<70 90>
LayerCount: 2
Fore
SplineSet
40 70 m 1x26
 30 70 l 1
 30 20 l 1xa8
 40 20 l 1xa4
 40 10 l 1
 60 10 l 1x46
 60 20 l 1x86
 70 20 l 1
 70 70 l 1xa1
 60 70 l 1xa2
 60 80 l 1
 40 80 l 1x16
 40 70 l 1x26
20 10 m 1x44
 20 20 l 1x84
 10 20 l 1
 10 70 l 1xa8
 20 70 l 1xa4
 20 80 l 1x14
 30 80 l 1x18
 30 90 l 1
 70 90 l 1x29
 70 80 l 1x19
 80 80 l 1x12
 80 70 l 1x22
 90 70 l 1x21
 90 90 l 1
 100 90 l 1
 100 70 l 1x2080
 90 70 l 1
 90 20 l 1xa1
 80 20 l 1xa2
 80 10 l 1x42
 70 10 l 1x41
 70 0 l 1
 30 0 l 1x89
 30 10 l 1x49
 20 10 l 1x44
EndSplineSet
Validated: 5
EndChar

StartChar: uhorn
Encoding: 228 432 167
Width: 110
GlyphClass: 2
Flags: W
HStem: 0 10<30 50 80 90> 10 10<50 60> 60 10<80 90> 70 20<90 100> 80 10<0 10 50 60>
VStem: 10 20<10 80> 50 30<10 20 80 90> 60 30<0 10 60 70> 60 20<20 60 70 80> 90 10<70 90>
LayerCount: 2
Fore
SplineSet
10 80 m 1x4e
 0 80 l 1
 0 90 l 1
 30 90 l 1
 30 10 l 1
 50 10 l 1x8e
 50 20 l 1x46
 60 20 l 1
 60 80 l 1x4c80
 50 80 l 1
 50 90 l 1
 80 90 l 1x4e
 80 70 l 1x6c80
 90 70 l 1x6d
 90 90 l 1
 100 90 l 1
 100 70 l 1x1440
 90 70 l 1
 90 60 l 1x25
 80 60 l 1x2480
 80 10 l 1xa6
 90 10 l 1
 90 0 l 1
 60 0 l 1xa5
 60 10 l 1x45
 50 10 l 1
 50 0 l 1
 20 0 l 1x86
 20 10 l 1
 10 10 l 1
 10 80 l 1x4e
EndSplineSet
Validated: 5
EndChar

StartChar: uni0237
Encoding: 235 567 168
Width: 110
GlyphClass: 2
Flags: W
HStem: -10 10<40 60> 0 20<20 30> 80 10<40 60>
VStem: 20 20<0 20> 60 20<0 80>
LayerCount: 2
Fore
SplineSet
80 90 m 1xb8
 80 0 l 1
 70 0 l 1x78
 70 -10 l 1
 30 -10 l 1xb8
 30 0 l 1
 20 0 l 1
 20 20 l 1
 40 20 l 1x78
 40 0 l 1
 60 0 l 1
 60 80 l 1
 40 80 l 1
 40 90 l 1
 80 90 l 1xb8
EndSplineSet
Validated: 1
AlternateSubs2: "'ssty' Math Script Style lookup 4 subtable" dotlessj.ssty dotlessj.ssty2
AlternateSubs2: "'aalt' Access All Alternates lookup 1 subtable" dotlessj.ssty dotlessj.ssty2
EndChar

StartChar: uni026A
Encoding: 236 618 169
Width: 110
GlyphClass: 2
Flags: W
HStem: -10 10<20 30 50 60> 50 10<20 30 50 60>
VStem: 30 20<0 50>
LayerCount: 2
Fore
SplineSet
60 -10 m 1
 20 -10 l 1
 20 0 l 1
 30 0 l 1
 30 50 l 1
 20 50 l 1
 20 60 l 1
 60 60 l 1
 60 50 l 1
 50 50 l 1
 50 0 l 1
 60 0 l 1
 60 -10 l 1
EndSplineSet
Validated: 1
AlternateSubs2: "'ssty' Math Script Style lookup 4 subtable" Ismall.ssty Ismall.ssty2
AlternateSubs2: "'aalt' Access All Alternates lookup 1 subtable" Ismall.ssty Ismall.ssty2
EndChar

StartChar: uni0274
Encoding: 237 628 170
Width: 110
GlyphClass: 2
Flags: W
HStem: -10 10<10 20 30 40> 50 10<10 20 50 60 70 80>
VStem: 10 20<50 60> 20 20<40 50> 20 10<0 20> 50 20<0 10> 60 10<-10 0 30 50>
LayerCount: 2
Fore
SplineSet
10 -10 m 1xe0
 10 0 l 1xe0
 20 0 l 1xc8
 20 50 l 1xd0
 10 50 l 1
 10 60 l 1
 30 60 l 1
 30 50 l 1xe0
 40 50 l 1
 40 40 l 1
 50 40 l 1
 50 30 l 1xd4
 60 30 l 1
 60 50 l 1xc2
 50 50 l 1
 50 60 l 1xc4
 80 60 l 1
 80 50 l 1
 70 50 l 1
 70 -10 l 1
 60 -10 l 1
 60 0 l 1xc2
 50 0 l 1
 50 10 l 1
 40 10 l 1
 40 20 l 1xd4
 30 20 l 1
 30 0 l 1xc8
 40 0 l 1
 40 -10 l 1xd0
 10 -10 l 1xe0
EndSplineSet
Validated: 1
AlternateSubs2: "'ssty' Math Script Style lookup 4 subtable" Nsmall.ssty Nsmall.ssty2
AlternateSubs2: "'aalt' Access All Alternates lookup 1 subtable" Nsmall.ssty Nsmall.ssty2
EndChar

StartChar: uni0299
Encoding: 238 665 171
Width: 110
GlyphClass: 2
Flags: W
HStem: -10 10<10 20 40 60> 0 20<70 80> 20 10<40 60> 30 20<70 80> 50 10<10 20 40 60>
VStem: 20 20<0 20 30 50> 60 20<0 20 30 50>
LayerCount: 2
Fore
SplineSet
10 50 m 1x8e
 10 60 l 1
 70 60 l 1x8e
 70 50 l 1
 80 50 l 1
 80 30 l 1
 70 30 l 1
 70 20 l 1
 80 20 l 1
 80 0 l 1
 70 0 l 1x56
 70 -10 l 1
 10 -10 l 1
 10 0 l 1
 20 0 l 1
 20 50 l 1
 10 50 l 1x8e
60 20 m 1xa6
 40 20 l 1
 40 0 l 1
 60 0 l 1
 60 20 l 1xa6
40 50 m 1x2e
 40 30 l 1
 60 30 l 1
 60 50 l 1
 40 50 l 1x2e
EndSplineSet
Validated: 1
AlternateSubs2: "'ssty' Math Script Style lookup 4 subtable" Bsmall.ssty Bsmall.ssty2
AlternateSubs2: "'aalt' Access All Alternates lookup 1 subtable" Bsmall.ssty Bsmall.ssty2
EndChar

StartChar: uni02B3
Encoding: 239 691 172
Width: 110
GlyphClass: 2
Flags: W
HStem: 60 10<10 20 40 50> 100 10<40 50 70 80> 110 10<50 60> 111 9<10 20>
VStem: 20 20<70 100 110 111> 60 20<100 110>
LayerCount: 2
Fore
SplineSet
10 120 m 1xdc
 40 120 l 1
 40 110 l 1
 50 110 l 1xdc
 50 120 l 1xac
 70 120 l 1
 70 110 l 1
 80 110 l 1
 80 100 l 1
 60 100 l 1xdc
 60 110 l 1xac
 50 110 l 1
 50 100 l 1
 40 100 l 1
 40 70 l 1
 50 70 l 1
 50 60 l 1
 10 60 l 1
 10 70 l 1
 20 70 l 1
 20 111 l 1
 10 111 l 1
 10 120 l 1xdc
EndSplineSet
Validated: 5
AlternateSubs2: "'ssty' Math Script Style lookup 4 subtable" rsupmod.ssty rsupmod.ssty2
AlternateSubs2: "'aalt' Access All Alternates lookup 1 subtable" rsupmod.ssty rsupmod.ssty2
EndChar

StartChar: uni1D00
Encoding: 318 7424 173
Width: 110
GlyphClass: 2
Flags: W
HStem: -10 10<10 20 30 40 50 60 80 90> 10 10<40 50>
VStem: 20 10<0 10> 30 10<20 30> 40 20<40 60> 50 20<20 30> 60 20<0 10>
LayerCount: 2
Fore
SplineSet
40 -10 m 1xe8
 10 -10 l 1
 10 0 l 1
 20 0 l 1
 20 20 l 1xe8
 30 20 l 1
 30 40 l 1xd0
 40 40 l 1
 40 60 l 1
 60 60 l 1
 60 40 l 1xc8
 70 40 l 1
 70 20 l 1xc4
 80 20 l 1
 80 0 l 1xc2
 90 0 l 1
 90 -10 l 1
 50 -10 l 1
 50 0 l 1xc4
 60 0 l 1
 60 10 l 1xc2
 30 10 l 1
 30 0 l 1
 40 0 l 1
 40 -10 l 1xe8
50 30 m 1xd4
 40 30 l 1
 40 20 l 1
 50 20 l 1
 50 30 l 1xd4
EndSplineSet
Validated: 1
AlternateSubs2: "'ssty' Math Script Style lookup 4 subtable" Asmall.ssty Asmall.ssty2
AlternateSubs2: "'aalt' Access All Alternates lookup 1 subtable" Asmall.ssty Asmall.ssty2
EndChar

StartChar: uni1D04
Encoding: 319 7428 174
Width: 110
GlyphClass: 2
Flags: W
HStem: -10 10<40 70> 0 10<70 80> 40 10<60 70> 50 10<40 60>
VStem: 10 20<10 40> 20 20<0 10 40 50> 60 20<40 50> 70 10<0 10 50 60>
LayerCount: 2
Fore
SplineSet
30 -10 m 1x89
 30 0 l 1x49
 20 0 l 1
 20 10 l 1x44
 10 10 l 1
 10 40 l 1x68
 20 40 l 1x64
 20 50 l 1x14
 30 50 l 1
 30 60 l 1
 60 60 l 1x1a
 60 50 l 1x2a
 70 50 l 1x21
 70 60 l 1
 80 60 l 1x11
 80 40 l 1
 60 40 l 1
 60 50 l 1x22
 40 50 l 1x16
 40 40 l 1x26
 30 40 l 1
 30 10 l 1x68
 40 10 l 1x64
 40 0 l 1
 70 0 l 1x85
 70 10 l 1
 80 10 l 1
 80 0 l 1x45
 70 0 l 1
 70 -10 l 1
 30 -10 l 1x89
EndSplineSet
Validated: 5
AlternateSubs2: "'ssty' Math Script Style lookup 4 subtable" Csmall.ssty Csmall.ssty2
AlternateSubs2: "'aalt' Access All Alternates lookup 1 subtable" Csmall.ssty Csmall.ssty2
EndChar

StartChar: uni1D0A
Encoding: 320 7434 175
Width: 110
GlyphClass: 2
Flags: W
HStem: -10 10<30 50> 0 20<10 20> 50 10<40 50 70 80>
VStem: 10 20<0 20> 50 20<0 50>
LayerCount: 2
Fore
SplineSet
10 20 m 1x78
 30 20 l 1x78
 30 0 l 1
 50 0 l 1xb8
 50 50 l 1
 40 50 l 1
 40 60 l 1
 80 60 l 1
 80 50 l 1
 70 50 l 1
 70 0 l 1
 60 0 l 1x78
 60 -10 l 1
 20 -10 l 1xb8
 20 0 l 1
 10 0 l 1
 10 20 l 1x78
EndSplineSet
Validated: 1
AlternateSubs2: "'ssty' Math Script Style lookup 4 subtable" Jsmall.ssty Jsmall.ssty2
AlternateSubs2: "'aalt' Access All Alternates lookup 1 subtable" Jsmall.ssty Jsmall.ssty2
EndChar

StartChar: uni1D0B
Encoding: 321 7435 176
Width: 110
GlyphClass: 2
Flags: W
HStem: -10 20<70 80> -10 10<10 20 40 50 80 90> 20 10<40 50> 40 20<70 80> 50 10<10 20 40 50 80 90>
VStem: 20 20<0 20 30 50> 50 20<10 20 30 40> 60 30<-10 0 50 60> 60 20<0 10 40 50>
LayerCount: 2
Fore
SplineSet
10 -10 m 1x66
 10 0 l 1
 20 0 l 1
 20 50 l 1
 10 50 l 1
 10 60 l 1
 50 60 l 1
 50 50 l 1
 40 50 l 1x6e
 40 30 l 1
 50 30 l 1
 50 40 l 1x36
 60 40 l 1x3480
 60 60 l 1
 90 60 l 1
 90 50 l 1x2d
 80 50 l 1x2c80
 80 40 l 1x3480
 70 40 l 1
 70 30 l 1x36
 60 30 l 1
 60 20 l 1x3480
 70 20 l 1
 70 10 l 1xb6
 80 10 l 1xb480
 80 0 l 1x6480
 90 0 l 1
 90 -10 l 1
 60 -10 l 1x65
 60 10 l 1xa480
 50 10 l 1xa6
 50 20 l 1
 40 20 l 1
 40 0 l 1
 50 0 l 1
 50 -10 l 1
 10 -10 l 1x66
EndSplineSet
Validated: 1
AlternateSubs2: "'ssty' Math Script Style lookup 4 subtable" Ksmall.ssty Ksmall.ssty2
AlternateSubs2: "'aalt' Access All Alternates lookup 1 subtable" Ksmall.ssty Ksmall.ssty2
EndChar

StartChar: uni1D18
Encoding: 322 7448 177
Width: 110
GlyphClass: 2
Flags: W
HStem: -10 10<10 20 40 50> 20 10<40 60> 30 20<70 80> 50 10<10 20 40 60>
VStem: 20 20<0 20 30 50> 60 20<30 50>
LayerCount: 2
Fore
SplineSet
10 60 m 1xdc
 70 60 l 1xdc
 70 50 l 1
 80 50 l 1
 80 30 l 1
 70 30 l 1xac
 70 20 l 1
 40 20 l 1
 40 0 l 1
 50 0 l 1
 50 -10 l 1
 10 -10 l 1
 10 0 l 1
 20 0 l 1
 20 50 l 1
 10 50 l 1
 10 60 l 1xdc
60 50 m 1
 40 50 l 1
 40 30 l 1
 60 30 l 1
 60 50 l 1
EndSplineSet
Validated: 1
AlternateSubs2: "'ssty' Math Script Style lookup 4 subtable" Psmall.ssty Psmall.ssty2
AlternateSubs2: "'aalt' Access All Alternates lookup 1 subtable" Psmall.ssty Psmall.ssty2
EndChar

StartChar: uni1D1B
Encoding: 323 7451 178
Width: 110
GlyphClass: 2
Flags: W
HStem: -10 10<20 30 50 60> 40 20<10 20 60 70> 50 10<20 30 50 60>
VStem: 10 10<40 50> 30 20<0 50> 60 10<40 50>
CounterMasks: 1 1c
LayerCount: 2
Fore
SplineSet
60 -10 m 1xbc
 20 -10 l 1
 20 0 l 1
 30 0 l 1
 30 50 l 1
 20 50 l 1xbc
 20 40 l 1
 10 40 l 1
 10 60 l 1
 70 60 l 1
 70 40 l 1
 60 40 l 1xdc
 60 50 l 1
 50 50 l 1
 50 0 l 1
 60 0 l 1
 60 -10 l 1xbc
EndSplineSet
Validated: 1
AlternateSubs2: "'ssty' Math Script Style lookup 4 subtable" Tsmall.ssty Tsmall.ssty2
AlternateSubs2: "'aalt' Access All Alternates lookup 1 subtable" Tsmall.ssty Tsmall.ssty2
EndChar

StartChar: uni1D4D
Encoding: 324 7501 179
Width: 110
GlyphClass: 2
Flags: W
HStem: 50 10<30 50> 60 10<10 20 70 80> 70 10<40 50> 90 30<20 30 40 60> 100 10<10 20 60 70> 110 10<30 40 70 80>
VStem: 10 20<60 70 100 110> 30 10<80 90> 70 10<110 120>
LayerCount: 2
Fore
SplineSet
10 110 m 1x0a80
 20 110 l 1x0a80
 20 120 l 1
 60 120 l 1x1280
 60 110 l 1
 70 110 l 1x0a80
 70 120 l 1
 80 120 l 1
 80 110 l 1x0680
 70 110 l 1
 70 100 l 1
 60 100 l 1x0a80
 60 90 l 1
 40 90 l 1
 40 80 l 1
 70 80 l 1x3180
 70 70 l 1
 80 70 l 1
 80 60 l 1
 70 60 l 1x4180
 70 50 l 1
 20 50 l 1x8180
 20 60 l 1
 10 60 l 1
 10 70 l 1
 20 70 l 1x4280
 20 80 l 1
 30 80 l 1
 30 90 l 1
 20 90 l 1x3180
 20 100 l 1
 10 100 l 1
 10 110 l 1x0a80
30 70 m 1xa280
 30 60 l 1
 50 60 l 1
 50 70 l 1
 30 70 l 1xa280
40 110 m 1x0580
 30 110 l 1x0680
 30 100 l 1x0a80
 40 100 l 1x0980
 40 110 l 1x0580
EndSplineSet
Validated: 5
AlternateSubs2: "'ssty' Math Script Style lookup 4 subtable" gmod.ssty gmod.ssty2
AlternateSubs2: "'aalt' Access All Alternates lookup 1 subtable" gmod.ssty gmod.ssty2
EndChar

StartChar: uni1D64
Encoding: 325 7524 180
Width: 110
GlyphClass: 2
Flags: W
HStem: 0 10<40 60 80 90> 40 10<10 20 50 60>
VStem: 20 20<10 40> 60 20<10 40> 70 20<0 10>
LayerCount: 2
Fore
SplineSet
70 10 m 1xe8
 60 10 l 1
 60 40 l 1
 50 40 l 1
 50 50 l 1
 80 50 l 1
 80 10 l 1xf0
 90 10 l 1
 90 0 l 1
 70 0 l 1
 70 10 l 1xe8
20 10 m 1
 20 40 l 1
 10 40 l 1
 10 50 l 1
 40 50 l 1
 40 10 l 1
 60 10 l 1
 60 0 l 1
 30 0 l 1
 30 10 l 1
 20 10 l 1
EndSplineSet
Validated: 5
AlternateSubs2: "'ssty' Math Script Style lookup 4 subtable" uinferior.ssty uinferior.ssty2
AlternateSubs2: "'aalt' Access All Alternates lookup 1 subtable" uinferior.ssty uinferior.ssty2
EndChar

StartChar: uni1EA1
Encoding: 327 7841 181
Width: 110
GlyphClass: 2
Flags: W
HStem: -10 10<40 60> 10 10<30 60 90 100> 20 20<10 20> 20 10<60 70> 40 20<30 40> 50 10<40 70> 60 20<10 20> 70 20<20 30> 80 10<30 70>
VStem: 10 20<20 40 70 80> 10 10<60 70> 20 20<40 50> 40 20<-10 0> 70 20<30 50 60 80> 80 20<10 20>
LayerCount: 2
Fore
SplineSet
40 40 m 1x8814
 30 40 l 1
 30 20 l 1
 60 20 l 1xc848
 60 30 l 1x9048
 70 30 l 1
 70 50 l 1
 40 50 l 1x9414
 40 40 l 1x8814
60 -10 m 1
 40 -10 l 1
 40 0 l 1
 60 0 l 1
 60 -10 l 1
20 20 m 1xa010
 10 20 l 1
 10 40 l 1xa040
 20 40 l 1
 20 50 l 1xa410
 30 50 l 1xa440
 30 60 l 1x8840
 70 60 l 1
 70 80 l 1
 30 80 l 1x84c4
 30 70 l 1x8144
 20 70 l 1x8120
 20 60 l 1
 10 60 l 1x8220
 10 80 l 1x8240
 20 80 l 1x8210
 20 90 l 1x8110
 80 90 l 1
 80 80 l 1x8092
 90 80 l 1
 90 20 l 1xc084
 100 20 l 1
 100 10 l 1
 80 10 l 1xc082
 80 20 l 1x9002
 60 20 l 1
 60 10 l 1xc00a
 20 10 l 1xc010
 20 20 l 1xa010
EndSplineSet
Validated: 5
EndChar

StartChar: uni1EA3
Encoding: 329 7843 182
Width: 110
GlyphClass: 2
Flags: W
HStem: 0 20<60 70> 0 10<30 60 90 100> 40 20<30 40> 50 10<40 70> 60 20<10 20> 70 20<20 30> 80 20<50 60> 80 10<30 50 60 70> 110 10<40 60>
VStem: 10 20<10 40 70 80> 10 10<60 70> 20 20<40 50> 40 20<110 120> 50 10<90 100> 60 10<100 110> 70 20<20 50 60 80> 80 20<0 10>
LayerCount: 2
Fore
SplineSet
40 50 m 1x9091
 40 40 l 1x2091
 30 40 l 1
 30 10 l 1
 60 10 l 1x60c2
 60 20 l 1x80c2
 70 20 l 1
 70 50 l 1
 40 50 l 1x9091
70 0 m 1x8081
 20 0 l 1
 20 10 l 1x4091
 10 10 l 1
 10 40 l 1x60c0
 20 40 l 1x6090
 20 50 l 1x1090
 30 50 l 1x10c0
 30 60 l 1x20c0
 70 60 l 1
 70 80 l 1
 30 80 l 1x11c1
 30 70 l 1x04c1
 20 70 l 1x04a0
 20 60 l 1
 10 60 l 1x08a0
 10 80 l 1x08c0
 20 80 l 1x0890
 20 90 l 1x0490
 50 90 l 1x0194
 50 100 l 1
 60 100 l 1x0294
 60 110 l 1
 40 110 l 1
 40 120 l 1
 60 120 l 1
 60 110 l 1x0288
 70 110 l 1
 70 100 l 1x0282
 60 100 l 1x0284
 60 90 l 1
 80 90 l 1
 80 80 l 1x018480
 90 80 l 1
 90 10 l 1x4181
 100 10 l 1
 100 0 l 1
 80 0 l 1
 80 10 l 1x418080
 70 10 l 1x4181
 70 0 l 1x8081
EndSplineSet
Validated: 5
EndChar

StartChar: uni1EA5
Encoding: 331 7845 183
Width: 110
GlyphClass: 2
Flags: W
HStem: 0 20<60 70> 0 10<30 60 90 100> 10 20<10 20> 30 20<30 40> 40 10<40 70> 50 20<10 20> 60 20<20 30> 70 10<30 70> 90 10<20 30 60 70> 100 10<40 50 70 80> 110 10<90 100>
VStem: 10 20<10 30 60 70> 10 10<50 60> 20 20<30 40 90 100> 50 20<90 100> 70 20<20 40 50 70 100 110> 80 20<0 10 110 120>
LayerCount: 2
Fore
SplineSet
70 40 m 1x8811
 40 40 l 1x8805
 40 30 l 1x1005
 30 30 l 1
 30 10 l 1
 60 10 l 1x5010
 60 20 l 1
 70 20 l 1
 70 40 l 1x8811
30 60 m 1x0211
 20 60 l 1x0208
 20 50 l 1
 10 50 l 1x0408
 10 70 l 1x0410
 20 70 l 1x0404
 20 80 l 1x0204
 80 80 l 1
 80 70 l 1x010480
 90 70 l 1
 90 10 l 1x4101
 100 10 l 1
 100 0 l 1
 80 0 l 1x410080
 80 10 l 1x200080
 70 10 l 1x2001
 70 0 l 1x8001
 20 0 l 1x4005
 20 10 l 1x2005
 10 10 l 1
 10 30 l 1x2010
 20 30 l 1
 20 40 l 1x2804
 30 40 l 1x2810
 30 50 l 1x1010
 70 50 l 1
 70 70 l 1
 30 70 l 1x0911
 30 60 l 1x0211
40 90 m 1x0086
 20 90 l 1
 20 100 l 1x0086
 30 100 l 1
 30 110 l 1
 60 110 l 1
 60 100 l 1
 70 100 l 1x00b2
 70 110 l 1x0041
 80 110 l 1x004080
 80 120 l 1
 100 120 l 1
 100 110 l 1x002080
 90 110 l 1x0021
 90 100 l 1x0041
 70 100 l 1
 70 90 l 1
 50 90 l 1x0082
 50 100 l 1
 40 100 l 1x0046
 40 90 l 1x0086
EndSplineSet
Validated: 5
EndChar

StartChar: uni1EA7
Encoding: 333 7847 184
Width: 110
GlyphClass: 2
Flags: W
HStem: 0 20<60 70> 0 10<30 60 90 100> 10 20<10 20> 30 20<30 40> 40 10<40 70> 50 20<10 20> 60 20<20 30> 70 10<30 70> 90 10<30 40 70 80> 100 10<20 30 50 60> 110 10<0 10>
VStem: 0 20<110 120> 10 20<10 30 60 70 100 110> 10 10<50 60> 20 20<30 40> 30 20<90 100> 60 20<90 100> 70 20<20 40 50 70> 80 20<0 10>
LayerCount: 2
Fore
SplineSet
70 40 m 1x880040
 40 40 l 1x880240
 40 30 l 1x100240
 30 30 l 1
 30 10 l 1
 60 10 l 1x500880
 60 20 l 1x800880
 70 20 l 1
 70 40 l 1x880040
70 110 m 1x00a240
 70 100 l 1x00a240
 80 100 l 1
 80 90 l 1
 60 90 l 1x00a080
 60 100 l 1
 50 100 l 1x004180
 50 90 l 1
 30 90 l 1x008180
 30 100 l 1x0088
 10 100 l 1x0048
 10 110 l 1x0028
 0 110 l 1
 0 120 l 1
 20 120 l 1x0030
 20 110 l 1x0050
 30 110 l 1x0048
 30 100 l 1x0088
 40 100 l 1
 40 110 l 1
 70 110 l 1x00a240
30 60 m 1x020840
 20 60 l 1x0204
 20 50 l 1
 10 50 l 1x0404
 10 70 l 1x0408
 20 70 l 1x0402
 20 80 l 1x0202
 80 80 l 1
 80 70 l 1x010220
 90 70 l 1
 90 10 l 1x410040
 100 10 l 1
 100 0 l 1
 80 0 l 1x410020
 80 10 l 1x200020
 70 10 l 1x200040
 70 0 l 1x800040
 20 0 l 1x400240
 20 10 l 1x200240
 10 10 l 1
 10 30 l 1x2008
 20 30 l 1
 20 40 l 1x2802
 30 40 l 1x2801
 30 50 l 1x1001
 70 50 l 1
 70 70 l 1
 30 70 l 1x090840
 30 60 l 1x020840
EndSplineSet
Validated: 5
EndChar

StartChar: uni1EA9
Encoding: 335 7849 185
Width: 110
GlyphClass: 2
Flags: W
HStem: 0 20<60 70> 0 10<30 60 90 100> 10 20<10 20> 30 20<30 40> 40 10<40 70> 50 20<10 20> 60 20<20 30> 70 10<30 70> 90 10<20 30 60 70 80 90> 100 10<40 50 90 100> 110 10<70 90>
VStem: 10 20<10 30 60 70> 10 10<50 60> 20 20<30 40 90 100> 50 20<90 100> 70 20<20 40 50 70 110 120> 80 10<90 100> 90 10<100 110>
LayerCount: 2
Fore
SplineSet
70 40 m 1x8811
 40 40 l 1x8805
 40 30 l 1x1005
 30 30 l 1
 30 10 l 1
 60 10 l 1x5010
 60 20 l 1
 70 20 l 1
 70 40 l 1x8811
50 100 m 1x0052
 40 100 l 1x0046
 40 90 l 1
 20 90 l 1
 20 100 l 1x0086
 30 100 l 1
 30 110 l 1
 60 110 l 1
 60 100 l 1
 70 100 l 1
 70 90 l 1
 50 90 l 1x00b2
 50 100 l 1x0052
20 50 m 1x0408
 10 50 l 1x0408
 10 70 l 1x0410
 20 70 l 1x0404
 20 80 l 1x0204
 80 80 l 1
 80 70 l 1x010480
 90 70 l 1x0101
 90 10 l 1
 100 10 l 1
 100 0 l 1x410040
 80 0 l 1x410080
 80 10 l 1x200080
 70 10 l 1x2001
 70 0 l 1x8001
 20 0 l 1x4005
 20 10 l 1x2005
 10 10 l 1
 10 30 l 1x2010
 20 30 l 1
 20 40 l 1x2804
 30 40 l 1x2810
 30 50 l 1x1010
 70 50 l 1
 70 70 l 1
 30 70 l 1x0911
 30 60 l 1x0211
 20 60 l 1x0208
 20 50 l 1x0408
80 100 m 1x008080
 90 100 l 1x008080
 90 110 l 1x0041
 70 110 l 1
 70 120 l 1
 90 120 l 1x0021
 90 110 l 1x0041
 100 110 l 1
 100 100 l 1x004040
 90 100 l 1
 90 90 l 1
 80 90 l 1
 80 100 l 1x008080
EndSplineSet
Validated: 5
EndChar

StartChar: uni1EAC
Encoding: 338 7852 186
Width: 110
GlyphClass: 2
Flags: W
HStem: -10 10<40 60> 0 10<0 10 20 30 60 70 90 100> 30 10<30 60> 100 10<20 30 60 70> 110 10<40 50>
VStem: 10 10<10 30> 20 10<40 60> 30 10<60 80> 40 20<-10 0 90 100> 50 20<60 80 100 110> 60 20<40 60> 70 20<10 30>
LayerCount: 2
Fore
SplineSet
40 60 m 1x2140
 30 60 l 1
 30 40 l 1
 60 40 l 1
 60 60 l 1x2220
 50 60 l 1
 50 80 l 1
 40 80 l 1
 40 60 l 1x2140
40 100 m 1x3080
 50 100 l 1x3040
 50 110 l 1x2840
 40 110 l 1x2880
 40 100 l 1x3080
30 10 m 1x6510
 30 0 l 1
 0 0 l 1
 0 10 l 1
 10 10 l 1
 10 40 l 1x6510
 20 40 l 1
 20 60 l 1
 30 60 l 1x62
 30 90 l 1x61
 40 90 l 1
 40 100 l 1
 20 100 l 1
 20 110 l 1x7280
 30 110 l 1x71
 30 120 l 1
 60 120 l 1x2920
 60 110 l 1x3120
 70 110 l 1
 70 100 l 1x3040
 60 100 l 1
 60 90 l 1
 70 90 l 1x3090
 70 60 l 1x3040
 80 60 l 1
 80 40 l 1x3020
 90 40 l 1
 90 10 l 1
 100 10 l 1
 100 0 l 1x7010
 60 0 l 1
 60 -10 l 1
 40 -10 l 1
 40 0 l 1
 60 0 l 1xa090
 60 10 l 1x6020
 70 10 l 1
 70 30 l 1
 20 30 l 1
 20 10 l 1
 30 10 l 1x6510
EndSplineSet
Validated: 5
EndChar

StartChar: uni1EAD
Encoding: 339 7853 187
Width: 110
GlyphClass: 2
Flags: W
HStem: -10 10<40 60> 10 10<30 60 90 100> 20 20<10 20> 20 10<60 70> 40 20<30 40> 50 10<40 70> 60 20<10 20> 70 20<20 30> 80 10<30 70> 100 10<30 40 70 80> 110 10<50 60>
VStem: 10 20<20 40 70 80> 10 10<60 70> 20 20<40 50> 30 20<100 110> 40 20<-10 0> 60 20<100 110> 70 20<30 50 60 80> 80 20<10 20>
LayerCount: 2
Fore
SplineSet
40 40 m 1x880440
 30 40 l 1
 30 20 l 1
 60 20 l 1xc81080
 60 30 l 1x901080
 70 30 l 1
 70 50 l 1
 40 50 l 1x940440
 40 40 l 1x880440
60 -10 m 1x8001
 40 -10 l 1
 40 0 l 1
 60 0 l 1
 60 -10 l 1x8001
20 20 m 1xa00480
 10 20 l 1
 10 40 l 1xa010
 20 40 l 1
 20 50 l 1xa404
 30 50 l 1xa402
 30 60 l 1x8802
 70 60 l 1
 70 80 l 1
 30 80 l 1x849040
 30 70 l 1x811040
 20 70 l 1x8108
 20 60 l 1
 10 60 l 1x8208
 10 80 l 1x8210
 20 80 l 1x8204
 20 90 l 1x8104
 80 90 l 1
 80 80 l 1x808420
 90 80 l 1
 90 20 l 1xc08040
 100 20 l 1
 100 10 l 1
 80 10 l 1xc08020
 80 20 l 1x900020
 60 20 l 1
 60 10 l 1
 20 10 l 1xc00480
 20 20 l 1xa00480
80 110 m 1x804080
 80 100 l 1
 60 100 l 1x804080
 60 110 l 1
 50 110 l 1x802280
 50 100 l 1
 30 100 l 1
 30 110 l 1x804280
 40 110 l 1x8041
 40 120 l 1
 70 120 l 1x802140
 70 110 l 1x804140
 80 110 l 1x804080
EndSplineSet
Validated: 5
EndChar

StartChar: uni1EAF
Encoding: 341 7855 188
Width: 110
GlyphClass: 2
Flags: W
HStem: 0 20<60 70> 0 10<30 60 90 100> 10 20<10 20> 30 10<30 70> 40 20<10 20> 50 20<20 30> 60 10<30 70> 80 10<40 70> 90 10<30 40 70 80> 100 10<50 60> 110 10<70 80>
VStem: 10 20<10 30 50 60> 10 10<40 50> 30 10<90 100> 50 20<100 110> 60 20<110 120> 70 20<20 30 40 60> 70 10<90 100> 80 20<0 10>
LayerCount: 2
Fore
SplineSet
20 50 m 1x0408
 20 40 l 1x0808
 70 40 l 1
 70 60 l 1
 30 60 l 1x121080
 30 50 l 1x041080
 20 50 l 1x0408
70 30 m 1x900080
 30 30 l 1
 30 10 l 1
 60 10 l 1x5011
 60 20 l 1x8011
 70 20 l 1
 70 30 l 1x900080
20 10 m 1x200840
 10 10 l 1
 10 30 l 1x2010
 20 30 l 1
 20 40 l 1
 10 40 l 1x2808
 10 60 l 1x2810
 20 60 l 1x2808
 20 70 l 1x0408
 80 70 l 1
 80 60 l 1x020820
 90 60 l 1
 90 10 l 1x420080
 100 10 l 1
 100 0 l 1
 80 0 l 1x420020
 80 10 l 1x200020
 70 10 l 1x200040
 70 0 l 1x800040
 20 0 l 1x400840
 20 10 l 1x200840
70 110 m 1x0022
 70 100 l 1x00a2
 80 100 l 1
 80 90 l 1x00a040
 70 90 l 1
 70 80 l 1
 40 80 l 1
 40 90 l 1x010440
 30 90 l 1
 30 100 l 1
 40 100 l 1x008440
 40 90 l 1
 70 90 l 1x010440
 70 100 l 1x0082
 50 100 l 1
 50 110 l 1x0042
 60 110 l 1x0041
 60 120 l 1
 80 120 l 1
 80 110 l 1x0021
 70 110 l 1x0022
EndSplineSet
Validated: 5
EndChar

StartChar: uni1EB1
Encoding: 343 7857 189
Width: 110
GlyphClass: 2
Flags: W
HStem: 0 20<60 70> 0 10<30 60 90 100> 10 20<10 20> 30 10<30 70> 40 20<10 20> 50 20<20 30> 60 10<30 70> 80 10<40 70> 90 10<30 40 70 80> 100 10<50 60> 110 10<30 40>
VStem: 10 20<10 30 50 60> 10 10<40 50> 30 20<110 120> 30 10<90 100> 40 20<100 110> 70 20<20 30 40 60> 70 10<90 100> 80 20<0 10>
LayerCount: 2
Fore
SplineSet
20 50 m 1x0408
 20 40 l 1x0808
 70 40 l 1
 70 60 l 1
 30 60 l 1x121080
 30 50 l 1x041080
 20 50 l 1x0408
70 30 m 1x901180
 30 30 l 1
 30 10 l 1
 60 10 l 1x501180
 60 20 l 1
 70 20 l 1
 70 30 l 1x901180
20 10 m 1x200840
 10 10 l 1
 10 30 l 1x2010
 20 30 l 1
 20 40 l 1
 10 40 l 1x2808
 10 60 l 1x2810
 20 60 l 1x2808
 20 70 l 1x0408
 80 70 l 1
 80 60 l 1x020820
 90 60 l 1
 90 10 l 1x420080
 100 10 l 1
 100 0 l 1
 80 0 l 1x420020
 80 10 l 1x200020
 70 10 l 1x200040
 70 0 l 1x800040
 20 0 l 1x400840
 20 10 l 1x200840
50 110 m 1x0044
 60 110 l 1
 60 100 l 1x0041
 40 100 l 1x0082
 40 90 l 1
 70 90 l 1x010240
 70 100 l 1
 80 100 l 1
 80 90 l 1x008240
 70 90 l 1
 70 80 l 1
 40 80 l 1x010140
 40 90 l 1x0102
 30 90 l 1
 30 100 l 1
 40 100 l 1x0082
 40 110 l 1x00a1
 30 110 l 1
 30 120 l 1
 50 120 l 1x00a4
 50 110 l 1x0044
EndSplineSet
Validated: 5
EndChar

StartChar: uni1EB7
Encoding: 349 7863 190
Width: 110
GlyphClass: 2
Flags: W
HStem: -10 10<40 60> 10 10<30 60 90 100> 20 20<10 20> 20 10<60 70> 40 20<30 40> 50 10<40 70> 60 20<10 20> 70 20<20 30> 80 10<30 70> 100 10<40 70> 110 10<30 40 70 80>
VStem: 10 20<20 40 70 80> 10 10<60 70> 20 20<40 50> 30 10<110 120> 40 20<-10 0> 70 20<30 50 60 80> 70 10<110 120> 80 20<10 20>
LayerCount: 2
Fore
SplineSet
40 40 m 1x880480
 30 40 l 1
 30 20 l 1
 60 20 l 1xc811
 60 30 l 1x9011
 70 30 l 1
 70 50 l 1
 40 50 l 1x940480
 40 40 l 1x880480
60 -10 m 1
 40 -10 l 1
 40 0 l 1
 60 0 l 1
 60 -10 l 1
20 20 m 1xa004
 10 20 l 1
 10 40 l 1xa010
 20 40 l 1
 20 50 l 1xa404
 30 50 l 1xa402
 30 60 l 1x8802
 70 60 l 1
 70 80 l 1
 30 80 l 1x849080
 30 70 l 1x811080
 20 70 l 1x8108
 20 60 l 1
 10 60 l 1x8208
 10 80 l 1x8210
 20 80 l 1x8204
 20 90 l 1x8104
 80 90 l 1
 80 80 l 1x808420
 90 80 l 1
 90 20 l 1xc08080
 100 20 l 1
 100 10 l 1
 80 10 l 1xc08020
 80 20 l 1x900020
 60 20 l 1
 60 10 l 1xc00120
 20 10 l 1xc004
 20 20 l 1xa004
40 110 m 1x8042
 30 110 l 1
 30 120 l 1
 40 120 l 1x8022
 40 110 l 1
 70 110 l 1x804240
 70 120 l 1
 80 120 l 1
 80 110 l 1x802240
 70 110 l 1
 70 100 l 1
 40 100 l 1x804140
 40 110 l 1x8042
EndSplineSet
Validated: 5
EndChar

StartChar: uni1EBF
Encoding: 357 7871 191
Width: 110
GlyphClass: 2
Flags: W
HStem: 0 10<40 70> 10 10<70 80> 20 10<80 90> 40 20<80 90> 40 10<30 70> 60 20<30 40 60 70> 70 10<40 60> 90 10<20 30 60 70> 100 10<40 50 70 80> 110 10<90 100>
VStem: 10 20<20 40 50 60> 20 20<10 20 60 70 90 100> 50 20<90 100> 60 20<60 70> 70 10<10 20> 80 20<110 120> 80 10<20 30>
LayerCount: 2
Fore
SplineSet
40 60 m 1x0414
 30 60 l 1
 30 50 l 1
 70 50 l 1
 70 60 l 1x0c22
 60 60 l 1x0c04
 60 70 l 1
 40 70 l 1x0214
 40 60 l 1x0414
20 10 m 1x4010
 20 20 l 1x2010
 10 20 l 1
 10 60 l 1x2420
 20 60 l 1x2410
 20 70 l 1x0210
 30 70 l 1x0220
 30 80 l 1
 70 80 l 1x0422
 70 70 l 1x0222
 80 70 l 1
 80 60 l 1x1204
 90 60 l 1
 90 40 l 1x120080
 30 40 l 1
 30 20 l 1x282080
 40 20 l 1
 40 10 l 1
 70 10 l 1xa812
 70 20 l 1
 80 20 l 1x4012
 80 30 l 1
 90 30 l 1
 90 20 l 1x200080
 80 20 l 1
 80 10 l 1x4002
 70 10 l 1
 70 0 l 1
 30 0 l 1x8022
 30 10 l 1x4022
 20 10 l 1x4010
20 90 m 1x011880
 20 100 l 1x011880
 30 100 l 1
 30 110 l 1
 60 110 l 1
 60 100 l 1x0164
 70 100 l 1x0148
 70 110 l 1x0082
 80 110 l 1x0081
 80 120 l 1
 100 120 l 1
 100 110 l 1x0041
 90 110 l 1x004080
 90 100 l 1x008080
 70 100 l 1
 70 90 l 1
 50 90 l 1x010880
 50 100 l 1
 40 100 l 1x009880
 40 90 l 1
 20 90 l 1x011880
EndSplineSet
Validated: 5
EndChar

StartChar: uni1EC3
Encoding: 361 7875 192
Width: 110
GlyphClass: 2
Flags: W
HStem: 0 10<40 70> 10 10<70 80> 20 10<80 90> 40 20<80 90> 40 10<30 70> 60 20<30 40 60 70> 70 10<40 60> 90 10<20 30 60 70 80 90> 100 10<40 50 90 100> 110 10<70 90>
VStem: 10 20<20 40 50 60> 20 20<10 20 60 70 90 100> 50 20<90 100> 60 20<60 70> 70 10<10 20> 80 10<20 30 90 100> 90 10<100 110>
LayerCount: 2
Fore
SplineSet
40 60 m 1x0414
 30 60 l 1
 30 50 l 1
 70 50 l 1
 70 60 l 1x0c22
 60 60 l 1x0c04
 60 70 l 1
 40 70 l 1x0214
 40 60 l 1x0414
60 100 m 1x0164
 70 100 l 1
 70 90 l 1
 50 90 l 1x0148
 50 100 l 1
 40 100 l 1x0098
 40 90 l 1
 20 90 l 1
 20 100 l 1x0118
 30 100 l 1
 30 110 l 1
 60 110 l 1
 60 100 l 1x0164
20 10 m 1x4010
 20 20 l 1x2010
 10 20 l 1
 10 60 l 1x2420
 20 60 l 1x2410
 20 70 l 1x0210
 30 70 l 1x0220
 30 80 l 1
 70 80 l 1x0422
 70 70 l 1x0222
 80 70 l 1
 80 60 l 1
 90 60 l 1
 90 40 l 1x120480
 30 40 l 1
 30 20 l 1x282480
 40 20 l 1
 40 10 l 1
 70 10 l 1xa812
 70 20 l 1
 80 20 l 1x4012
 80 30 l 1
 90 30 l 1
 90 20 l 1x2001
 80 20 l 1
 80 10 l 1x4002
 70 10 l 1
 70 0 l 1
 30 0 l 1x8022
 30 10 l 1x4022
 20 10 l 1x4010
90 110 m 1x008080
 70 110 l 1
 70 120 l 1
 90 120 l 1x004280
 90 110 l 1
 100 110 l 1
 100 100 l 1x008280
 90 100 l 1
 90 90 l 1
 80 90 l 1
 80 100 l 1
 90 100 l 1x0101
 90 110 l 1x008080
EndSplineSet
Validated: 5
EndChar

StartChar: uni1EC7
Encoding: 365 7879 193
Width: 110
GlyphClass: 2
Flags: W
HStem: -10 10<40 60> 10 10<40 70> 20 10<70 80> 40 10<30 70> 70 20<30 40 60 70> 80 10<40 60> 100 10<20 30 60 70> 110 10<40 50>
VStem: 10 20<30 40 50 70> 20 20<20 30 70 80 100 110> 40 20<-10 0> 50 20<100 110> 60 20<70 80> 70 20<50 70> 70 10<20 30>
LayerCount: 2
Fore
SplineSet
40 70 m 1x9848
 30 70 l 1
 30 50 l 1
 70 50 l 1
 70 70 l 1x9884
 60 70 l 1x9808
 60 80 l 1
 40 80 l 1x9448
 40 70 l 1x9848
60 110 m 1x9288
 70 110 l 1
 70 100 l 1
 50 100 l 1x9210
 50 110 l 1
 40 110 l 1x9150
 40 100 l 1
 20 100 l 1
 20 110 l 1x9250
 30 110 l 1x9280
 30 120 l 1
 60 120 l 1x9188
 60 110 l 1x9288
70 30 m 1xb042
 80 30 l 1
 80 20 l 1xb042
 70 20 l 1
 70 10 l 1
 30 10 l 1xd082
 30 20 l 1xb082
 20 20 l 1
 20 30 l 1xb040
 10 30 l 1
 10 70 l 1xb880
 20 70 l 1xb840
 20 80 l 1x9440
 30 80 l 1x9480
 30 90 l 1
 70 90 l 1x9882
 70 80 l 1x9482
 80 80 l 1x9408
 80 70 l 1x9808
 90 70 l 1
 90 40 l 1
 30 40 l 1
 30 30 l 1xb884
 40 30 l 1xb840
 40 20 l 1
 70 20 l 1xd042
 70 30 l 1xb042
60 -10 m 1x9020
 40 -10 l 1
 40 0 l 1
 60 0 l 1
 60 -10 l 1x9020
EndSplineSet
Validated: 5
EndChar

StartChar: uni1EC9
Encoding: 367 7881 194
Width: 110
GlyphClass: 2
Flags: W
HStem: 0 10<20 40 60 80> 80 10<20 40> 110 10<40 60>
VStem: 40 20<10 80 110 120> 50 10<90 100> 60 10<100 110>
LayerCount: 2
Fore
SplineSet
80 0 m 1xf0
 20 0 l 1
 20 10 l 1
 40 10 l 1
 40 80 l 1xf0
 20 80 l 1
 20 90 l 1
 50 90 l 1
 50 100 l 1
 60 100 l 1xe8
 60 110 l 1
 40 110 l 1
 40 120 l 1
 60 120 l 1
 60 110 l 1xf0
 70 110 l 1
 70 100 l 1xe4
 60 100 l 1xe8
 60 10 l 1
 80 10 l 1
 80 0 l 1xf0
EndSplineSet
Validated: 5
EndChar

StartChar: uni1ECB
Encoding: 369 7883 195
Width: 110
GlyphClass: 2
Flags: W
HStem: -10 10<40 60> 10 10<20 40 60 80> 80 10<20 40> 100 20<40 60>
VStem: 40 20<-10 0 20 80 100 120>
LayerCount: 2
Fore
SplineSet
80 10 m 1
 20 10 l 1
 20 20 l 1
 40 20 l 1
 40 80 l 1
 20 80 l 1
 20 90 l 1
 60 90 l 1
 60 20 l 1
 80 20 l 1
 80 10 l 1
40 120 m 1
 60 120 l 1
 60 100 l 1
 40 100 l 1
 40 120 l 1
60 -10 m 1
 40 -10 l 1
 40 0 l 1
 60 0 l 1
 60 -10 l 1
EndSplineSet
Validated: 1
EndChar

StartChar: uni1ECD
Encoding: 371 7885 196
Width: 110
GlyphClass: 2
Flags: W
HStem: -10 10<40 60> 10 20<30 40 60 70> 10 10<40 60> 70 20<30 40 60 70> 80 10<40 60>
VStem: 10 20<30 70> 20 20<20 30 70 80> 40 20<-10 0> 60 20<20 30 70 80> 70 20<30 70>
LayerCount: 2
Fore
SplineSet
40 70 m 1x9280
 30 70 l 1
 30 30 l 1xd4
 40 30 l 1xd2
 40 20 l 1
 60 20 l 1xa280
 60 30 l 1xc280
 70 30 l 1
 70 70 l 1xd040
 60 70 l 1xd080
 60 80 l 1
 40 80 l 1x8a80
 40 70 l 1x9280
20 20 m 1xa2
 20 30 l 1xc2
 10 30 l 1
 10 70 l 1xd4
 20 70 l 1xd2
 20 80 l 1x8a
 30 80 l 1x8c
 30 90 l 1
 70 90 l 1x9440
 70 80 l 1x8c40
 80 80 l 1x8880
 80 70 l 1x9080
 90 70 l 1
 90 30 l 1xd040
 80 30 l 1xd080
 80 20 l 1xa080
 70 20 l 1xa040
 70 10 l 1
 30 10 l 1xc440
 30 20 l 1xa440
 20 20 l 1xa2
60 -10 m 1x81
 40 -10 l 1
 40 0 l 1
 60 0 l 1
 60 -10 l 1x81
EndSplineSet
Validated: 1
EndChar

StartChar: uni1ECF
Encoding: 373 7887 197
Width: 110
GlyphClass: 2
Flags: W
HStem: 0 20<30 40 60 70> 0 10<40 60> 70 20<30 40 60 70> 80 20<50 60> 80 10<40 50> 110 10<40 60>
VStem: 10 20<20 70> 20 20<10 20 70 80> 40 20<110 120> 50 10<90 100> 60 20<10 20 70 80> 60 10<100 110> 70 20<20 70>
LayerCount: 2
Fore
SplineSet
40 70 m 1x2520
 30 70 l 1
 30 20 l 1xa6
 40 20 l 1xa5
 40 10 l 1
 60 10 l 1x4520
 60 20 l 1x8520
 70 20 l 1
 70 70 l 1xa408
 60 70 l 1xa420
 60 80 l 1x1420
 40 80 l 1x0d20
 40 70 l 1x2520
20 10 m 1x45
 20 20 l 1x85
 10 20 l 1
 10 70 l 1xa6
 20 70 l 1xa5
 20 80 l 1x0d
 30 80 l 1x0e
 30 90 l 1x26
 50 90 l 1x0e40
 50 100 l 1
 60 100 l 1x1640
 60 110 l 1
 40 110 l 1
 40 120 l 1
 60 120 l 1
 60 110 l 1x1480
 70 110 l 1
 70 100 l 1x1410
 60 100 l 1x1440
 60 90 l 1
 70 90 l 1x2448
 70 80 l 1x0c48
 80 80 l 1x0c20
 80 70 l 1x2420
 90 70 l 1
 90 20 l 1xa408
 80 20 l 1xa420
 80 10 l 1x4420
 70 10 l 1x4408
 70 0 l 1
 30 0 l 1x8608
 30 10 l 1x4608
 20 10 l 1x45
EndSplineSet
Validated: 5
EndChar

StartChar: uni1ED1
Encoding: 375 7889 198
Width: 110
GlyphClass: 2
Flags: W
HStem: 0 20<30 40 60 70> 0 10<40 60> 60 20<30 40 60 70> 70 10<40 60> 90 10<20 30 60 70> 100 10<40 50 70 80> 110 10<90 100>
VStem: 10 20<20 60> 20 20<10 20 60 70 90 100> 50 20<90 100> 60 20<10 20 60 70> 70 20<20 60 100 110> 80 20<110 120>
LayerCount: 2
Fore
SplineSet
40 60 m 1x20a0
 30 60 l 1
 30 20 l 1xa1
 40 20 l 1xa080
 40 10 l 1
 60 10 l 1x40a0
 60 20 l 1x80a0
 70 20 l 1
 70 60 l 1xa010
 60 60 l 1xa020
 60 70 l 1
 40 70 l 1x10a0
 40 60 l 1x20a0
20 10 m 1x4080
 20 20 l 1x8080
 10 20 l 1
 10 60 l 1xa1
 20 60 l 1xa080
 20 70 l 1x1080
 30 70 l 1x11
 30 80 l 1
 70 80 l 1x2110
 70 70 l 1x1110
 80 70 l 1x1020
 80 60 l 1x2020
 90 60 l 1
 90 20 l 1xa010
 80 20 l 1xa020
 80 10 l 1x4020
 70 10 l 1x4010
 70 0 l 1
 30 0 l 1x8110
 30 10 l 1x4110
 20 10 l 1x4080
20 90 m 1x08c0
 20 100 l 1x08c0
 30 100 l 1
 30 110 l 1
 60 110 l 1
 60 100 l 1x0b20
 70 100 l 1x0a40
 70 110 l 1x0410
 80 110 l 1x0408
 80 120 l 1
 100 120 l 1
 100 110 l 1x0208
 90 110 l 1x0210
 90 100 l 1x0410
 70 100 l 1
 70 90 l 1
 50 90 l 1x0840
 50 100 l 1
 40 100 l 1x04c0
 40 90 l 1
 20 90 l 1x08c0
EndSplineSet
Validated: 5
EndChar

StartChar: uni1ED3
Encoding: 377 7891 199
Width: 110
GlyphClass: 2
Flags: W
HStem: 0 20<30 40 60 70> 0 10<40 60> 60 20<30 40 60 70> 70 10<40 60> 90 10<30 40 70 80> 100 10<20 30 50 60> 110 10<0 10>
VStem: 0 20<110 120> 10 20<20 60 100 110> 20 20<10 20 60 70> 30 20<90 100> 60 20<10 20 60 70 90 100> 70 20<20 60>
LayerCount: 2
Fore
SplineSet
40 60 m 1x2050
 30 60 l 1
 30 20 l 1xa080
 40 20 l 1xa040
 40 10 l 1
 60 10 l 1x4050
 60 20 l 1x8050
 70 20 l 1
 70 60 l 1xa008
 60 60 l 1xa010
 60 70 l 1
 40 70 l 1x1050
 40 60 l 1x2050
70 100 m 1x0a48
 80 100 l 1
 80 90 l 1
 60 90 l 1x0a10
 60 100 l 1
 50 100 l 1x0430
 50 90 l 1
 30 90 l 1x0830
 30 100 l 1x0880
 10 100 l 1x0480
 10 110 l 1x0280
 0 110 l 1
 0 120 l 1
 20 120 l 1x03
 20 110 l 1x05
 30 110 l 1x0480
 30 100 l 1x0880
 40 100 l 1
 40 110 l 1
 70 110 l 1
 70 100 l 1x0a48
20 10 m 1x4040
 20 20 l 1x8040
 10 20 l 1
 10 60 l 1xa080
 20 60 l 1xa040
 20 70 l 1x1040
 30 70 l 1x1020
 30 80 l 1
 70 80 l 1x2028
 70 70 l 1x1028
 80 70 l 1x1010
 80 60 l 1x2010
 90 60 l 1
 90 20 l 1xa008
 80 20 l 1xa010
 80 10 l 1x4010
 70 10 l 1x4008
 70 0 l 1
 30 0 l 1x8028
 30 10 l 1x4028
 20 10 l 1x4040
EndSplineSet
Validated: 5
EndChar

StartChar: uni1ED5
Encoding: 379 7893 200
Width: 110
GlyphClass: 2
Flags: W
HStem: 0 20<30 40 60 70> 0 10<40 60> 60 20<30 40 60 70> 70 10<40 60> 90 10<20 30 60 70 80 90> 100 10<40 50 90 100> 110 10<70 90>
VStem: 10 20<20 60> 20 20<10 20 60 70 90 100> 50 20<90 100> 60 20<10 20 60 70> 70 20<20 60 110 120> 80 10<90 100> 90 10<100 110>
LayerCount: 2
Fore
SplineSet
40 60 m 1x20a0
 30 60 l 1
 30 20 l 1xa1
 40 20 l 1xa080
 40 10 l 1
 60 10 l 1x40a0
 60 20 l 1x80a0
 70 20 l 1
 70 60 l 1xa010
 60 60 l 1xa020
 60 70 l 1
 40 70 l 1x10a0
 40 60 l 1x20a0
60 100 m 1x0b20
 70 100 l 1
 70 90 l 1
 50 90 l 1x0a40
 50 100 l 1
 40 100 l 1x04c0
 40 90 l 1
 20 90 l 1
 20 100 l 1x08c0
 30 100 l 1
 30 110 l 1
 60 110 l 1
 60 100 l 1x0b20
20 10 m 1x4080
 20 20 l 1x8080
 10 20 l 1
 10 60 l 1xa1
 20 60 l 1xa080
 20 70 l 1x1080
 30 70 l 1x11
 30 80 l 1
 70 80 l 1x2110
 70 70 l 1x1110
 80 70 l 1x1020
 80 60 l 1x2020
 90 60 l 1
 90 20 l 1xa010
 80 20 l 1xa020
 80 10 l 1x4020
 70 10 l 1x4010
 70 0 l 1
 30 0 l 1x8110
 30 10 l 1x4110
 20 10 l 1x4080
90 100 m 1x0808
 90 110 l 1x0410
 70 110 l 1
 70 120 l 1
 90 120 l 1x0210
 90 110 l 1x0410
 100 110 l 1
 100 100 l 1x0404
 90 100 l 1
 90 90 l 1
 80 90 l 1
 80 100 l 1
 90 100 l 1x0808
EndSplineSet
Validated: 5
EndChar

StartChar: uni1ED6
Encoding: 380 7894 201
Width: 110
GlyphClass: 2
Flags: W
HStem: 0 20<20 30 70 80> 0 10<30 70> 20 30<0 10 90 100> 50 20<20 30 70 80> 60 10<30 70> 80 10<20 30 60 70> 90 10<40 50> 100 10<20 30 60 70> 110 10<30 50 70 80>
VStem: 0 20<20 50> 10 20<10 20 50 60> 20 20<80 90> 20 10<100 110> 30 20<110 120> 50 20<80 90 100 110> 70 20<10 20 50 60> 70 10<110 120> 80 20<20 50>
LayerCount: 2
Fore
SplineSet
30 110 m 1x0108
 30 100 l 1x0108
 50 100 l 1x020a
 50 110 l 1x0284
 30 110 l 1x0108
30 60 m 1x0821
 30 50 l 1x1021
 20 50 l 1
 20 20 l 1x9040
 30 20 l 1x9020
 30 10 l 1
 70 10 l 1x4021
 70 20 l 1x8021
 80 20 l 1
 80 50 l 1x900040
 70 50 l 1x9001
 70 60 l 1
 30 60 l 1x0821
20 90 m 1x0412
 30 90 l 1x0404
 30 100 l 1
 20 100 l 1
 20 110 l 1
 30 110 l 1x0508
 30 120 l 1
 50 120 l 1
 50 110 l 1x0084
 70 110 l 1x0102
 70 120 l 1
 80 120 l 1
 80 110 l 1x008080
 70 110 l 1
 70 100 l 1
 60 100 l 1
 60 90 l 1
 70 90 l 1
 70 80 l 1
 50 80 l 1x0502
 50 90 l 1
 40 90 l 1x0212
 40 80 l 1
 20 80 l 1
 20 90 l 1x0412
10 20 m 1x6020
 0 20 l 1
 0 50 l 1x6040
 10 50 l 1
 10 60 l 1x6820
 20 60 l 1x6808
 20 70 l 1
 80 70 l 1x100840
 80 60 l 1x080840
 90 60 l 1
 90 50 l 1x2801
 100 50 l 1
 100 20 l 1x280040
 90 20 l 1
 90 10 l 1x6801
 80 10 l 1x680040
 80 0 l 1
 20 0 l 1x800840
 20 10 l 1x400840
 10 10 l 1
 10 20 l 1x6020
EndSplineSet
Validated: 5
EndChar

StartChar: uni1ED9
Encoding: 383 7897 202
Width: 110
GlyphClass: 2
Flags: W
HStem: -10 10<40 60> 10 20<30 40 60 70> 10 10<40 60> 70 20<30 40 60 70> 80 10<40 60> 100 10<20 30 60 70> 110 10<40 50>
VStem: 10 20<30 70> 20 20<20 30 70 80 100 110> 40 20<-10 0> 50 20<100 110> 60 20<20 30 70 80> 70 20<30 70>
LayerCount: 2
Fore
SplineSet
40 70 m 1x9090
 30 70 l 1
 30 30 l 1xd1
 40 30 l 1xd080
 40 20 l 1
 60 20 l 1xa090
 60 30 l 1xc090
 70 30 l 1
 70 70 l 1xd008
 60 70 l 1xd010
 60 80 l 1
 40 80 l 1x8890
 40 70 l 1x9090
60 110 m 1x8510
 70 110 l 1
 70 100 l 1
 50 100 l 1x8420
 50 110 l 1
 40 110 l 1x82a0
 40 100 l 1
 20 100 l 1
 20 110 l 1x84a0
 30 110 l 1x85
 30 120 l 1
 60 120 l 1x8310
 60 110 l 1x8510
20 20 m 1xa080
 20 30 l 1xc080
 10 30 l 1
 10 70 l 1xd1
 20 70 l 1xd080
 20 80 l 1x8880
 30 80 l 1x89
 30 90 l 1
 70 90 l 1x9108
 70 80 l 1x8908
 80 80 l 1x8810
 80 70 l 1x9010
 90 70 l 1
 90 30 l 1xd008
 80 30 l 1xd010
 80 20 l 1xa010
 70 20 l 1xa008
 70 10 l 1
 30 10 l 1xc108
 30 20 l 1xa108
 20 20 l 1xa080
60 -10 m 1x8040
 40 -10 l 1
 40 0 l 1
 60 0 l 1
 60 -10 l 1x8040
EndSplineSet
Validated: 1
EndChar

StartChar: uni1EDB
Encoding: 385 7899 203
Width: 110
GlyphClass: 2
Flags: W
HStem: 0 20<30 40 60 70> 0 10<40 60> 70 20<30 40 60 70 90 100> 80 10<40 60> 100 10<40 50> 110 10<60 70>
VStem: 10 20<20 70> 20 20<10 20 70 80> 40 20<100 110> 50 20<110 120> 60 20<10 20 70 80> 70 20<20 70> 90 10<70 90>
LayerCount: 2
Fore
SplineSet
40 70 m 1x2120
 30 70 l 1
 30 20 l 1xa2
 40 20 l 1xa1
 40 10 l 1
 60 10 l 1x4120
 60 20 l 1x8120
 70 20 l 1
 70 70 l 1xa010
 60 70 l 1xa020
 60 80 l 1
 40 80 l 1x1120
 40 70 l 1x2120
20 10 m 1x41
 20 20 l 1x81
 10 20 l 1
 10 70 l 1xa2
 20 70 l 1xa1
 20 80 l 1x11
 30 80 l 1x12
 30 90 l 1
 70 90 l 1x2210
 70 80 l 1x1210
 80 80 l 1x1020
 80 70 l 1x2020
 90 70 l 1x2010
 90 90 l 1
 100 90 l 1
 100 70 l 1x2008
 90 70 l 1
 90 20 l 1xa010
 80 20 l 1xa020
 80 10 l 1x4020
 70 10 l 1x4010
 70 0 l 1
 30 0 l 1x8210
 30 10 l 1x4210
 20 10 l 1x41
70 120 m 1x0440
 70 110 l 1x0440
 60 110 l 1x0480
 60 100 l 1
 40 100 l 1
 40 110 l 1x0880
 50 110 l 1x0840
 50 120 l 1
 70 120 l 1x0440
EndSplineSet
Validated: 5
EndChar

StartChar: uni1EDD
Encoding: 387 7901 204
Width: 110
GlyphClass: 2
Flags: W
HStem: 0 20<30 40 60 70> 0 10<40 60> 70 20<30 40 60 70 90 100> 80 10<40 60> 100 10<50 60> 110 10<30 40>
VStem: 10 20<20 70> 20 20<10 20 70 80> 30 20<110 120> 40 20<100 110> 60 20<10 20 70 80> 70 20<20 70> 90 10<70 90>
LayerCount: 2
Fore
SplineSet
40 70 m 1x2120
 30 70 l 1
 30 20 l 1xa2
 40 20 l 1xa1
 40 10 l 1
 60 10 l 1x4120
 60 20 l 1x8120
 70 20 l 1
 70 70 l 1xa010
 60 70 l 1xa020
 60 80 l 1
 40 80 l 1x1120
 40 70 l 1x2120
40 110 m 1x0440
 30 110 l 1
 30 120 l 1
 50 120 l 1x0480
 50 110 l 1x0880
 60 110 l 1
 60 100 l 1
 40 100 l 1x0840
 40 110 l 1x0440
20 10 m 1x41
 20 20 l 1x81
 10 20 l 1
 10 70 l 1xa2
 20 70 l 1xa1
 20 80 l 1x11
 30 80 l 1x1080
 30 90 l 1
 70 90 l 1x2090
 70 80 l 1x1090
 80 80 l 1x1020
 80 70 l 1x2020
 90 70 l 1x2010
 90 90 l 1
 100 90 l 1
 100 70 l 1x2008
 90 70 l 1
 90 20 l 1xa010
 80 20 l 1xa020
 80 10 l 1x4020
 70 10 l 1x4010
 70 0 l 1
 30 0 l 1x8090
 30 10 l 1x4090
 20 10 l 1x41
EndSplineSet
Validated: 5
EndChar

StartChar: uni1EDF
Encoding: 389 7903 205
Width: 110
GlyphClass: 2
Flags: W
HStem: 0 20<30 40 60 70> 0 10<40 60> 70 20<30 40 60 70 90 100> 80 20<50 60> 80 10<40 50> 110 10<40 60>
VStem: 10 20<20 70> 20 20<10 20 70 80> 40 20<110 120> 50 10<90 100> 60 20<10 20 70 80> 60 10<100 110> 70 20<20 70> 90 10<70 90>
LayerCount: 2
Fore
SplineSet
30 20 m 1xa6
 40 20 l 1xa5
 40 10 l 1
 60 10 l 1x4520
 60 20 l 1x8520
 70 20 l 1
 70 70 l 1xa408
 60 70 l 1xa420
 60 80 l 1x1420
 40 80 l 1x0d20
 40 70 l 1x2520
 30 70 l 1
 30 20 l 1xa6
20 10 m 1x45
 20 20 l 1x85
 10 20 l 1
 10 70 l 1xa6
 20 70 l 1xa5
 20 80 l 1x0d
 30 80 l 1x0e
 30 90 l 1x26
 50 90 l 1x0e40
 50 100 l 1
 60 100 l 1x1640
 60 110 l 1
 40 110 l 1
 40 120 l 1
 60 120 l 1
 60 110 l 1x1480
 70 110 l 1
 70 100 l 1x1410
 60 100 l 1x1440
 60 90 l 1
 70 90 l 1x2448
 70 80 l 1x0c48
 80 80 l 1x0c20
 80 70 l 1x2420
 90 70 l 1x2408
 90 90 l 1
 100 90 l 1
 100 70 l 1x2404
 90 70 l 1
 90 20 l 1xa408
 80 20 l 1xa420
 80 10 l 1x4420
 70 10 l 1x4408
 70 0 l 1
 30 0 l 1x8608
 30 10 l 1x4608
 20 10 l 1x45
EndSplineSet
Validated: 5
EndChar

StartChar: uni1EE3
Encoding: 393 7907 206
Width: 110
GlyphClass: 2
Flags: W
HStem: -10 10<40 60> 10 20<30 40 60 70> 10 10<40 60> 70 20<30 40 60 70 90 100> 80 10<40 60>
VStem: 10 20<30 70> 20 20<20 30 70 80> 40 20<-10 0> 60 20<20 30 70 80> 70 20<30 70> 90 10<70 90>
LayerCount: 2
Fore
SplineSet
30 30 m 1xd4
 40 30 l 1xd2
 40 20 l 1
 60 20 l 1xa280
 60 30 l 1xc280
 70 30 l 1
 70 70 l 1xd040
 60 70 l 1xd080
 60 80 l 1
 40 80 l 1x8a80
 40 70 l 1x9280
 30 70 l 1
 30 30 l 1xd4
40 -10 m 1x81
 40 0 l 1
 60 0 l 1
 60 -10 l 1
 40 -10 l 1x81
10 30 m 1xc4
 10 70 l 1xd4
 20 70 l 1xd2
 20 80 l 1x8a
 30 80 l 1x8c
 30 90 l 1
 70 90 l 1x9440
 70 80 l 1x8c40
 80 80 l 1x8880
 80 70 l 1x9080
 90 70 l 1x9040
 90 90 l 1
 100 90 l 1
 100 70 l 1x9020
 90 70 l 1
 90 30 l 1xd040
 80 30 l 1xd080
 80 20 l 1xa080
 70 20 l 1xa040
 70 10 l 1
 30 10 l 1xc440
 30 20 l 1xa440
 20 20 l 1xa2
 20 30 l 1xc2
 10 30 l 1xc4
EndSplineSet
Validated: 5
EndChar

StartChar: uni1EE7
Encoding: 397 7911 207
Width: 110
GlyphClass: 2
Flags: W
HStem: 0 10<40 60 90 100> 10 10<60 70> 80 10<0 10 60 70> 90 10<40 50> 110 10<30 50>
VStem: 10 20<20 80> 20 20<10 20> 30 20<110 120> 40 10<90 100> 50 10<100 110> 60 30<10 20 80 90> 70 20<20 80>
LayerCount: 2
Fore
SplineSet
0 80 m 1x6c
 0 90 l 1x6c
 30 90 l 1x19
 30 20 l 1x5c
 40 20 l 1x5a
 40 10 l 1
 60 10 l 1x8a20
 60 20 l 1x4a20
 70 20 l 1
 70 80 l 1x6810
 60 80 l 1
 60 90 l 1x6820
 90 90 l 1
 90 10 l 1x9820
 100 10 l 1
 100 0 l 1
 70 0 l 1x9810
 70 10 l 1x4810
 60 10 l 1
 60 0 l 1
 30 0 l 1x8920
 30 10 l 1x4920
 20 10 l 1
 20 20 l 1x4a
 10 20 l 1
 10 80 l 1
 0 80 l 1x6c
50 100 m 1x1880
 50 110 l 1
 30 110 l 1
 30 120 l 1
 50 120 l 1
 50 110 l 1x19
 60 110 l 1
 60 100 l 1x1840
 50 100 l 1
 50 90 l 1
 40 90 l 1
 40 100 l 1
 50 100 l 1x1880
EndSplineSet
Validated: 5
EndChar

StartChar: uni1EE9
Encoding: 399 7913 208
Width: 110
GlyphClass: 2
Flags: W
HStem: 0 10<30 50 80 90> 10 10<50 60> 60 10<80 90> 70 20<90 100> 80 10<0 10 50 60> 100 10<30 40> 110 10<50 60>
VStem: 10 20<10 80> 30 20<100 110> 40 20<110 120> 50 30<10 20 80 90> 60 30<0 10 60 70> 60 20<20 60 70 80> 90 10<70 90>
LayerCount: 2
Fore
SplineSet
0 80 m 1x4920
 0 90 l 1
 30 90 l 1x4880
 30 10 l 1
 50 10 l 1x8920
 50 20 l 1x4120
 60 20 l 1
 60 80 l 1x4808
 50 80 l 1
 50 90 l 1
 80 90 l 1x4820
 80 70 l 1x6808
 90 70 l 1x6810
 90 90 l 1
 100 90 l 1
 100 70 l 1x1004
 90 70 l 1
 90 60 l 1x2010
 80 60 l 1x2008
 80 10 l 1xa020
 90 10 l 1
 90 0 l 1
 60 0 l 1xa010
 60 10 l 1x4010
 50 10 l 1
 50 0 l 1
 20 0 l 1x8020
 20 10 l 1
 10 10 l 1
 10 80 l 1
 0 80 l 1x4920
50 100 m 1x0480
 30 100 l 1
 30 110 l 1x0480
 40 110 l 1x0440
 40 120 l 1
 60 120 l 1
 60 110 l 1x0240
 50 110 l 1x0280
 50 100 l 1x0480
EndSplineSet
Validated: 5
EndChar

StartChar: uni1EED
Encoding: 403 7917 209
Width: 110
GlyphClass: 2
Flags: W
HStem: 0 10<30 50 80 90> 10 10<50 60> 60 10<80 90> 70 20<90 100> 80 10<0 10 50 60> 110 10<30 50>
VStem: 10 20<10 80> 30 20<110 120> 40 10<90 100> 50 10<100 110> 60 30<0 10 60 70> 60 20<20 60 70 80> 90 10<70 90>
LayerCount: 2
Fore
SplineSet
0 80 m 1x4e40
 0 90 l 1
 30 90 l 1x4d
 30 10 l 1
 50 10 l 1x8e40
 50 20 l 1x4640
 60 20 l 1
 60 80 l 1x4c10
 50 80 l 1x4c40
 50 90 l 1
 40 90 l 1
 40 100 l 1
 50 100 l 1x4c80
 50 110 l 1
 30 110 l 1
 30 120 l 1
 50 120 l 1
 50 110 l 1x4d
 60 110 l 1
 60 100 l 1x4c40
 50 100 l 1
 50 90 l 1
 80 90 l 1
 80 70 l 1x6c90
 90 70 l 1x6c20
 90 90 l 1
 100 90 l 1
 100 70 l 1x1408
 90 70 l 1
 90 60 l 1x2420
 80 60 l 1
 80 10 l 1xa410
 90 10 l 1
 90 0 l 1
 60 0 l 1xa420
 60 10 l 1x4420
 50 10 l 1
 50 0 l 1
 20 0 l 1x8440
 20 10 l 1
 10 10 l 1
 10 80 l 1
 0 80 l 1x4e40
EndSplineSet
Validated: 5
EndChar

StartChar: uni1EEF
Encoding: 405 7919 210
Width: 110
GlyphClass: 2
Flags: W
HStem: 0 10<30 50 80 90> 10 10<50 60> 60 10<80 90> 70 20<90 100> 80 10<0 10 50 60> 100 10<20 30 50 70> 110 10<30 50 70 80>
VStem: 10 20<10 80> 20 10<100 110> 30 20<110 120> 50 20<100 110> 60 30<0 10 60 70> 60 20<20 60 70 80> 70 10<110 120> 90 10<70 90>
LayerCount: 2
Fore
SplineSet
20 10 m 1x40a0
 10 10 l 1
 10 80 l 1x49
 0 80 l 1
 0 90 l 1
 30 90 l 1x4840
 30 10 l 1
 50 10 l 1x8920
 50 20 l 1x4120
 60 20 l 1
 60 80 l 1x4808
 50 80 l 1
 50 90 l 1x4820
 80 90 l 1x4804
 80 70 l 1x6808
 90 70 l 1x6810
 90 90 l 1
 100 90 l 1
 100 70 l 1x1002
 90 70 l 1
 90 60 l 1x2010
 80 60 l 1x2008
 80 10 l 1xa004
 90 10 l 1
 90 0 l 1
 60 0 l 1xa010
 60 10 l 1x4010
 50 10 l 1
 50 0 l 1
 20 0 l 1x80a0
 20 10 l 1x40a0
50 110 m 1x0440
 30 110 l 1
 30 100 l 1
 20 100 l 1
 20 110 l 1
 30 110 l 1x0480
 30 120 l 1
 50 120 l 1x0240
 50 110 l 1x0440
 70 110 l 1x0420
 70 120 l 1
 80 120 l 1
 80 110 l 1x0204
 70 110 l 1
 70 100 l 1
 50 100 l 1x0420
 50 110 l 1x0440
EndSplineSet
Validated: 5
EndChar

StartChar: uni1EF1
Encoding: 407 7921 211
Width: 110
GlyphClass: 2
Flags: W
HStem: -10 10<40 60> 10 10<30 50 80 90> 20 10<50 60> 60 10<80 90> 70 20<90 100> 80 10<0 10 50 60>
VStem: 10 20<20 80> 40 20<-10 0> 50 30<20 30 80 90> 60 30<10 20 60 70> 60 20<30 60 70 80> 90 10<70 90>
LayerCount: 2
Fore
SplineSet
10 80 m 1xa680
 0 80 l 1
 0 90 l 1
 30 90 l 1
 30 20 l 1
 50 20 l 1xc680
 50 30 l 1xa280
 60 30 l 1
 60 80 l 1xa620
 50 80 l 1
 50 90 l 1
 80 90 l 1xa680
 80 70 l 1xb620
 90 70 l 1xb640
 90 90 l 1
 100 90 l 1
 100 70 l 1x8a10
 90 70 l 1
 90 60 l 1x9240
 80 60 l 1x9220
 80 20 l 1xd280
 90 20 l 1
 90 10 l 1
 60 10 l 1xd240
 60 20 l 1xa240
 50 20 l 1
 50 10 l 1
 20 10 l 1xc280
 20 20 l 1
 10 20 l 1
 10 80 l 1xa680
60 -10 m 1x83
 40 -10 l 1
 40 0 l 1
 60 0 l 1
 60 -10 l 1x83
EndSplineSet
Validated: 5
EndChar

StartChar: ellipsis
Encoding: 416 8230 212
Width: 110
GlyphClass: 2
Flags: W
HStem: 60 20<0 20 40 60 80 100>
VStem: 0 20<60 80> 40 20<60 80> 80 20<60 80>
CounterMasks: 1 70
LayerCount: 2
Fore
SplineSet
0 60 m 1
 0 80 l 1
 20 80 l 1
 20 60 l 1
 0 60 l 1
40 60 m 1
 40 80 l 1
 60 80 l 1
 60 60 l 1
 40 60 l 1
80 60 m 1
 80 80 l 1
 100 80 l 1
 100 60 l 1
 80 60 l 1
EndSplineSet
Validated: 1
EndChar

StartChar: uni2070
Encoding: 417 8304 213
Width: 110
GlyphClass: 2
Flags: W
HStem: 50 10<30 60> 110 10<30 60>
VStem: 10 20<60 110> 60 20<60 110>
LayerCount: 2
Fore
SplineSet
10 60 m 1
 10 110 l 1
 20 110 l 1
 20 120 l 1
 70 120 l 1
 70 110 l 1
 80 110 l 1
 80 60 l 1
 70 60 l 1
 70 50 l 1
 20 50 l 1
 20 60 l 1
 10 60 l 1
30 110 m 1
 30 60 l 1
 60 60 l 1
 60 110 l 1
 30 110 l 1
EndSplineSet
Validated: 1
AlternateSubs2: "'ssty' Math Script Style lookup 4 subtable" zero.superior.ssty zero.superior.ssty2
AlternateSubs2: "'aalt' Access All Alternates lookup 1 subtable" zero.superior.ssty zero.superior.ssty2
EndChar

StartChar: uni2074
Encoding: 418 8308 214
Width: 110
GlyphClass: 2
Flags: W
HStem: 50 10<40 50 70 80> 70 20<20 30> 70 10<10 20 30 50 70 80> 90 10<30 40> 100 20G<50 70> 100 10<40 50>
VStem: 20 10<80 90> 30 10<90 100> 50 20<60 70 80 100 110 120>
LayerCount: 2
Fore
SplineSet
10 70 m 1xa980
 10 80 l 1
 20 80 l 1xaa80
 20 90 l 1
 30 90 l 1xc280
 30 100 l 1
 40 100 l 1x9180
 40 110 l 1
 50 110 l 1x8580
 50 120 l 1
 70 120 l 1
 70 80 l 1
 80 80 l 1
 80 70 l 1
 70 70 l 1
 70 60 l 1
 80 60 l 1
 80 50 l 1
 40 50 l 1
 40 60 l 1
 50 60 l 1
 50 70 l 1
 10 70 l 1xa980
30 80 m 1
 50 80 l 1
 50 100 l 1xaa80
 40 100 l 1
 40 90 l 1x9180
 30 90 l 1xc280
 30 80 l 1
EndSplineSet
Validated: 5
AlternateSubs2: "'ssty' Math Script Style lookup 4 subtable" four.superior.ssty four.superior.ssty2
AlternateSubs2: "'aalt' Access All Alternates lookup 1 subtable" four.superior.ssty four.superior.ssty2
EndChar

StartChar: uni2075
Encoding: 419 8309 215
Width: 110
GlyphClass: 2
Flags: W
HStem: 50 10<30 60> 60 10<10 20> 80 20<20 30> 90 10<30 60> 110 10<20 80>
VStem: 10 20<60 70 80 90> 10 10<100 110> 60 21<60 90>
LayerCount: 2
Fore
SplineSet
10 60 m 1x4d
 10 70 l 1
 30 70 l 1x4d
 30 60 l 1
 60 60 l 1
 60 90 l 1
 30 90 l 1x9d
 30 80 l 1
 10 80 l 1x2d
 10 120 l 1
 80 120 l 1
 80 110 l 1
 20 110 l 1
 20 100 l 1x2b
 70 100 l 1
 70 90 l 1
 81 90 l 1
 81 60 l 1
 70 60 l 1x5b
 70 50 l 1
 20 50 l 1x8b
 20 60 l 1x4b
 10 60 l 1x4d
EndSplineSet
Validated: 1
AlternateSubs2: "'ssty' Math Script Style lookup 4 subtable" five.superior.ssty five.superior.ssty2
AlternateSubs2: "'aalt' Access All Alternates lookup 1 subtable" five.superior.ssty five.superior.ssty2
EndChar

StartChar: uni2076
Encoding: 420 8310 216
Width: 110
GlyphClass: 2
Flags: W
HStem: 50 10<30 60> 60 20<70 80> 80 10<30 60> 100 10<70 80> 110 10<30 60>
VStem: 10 20<60 80 90 110> 60 20<60 80 100 110>
LayerCount: 2
Fore
SplineSet
20 60 m 1x46
 10 60 l 1
 10 110 l 1
 20 110 l 1
 20 120 l 1
 70 120 l 1x4e
 70 110 l 1
 80 110 l 1
 80 100 l 1
 60 100 l 1x16
 60 110 l 1
 30 110 l 1
 30 90 l 1
 70 90 l 1x2e
 70 80 l 1
 80 80 l 1
 80 60 l 1
 70 60 l 1x46
 70 50 l 1
 20 50 l 1x86
 20 60 l 1x46
60 60 m 1xa6
 60 80 l 1
 30 80 l 1
 30 60 l 1
 60 60 l 1xa6
EndSplineSet
Validated: 1
AlternateSubs2: "'ssty' Math Script Style lookup 4 subtable" six.superior.ssty six.superior.ssty2
AlternateSubs2: "'aalt' Access All Alternates lookup 1 subtable" six.superior.ssty six.superior.ssty2
EndChar

StartChar: uni2077
Encoding: 421 8311 217
Width: 110
GlyphClass: 2
Flags: W
HStem: 80 20<50 60> 100 20<10 20 70 80> 110 10<20 60>
VStem: 10 10<100 110> 30 20<50 80> 40 20<80 90> 50 20<90 100> 60 20<100 110>
LayerCount: 2
Fore
SplineSet
10 120 m 1x51
 80 120 l 1
 80 100 l 1x51
 70 100 l 1
 70 90 l 1x52
 60 90 l 1
 60 80 l 1x94
 50 80 l 1
 50 50 l 1
 30 50 l 1
 30 80 l 1x98
 40 80 l 1
 40 90 l 1x94
 50 90 l 1
 50 100 l 1x92
 60 100 l 1
 60 110 l 1
 20 110 l 1xb1
 20 100 l 1
 10 100 l 1
 10 120 l 1x51
EndSplineSet
Validated: 1
AlternateSubs2: "'ssty' Math Script Style lookup 4 subtable" seven.superior.ssty seven.superior.ssty2
AlternateSubs2: "'aalt' Access All Alternates lookup 1 subtable" seven.superior.ssty seven.superior.ssty2
EndChar

StartChar: uni2078
Encoding: 422 8312 218
Width: 110
GlyphClass: 2
Flags: W
HStem: 50 10<30 60> 60 20<10 20 70 80> 80 10<30 60> 90 20<10 20 70 80> 110 10<30 60>
VStem: 10 20<60 80 90 110> 60 20<60 80 90 110>
LayerCount: 2
Fore
SplineSet
20 120 m 1x0e
 70 120 l 1x0e
 70 110 l 1
 80 110 l 1
 80 90 l 1
 70 90 l 1
 70 80 l 1
 80 80 l 1
 80 60 l 1
 70 60 l 1x56
 70 50 l 1
 20 50 l 1x86
 20 60 l 1
 10 60 l 1
 10 80 l 1
 20 80 l 1
 20 90 l 1
 10 90 l 1
 10 110 l 1
 20 110 l 1x56
 20 120 l 1x0e
30 110 m 1
 30 90 l 1
 60 90 l 1x2e
 60 110 l 1
 30 110 l 1
30 80 m 1
 30 60 l 1
 60 60 l 1xa6
 60 80 l 1
 30 80 l 1
EndSplineSet
Validated: 1
AlternateSubs2: "'ssty' Math Script Style lookup 4 subtable" eight.superior.ssty eight.superior.ssty2
AlternateSubs2: "'aalt' Access All Alternates lookup 1 subtable" eight.superior.ssty eight.superior.ssty2
EndChar

StartChar: uni2079
Encoding: 423 8313 219
Width: 110
GlyphClass: 2
Flags: W
HStem: 50 10<30 60> 60 10<10 20> 80 10<30 60> 90 20<10 20> 110 10<30 60>
VStem: 10 20<60 70 90 110> 60 20<60 80 90 110>
LayerCount: 2
Fore
SplineSet
30 70 m 1x46
 30 60 l 1
 60 60 l 1
 60 80 l 1
 20 80 l 1xa6
 20 90 l 1
 10 90 l 1
 10 110 l 1
 20 110 l 1x16
 20 120 l 1
 70 120 l 1
 70 110 l 1
 80 110 l 1
 80 60 l 1
 70 60 l 1x4e
 70 50 l 1
 20 50 l 1x86
 20 60 l 1
 10 60 l 1
 10 70 l 1
 30 70 l 1x46
60 90 m 1
 60 110 l 1
 30 110 l 1x2e
 30 90 l 1
 60 90 l 1
EndSplineSet
Validated: 1
AlternateSubs2: "'ssty' Math Script Style lookup 4 subtable" nine.superior.ssty nine.superior.ssty2
AlternateSubs2: "'aalt' Access All Alternates lookup 1 subtable" nine.superior.ssty nine.superior.ssty2
EndChar

StartChar: uni2080
Encoding: 424 8320 220
Width: 110
GlyphClass: 2
Flags: W
HStem: -10 10<30 60> 50 10<30 60>
VStem: 10 20<0 50> 60 20<0 50>
LayerCount: 2
Fore
SplineSet
10 0 m 1
 10 50 l 1
 20 50 l 1
 20 60 l 1
 70 60 l 1
 70 50 l 1
 80 50 l 1
 80 0 l 1
 70 0 l 1
 70 -10 l 1
 20 -10 l 1
 20 0 l 1
 10 0 l 1
30 50 m 1
 30 0 l 1
 60 0 l 1
 60 50 l 1
 30 50 l 1
EndSplineSet
Validated: 1
AlternateSubs2: "'ssty' Math Script Style lookup 4 subtable" zero.inferior.ssty zero.inferior.ssty2
AlternateSubs2: "'aalt' Access All Alternates lookup 1 subtable" zero.inferior.ssty zero.inferior.ssty2
EndChar

StartChar: uni2081
Encoding: 425 8321 221
Width: 110
GlyphClass: 2
Flags: W
HStem: -10 10<30 40 60 70> 40 10<30 40>
VStem: 40 20<0 40 50 60>
LayerCount: 2
Fore
SplineSet
30 -10 m 1
 30 0 l 1
 40 0 l 1
 40 40 l 1
 30 40 l 1
 30 50 l 1
 40 50 l 1
 40 60 l 1
 60 60 l 1
 60 0 l 1
 70 0 l 1
 70 -10 l 1
 30 -10 l 1
EndSplineSet
Validated: 1
AlternateSubs2: "'ssty' Math Script Style lookup 4 subtable" one.inferior.ssty one.inferior.ssty2
AlternateSubs2: "'aalt' Access All Alternates lookup 1 subtable" one.inferior.ssty one.inferior.ssty2
EndChar

StartChar: uni2082
Encoding: 426 8322 222
Width: 110
GlyphClass: 2
Flags: W
HStem: -10 20<10 20 70 80> -10 10<30 70> 10 20<30 40> 20 10<40 60> 30 20<70 80> 40 10<10 20> 50 10<30 60>
VStem: 10 20<0 10 40 50> 20 20<10 20> 60 20<30 50> 70 10<0 10>
LayerCount: 2
Fore
SplineSet
80 -10 m 1x8120
 10 -10 l 1
 10 10 l 1x8120
 20 10 l 1
 20 20 l 1x9080
 30 20 l 1x91
 30 30 l 1x21
 60 30 l 1
 60 50 l 1
 30 50 l 1x1340
 30 40 l 1
 10 40 l 1
 10 50 l 1x0540
 20 50 l 1x0480
 20 60 l 1
 70 60 l 1x02a0
 70 50 l 1x08a0
 80 50 l 1
 80 30 l 1x0840
 70 30 l 1x0820
 70 20 l 1
 40 20 l 1x10a0
 40 10 l 1x20a0
 30 10 l 1
 30 0 l 1
 70 0 l 1x6120
 70 10 l 1
 80 10 l 1
 80 -10 l 1x8120
EndSplineSet
Validated: 1
AlternateSubs2: "'ssty' Math Script Style lookup 4 subtable" two.inferior.ssty two.inferior.ssty2
AlternateSubs2: "'aalt' Access All Alternates lookup 1 subtable" two.inferior.ssty two.inferior.ssty2
EndChar

StartChar: uni2083
Encoding: 427 8323 223
Width: 110
GlyphClass: 2
Flags: W
HStem: -10 10<30 60> 0 20<70 80> 0 10<10 20> 20 10<30 60> 30 20<70 80> 40 10<10 20> 50 10<30 60>
VStem: 10 20<0 10 40 50> 60 20<0 20 30 50>
LayerCount: 2
Fore
SplineSet
20 0 m 1x2180
 10 0 l 1
 10 10 l 1
 30 10 l 1x2180
 30 0 l 1
 60 0 l 1
 60 20 l 1
 30 20 l 1
 30 30 l 1
 60 30 l 1
 60 50 l 1
 30 50 l 1x9380
 30 40 l 1
 10 40 l 1
 10 50 l 1
 20 50 l 1x0580
 20 60 l 1
 70 60 l 1x0380
 70 50 l 1
 80 50 l 1
 80 30 l 1
 70 30 l 1
 70 20 l 1
 80 20 l 1
 80 0 l 1
 70 0 l 1x4980
 70 -10 l 1
 20 -10 l 1x8180
 20 0 l 1x2180
EndSplineSet
Validated: 1
AlternateSubs2: "'ssty' Math Script Style lookup 4 subtable" three.inferior.ssty three.inferior.ssty2
AlternateSubs2: "'aalt' Access All Alternates lookup 1 subtable" three.inferior.ssty three.inferior.ssty2
EndChar

